<svg width="163" height="132" viewBox="0 0 163 132" fill="none" xmlns="http://www.w3.org/2000/svg">
<g clip-path="url(#clip0_1196_1433)">
<path opacity="0.8" d="M84.2269 23.29L85.1269 31.2038L72.0057 59.4051L66.7067 59.3907L84.2269 23.29Z" fill="black"/>
<path opacity="0.8" d="M73.1312 26.6904L75.115 32.0072L63.4797 57.1806H58.3009L73.1312 26.6904Z" fill="black"/>
<path d="M89.2684 37.1748L86.9413 41.9356L95.1902 59.2963L100.06 59.4046L89.2684 37.1748Z" fill="black"/>
<path d="M112.139 76H111.404C107.939 76 104.658 75.9446 100.509 75.8893C96.5634 75.8387 92.8362 75.7906 89.9648 75.7906H71.037C64.2717 75.7906 61.2777 75.1143 56.4642 70.3896C51.6507 65.6649 49 60.3987 49 53.7678V9H89.982C96.7473 9 99.7904 10.3454 104.633 14.4227C109.812 18.7719 112.097 24.0887 112.097 30.7292V53.7678C112.097 56.9304 112.097 61.0774 112.12 65.08C112.12 68.9647 112.139 71.9902 112.139 74.9482V76ZM51.663 11.7125V53.7678C51.6688 58.8089 53.7116 63.6419 57.3432 67.2065C60.9749 70.7712 65.8987 72.7763 71.0346 72.782H89.9795C92.8804 72.782 96.6272 72.8302 100.595 72.8831C103.579 72.9216 106.634 72.9601 109.393 72.9794C109.393 70.5557 109.393 67.7974 109.376 65.1017C109.376 61.087 109.354 56.9352 109.354 53.7654V30.7292C109.348 25.6881 107.305 20.8551 103.673 17.2904C100.042 13.7258 95.1179 11.7207 89.982 11.7149L51.663 11.7125Z" fill="black"/>
</g>
<g clip-path="url(#clip1_1196_1433)">
<path d="M109.821 115.829C108.102 115.829 106.422 115.327 104.994 114.386C103.565 113.445 102.451 112.108 101.793 110.543C101.135 108.979 100.963 107.257 101.298 105.596C101.633 103.934 102.461 102.409 103.675 101.211C104.89 100.013 106.438 99.1973 108.124 98.8668C109.809 98.5363 111.556 98.7058 113.143 99.3538C114.731 100.002 116.088 101.099 117.042 102.508C117.997 103.916 118.507 105.572 118.507 107.265C118.504 109.535 117.588 111.712 115.96 113.317C114.331 114.922 112.124 115.825 109.821 115.829ZM109.821 101.138C108.591 101.138 107.388 101.497 106.366 102.17C105.343 102.844 104.546 103.801 104.075 104.921C103.604 106.041 103.481 107.273 103.721 108.462C103.961 109.651 104.553 110.743 105.423 111.6C106.292 112.458 107.4 113.041 108.606 113.278C109.813 113.514 111.063 113.393 112.199 112.929C113.335 112.465 114.306 111.679 114.989 110.671C115.672 109.663 116.037 108.478 116.037 107.265C116.035 105.641 115.379 104.084 114.214 102.935C113.048 101.786 111.469 101.14 109.821 101.138Z" fill="black"/>
<path d="M109.821 99.3379C108.23 99.3376 106.674 99.8024 105.351 100.673C104.028 101.545 102.997 102.783 102.388 104.232C101.779 105.68 101.62 107.275 101.93 108.813C102.24 110.351 103.006 111.764 104.131 112.873C105.256 113.981 106.69 114.737 108.25 115.042C109.811 115.348 111.428 115.191 112.898 114.591C114.368 113.991 115.624 112.974 116.508 111.67C117.391 110.366 117.863 108.833 117.863 107.265C117.86 105.163 117.012 103.148 115.505 101.662C113.997 100.176 111.953 99.3402 109.821 99.3379ZM109.821 114.028C108.463 114.028 107.137 113.632 106.008 112.889C104.879 112.146 104 111.09 103.48 109.854C102.961 108.618 102.825 107.258 103.089 105.946C103.354 104.634 104.007 103.429 104.967 102.483C105.926 101.537 107.149 100.893 108.48 100.632C109.811 100.37 111.191 100.504 112.445 101.016C113.698 101.528 114.77 102.395 115.524 103.507C116.278 104.619 116.681 105.927 116.681 107.265C116.677 109.057 115.954 110.776 114.668 112.043C113.382 113.311 111.639 114.025 109.821 114.028Z" fill="black"/>
<path d="M142.67 116.676C137.85 116.676 133.929 112.49 133.929 107.346C133.929 102.201 137.85 98.0137 142.67 98.0137C147.491 98.0137 151.412 102.2 151.412 107.346C151.412 112.492 147.491 116.676 142.67 116.676ZM142.67 100.668C139.221 100.668 136.415 103.664 136.415 107.346C136.415 111.028 139.221 114.024 142.67 114.024C146.119 114.024 148.927 111.028 148.927 107.346C148.927 103.664 146.12 100.668 142.67 100.668Z" fill="black"/>
<path d="M151.97 98.6152H149.423V116.677H151.97V98.6152Z" fill="black"/>
<path d="M88.3273 116.676C83.5083 116.676 79.5874 112.49 79.5874 107.346C79.5874 102.201 83.5083 98.0137 88.3273 98.0137C93.1462 98.0137 97.0686 102.201 97.0686 107.346C97.0686 112.49 93.1477 116.676 88.3273 116.676ZM88.3273 100.668C84.8785 100.668 82.0723 103.664 82.0723 107.346C82.0723 111.028 84.8785 114.024 88.3273 114.024C91.776 114.024 94.5837 111.028 94.5837 107.346C94.5837 103.664 91.7775 100.668 88.3273 100.668Z" fill="black"/>
<path d="M97.6275 98.6152H95.0798V116.811H97.6275V98.6152Z" fill="black"/>
<path d="M95.7014 116.167H97.0074V99.2559H95.7014V116.167Z" fill="black"/>
<path d="M103.001 98.6152H100.25V121.839H103.001V98.6152Z" fill="black"/>
<path d="M100.857 121.241H102.396V99.2148H100.857V121.241Z" fill="black"/>
<path d="M133.324 114.403L133.803 116.465C132.978 116.639 132.138 116.732 131.294 116.743C130.09 116.743 129.848 116.792 129.185 116.434C128.572 116.129 128.08 115.634 127.783 115.025C127.513 114.441 127.378 113.214 127.378 111.342V100.779H124.248V98.8644H127.378V93.8066L129.984 91.9375V98.8599H133.324V100.775H129.984V111.527C129.984 112.41 130.044 113.441 130.16 113.695C130.279 113.952 130.48 114.165 130.731 114.301C130.996 114.449 131.375 114.527 131.867 114.527C132.355 114.517 132.841 114.475 133.324 114.403Z" fill="black"/>
<path d="M154.419 116.677V91.3096H157V116.677H154.419Z" fill="black"/>
<path d="M122.295 92.0986H120.064V94.8352H122.295V92.0986Z" fill="black"/>
<path d="M122.295 97.7832H120.064V116.751H122.295V97.7832Z" fill="black"/>
<path d="M45.8951 112.443C43.8032 114.357 41.5155 115.319 39.0783 115.319C33.6632 115.319 30.0247 111.792 30.0247 106.544C30.0247 101.241 33.6722 97.6816 39.1023 97.6816C41.3212 97.6816 43.2712 98.5329 45.2406 100.361L45.4902 100.592L47.0248 98.8024L46.8081 98.5947C45.3647 97.2073 42.9903 95.3633 39.0664 95.3633C32.1719 95.3633 27.356 99.9601 27.356 106.544C27.356 109.905 28.508 112.73 30.6896 114.721C32.7816 116.628 35.658 117.637 39.0066 117.637C42.0922 117.637 44.897 116.49 47.346 114.228L47.5582 114.03L46.1581 112.202L45.8951 112.443Z" fill="black"/>
<path d="M77.612 112.202L77.3446 112.443C75.2526 114.357 72.9649 115.319 70.5278 115.319C65.1112 115.319 61.4727 111.792 61.4727 106.544C61.4727 101.241 65.1216 97.6816 70.5517 97.6816C72.7707 97.6816 74.7207 98.5329 76.6901 100.361L76.9381 100.592L78.4742 98.8024L78.2576 98.5947C76.8126 97.2073 74.4398 95.3633 70.5159 95.3633C63.6214 95.3633 58.8054 99.9601 58.8054 106.544C58.8054 109.905 59.9575 112.73 62.1391 114.721C64.231 116.628 67.1075 117.637 70.4561 117.637C73.5417 117.637 76.3464 116.49 78.7955 114.228L79.0077 114.03L77.612 112.202Z" fill="black"/>
<path d="M25.9812 118.535H28.3615L19.3975 100.146L18.1902 102.553L25.9812 118.535Z" fill="black"/>
<path d="M5.00793 113.262H16.1042L15.0463 111.233H6.25563L5.00793 113.262Z" fill="black"/>
<path d="M12.0489 110.382L18.7939 96.8715L17.5851 94.4648L9.65808 110.382H12.0489Z" fill="black"/>
<path d="M9.23515 111.233L5.59814 118.536H7.97699L11.623 111.233H9.23515Z" fill="black"/>
</g>
<defs>
<clipPath id="clip0_1196_1433">
<rect width="64" height="67" fill="white" transform="translate(49 9)"/>
</clipPath>
<clipPath id="clip1_1196_1433">
<rect width="163" height="41" fill="white" transform="translate(0 86)"/>
</clipPath>
</defs>
</svg>
