<svg width="192" height="72" viewBox="0 0 192 72" fill="none" xmlns="http://www.w3.org/2000/svg">
<path d="M10.2505 9.54946C10.0912 9.70837 9.97743 10.5484 9.97743 11.7743C9.97743 13.0002 9.86365 13.8402 9.70435 13.9991C9.5223 14.1807 8.56655 14.2715 6.88259 14.2715C5.47171 14.2715 4.17461 14.3396 3.9698 14.4077C3.65122 14.5212 3.60571 15.1342 3.60571 18.9481V23.3297L4.35666 23.4659C4.74351 23.534 5.65376 23.6021 6.33644 23.6475L7.58803 23.6929L7.70181 37.6093C7.77008 45.2826 7.74732 51.6619 7.6563 51.7754C7.58803 51.9117 6.85983 52.0025 5.9951 51.9798C3.42366 51.9117 3.60571 51.5484 3.60571 56.611C3.60571 59.2898 3.69673 61.0606 3.83327 61.1514C3.94705 61.2195 5.28966 61.333 6.81432 61.3784C8.31623 61.4238 9.61333 61.5147 9.6816 61.5601C9.72711 61.6282 9.81813 62.3319 9.86365 63.1265C9.97743 65.5102 9.63609 65.3513 14.5514 65.3513C17.8055 65.3513 18.8978 65.2832 18.9661 65.0789C19.0116 64.92 19.1026 64.0573 19.1482 63.1946L19.2164 61.6055L20.4453 61.4465C21.1052 61.3784 21.7879 61.3557 21.9244 61.4011C22.0837 61.4693 22.2885 62.2865 22.4023 63.3762L22.6071 65.2378L26.7942 65.3059C29.6842 65.3513 31.0724 65.2832 31.2772 65.1016C31.482 64.92 31.5958 64.3297 31.5958 63.2854C31.5958 61.4465 31.573 61.4693 34.3265 61.0379C38.3543 60.3795 42.1319 57.5418 44.2709 53.5235C46.3645 49.5733 46.1825 43.3756 43.8158 39.5844C43.3834 38.8579 41.9726 37.0872 41.7905 37.019C41.4264 36.8601 41.6312 36.0656 42.2456 35.1121C44.1344 32.2743 44.635 27.1663 43.429 23.5567C41.9726 19.266 38.0358 15.7698 33.3025 14.5439L31.7095 14.158L31.5958 12.0013C31.5275 10.8208 31.391 9.70837 31.2999 9.54946C31.0724 9.20893 23.6084 9.16352 22.9257 9.50406C22.5616 9.70837 22.4933 10.0035 22.4933 11.6608C22.4933 14.2715 22.4933 14.2715 20.7866 14.2715C19.0799 14.2715 19.0799 14.2715 19.0799 11.6608C19.0799 10.0035 19.0116 9.70837 18.6475 9.50406C17.9876 9.16352 10.5918 9.20893 10.2505 9.54946ZM32.506 23.988C32.9384 24.1923 33.6211 24.8053 34.0307 25.3501C34.7134 26.2582 34.7816 26.4626 34.7816 28.029C34.7816 29.4138 34.6906 29.8679 34.2355 30.5716C32.9384 32.6148 32.6881 32.6602 24.3138 32.6602C18.1241 32.6602 17.2821 32.6148 17.1684 32.297C16.9863 31.843 16.9863 24.7599 17.1684 24.0788L17.3049 23.5794H24.5186C30.8221 23.6021 31.8006 23.6475 32.506 23.988ZM33.7121 42.3086C34.9182 42.8081 36.0787 44.3064 36.3746 45.7594C36.8524 48.0523 36.1242 50.0501 34.3493 51.2306L33.257 51.9798L25.3378 51.9571C20.9914 51.9571 17.3277 51.8889 17.2366 51.8208C17.0091 51.6846 16.9636 43.2848 17.1684 42.4676L17.3049 41.9681H25.1103C31.4592 41.9681 33.0522 42.0362 33.7121 42.3086Z" fill="#054ADA"/>
<path d="M127.331 36.0206C126.762 36.6562 126.853 36.8832 127.923 37.587C129.447 38.6086 130.585 39.1081 130.858 38.8356C131.04 38.654 130.653 38.1319 129.675 37.1103C128.878 36.293 128.105 35.6119 127.968 35.6119C127.809 35.6119 127.536 35.7935 127.331 36.0206Z" fill="#054ADA"/>
<path d="M163.741 38.1767C163.513 38.7897 163.968 39.0848 165.197 39.1075C166.267 39.1302 166.426 39.1983 166.426 39.5843C166.426 39.8794 166.221 40.061 165.72 40.1518C164.674 40.3788 164.492 40.5605 164.492 41.4004C164.492 42.3539 164.287 42.422 161.556 42.422C159.463 42.422 159.303 42.4447 158.78 43.0123L158.234 43.6025L158.165 52.025C158.143 56.679 158.211 60.6064 158.302 60.7654C158.552 61.1286 161.465 61.1967 161.829 60.8335C161.966 60.6973 162.102 59.7438 162.148 58.6995C162.193 57.6779 162.262 56.7017 162.33 56.5428C162.398 56.3384 163.286 56.2703 165.72 56.2703H168.997L169.157 58.0184C169.225 58.9946 169.316 60.0389 169.339 60.3567C169.384 60.9016 169.452 60.9243 171.068 60.9924C172.001 61.0378 172.843 60.9697 172.957 60.8562C173.093 60.72 173.162 57.2465 173.162 52.4337C173.139 43.5798 173.093 43.3074 171.933 42.6718C171.592 42.4901 170.408 42.3766 168.679 42.3539C166.153 42.3085 165.971 42.2858 165.971 41.8545C165.971 41.5139 166.176 41.3777 166.858 41.2642C167.336 41.1961 167.814 40.9918 167.928 40.8102C168.224 40.4015 168.042 38.6535 167.677 38.2221C167.291 37.7681 163.923 37.7227 163.741 38.1767ZM169.134 47.6889C169.202 48.3473 169.27 49.5278 169.27 50.2997C169.27 51.4575 169.202 51.7526 168.838 51.9569C168.269 52.2521 163.012 52.2521 162.444 51.9569C161.966 51.7072 161.92 51.0942 162.148 48.143L162.262 46.5084H165.607H168.975L169.134 47.6889Z" fill="#054ADA"/>
<path d="M126.534 39.5383C125.874 40.1966 125.351 40.855 125.351 41.0139C125.351 41.4453 126.216 41.3317 127.217 40.7869C127.945 40.3783 128.173 40.3329 128.491 40.5599C128.924 40.855 129.538 41.1501 130.266 41.3772C130.608 41.4907 130.813 41.4226 130.904 41.1501C131.017 40.8777 130.767 40.5372 130.084 39.9469C129.561 39.4929 128.924 38.948 128.719 38.721C128.105 38.1307 127.831 38.2216 126.534 39.5383Z" fill="#054ADA"/>
<path d="M48.7994 42.6263C48.7084 42.7398 48.6629 46.5992 48.6401 51.185C48.6401 59.04 48.6629 59.5621 49.0725 60.107C49.7779 61.0832 50.6882 61.2421 55.6035 61.2421C61.3608 61.2648 61.3153 61.2648 61.2015 59.1081C61.156 58.2227 61.0195 57.4508 60.8602 57.36C60.7236 57.2692 58.8349 57.1784 56.6958 57.1784C54.534 57.1784 52.7362 57.1557 52.7135 57.1103C52.6907 57.0876 52.5997 53.7958 52.5314 49.8002L52.4177 42.5355L50.6654 42.4674C49.7097 42.422 48.8677 42.5128 48.7994 42.6263Z" fill="#054ADA"/>
<path d="M62.8627 43.1937L62.089 43.9656V51.6162C62.089 58.9036 62.1117 59.3123 62.5441 60.016C63.204 61.1057 64.2053 61.2646 69.9171 61.2646C74.969 61.2646 75.6744 61.1511 76.6074 60.3112L77.108 59.8344V51.7752V43.7386L76.4481 43.0802L75.7882 42.4219H69.7123H63.6364L62.8627 43.1937ZM73.0802 46.7807C73.2623 47.3028 73.2623 56.6107 73.0575 56.9058C72.9209 57.1102 72.0562 57.1783 69.5758 57.1329L66.2989 57.0648L66.2306 52.0703C66.2079 49.3233 66.2306 46.9623 66.2761 46.8034C66.4354 46.3947 72.9209 46.372 73.0802 46.7807Z" fill="#054ADA"/>
<path d="M78.9968 42.922C78.0866 43.8982 78.0183 44.4657 78.0183 51.912C78.0183 59.6535 78.0411 59.7897 79.2244 60.6751C79.8388 61.1291 80.2029 61.1518 85.1865 61.2199C93.4015 61.3334 93.2649 61.4242 93.2649 55.5444C93.2649 50.0959 93.1056 49.8688 89.055 49.7326C85.8009 49.6191 85.5278 49.7326 84.9817 51.4353C84.3445 53.5239 84.4128 53.6601 86.4381 53.7282C89.0778 53.7963 89.1006 53.819 89.2371 55.1811C89.4191 57.1789 89.3964 57.1789 85.7782 57.1789C83.3888 57.1789 82.5695 57.1108 82.3647 56.8611C82.1827 56.6568 82.1144 55.0676 82.1599 51.5942L82.2282 46.6224L87.4394 46.5543C90.921 46.5316 92.7643 46.4181 92.9691 46.2365C93.1967 46.0549 93.2649 45.51 93.2194 44.2614L93.1511 42.536L86.3015 42.4679L79.4747 42.4225L78.9968 42.922Z" fill="#054ADA"/>
<path d="M101.639 43.4885C101.571 45.1685 101.616 46.0538 101.776 46.2355C101.867 46.3263 102.936 46.4398 104.142 46.5079L106.35 46.6214L106.418 53.7272C106.463 59.1076 106.532 60.8556 106.759 60.9237C107.692 61.2416 109.558 61.2416 110.036 60.9237L110.56 60.5832V53.5455V46.5306L112.903 46.4625L115.225 46.3944V44.4647V42.535L108.466 42.4669L101.685 42.4215L101.639 43.4885Z" fill="#054ADA"/>
<path d="M116.408 42.5814C116.317 42.6495 116.249 46.7813 116.249 51.7531C116.249 62.0826 115.998 61.0383 118.547 61.0837C120.14 61.1064 120.413 60.8793 120.231 59.6761C120.185 59.2448 120.117 55.1811 120.117 50.6407V42.4225H118.342C117.364 42.4225 116.476 42.4906 116.408 42.5814Z" fill="#054ADA"/>
<path d="M122.188 42.7851C121.096 43.5569 121.027 44.1472 121.027 51.7751C121.027 61.6959 120.709 61.2873 127.968 61.2419C130.471 61.2192 132.77 61.1511 133.088 61.0603C133.634 60.9014 133.657 60.8333 133.657 59.1079V57.2917L129.697 57.2236C127.24 57.2009 125.601 57.0647 125.419 56.9285C125.055 56.6107 125.032 54.4086 125.397 54.0453C125.556 53.8864 126.284 53.7729 127.058 53.7729C127.809 53.7729 128.537 53.6821 128.673 53.5913C128.924 53.4324 129.538 51.8432 129.789 50.7308C129.993 49.8227 129.675 49.6865 127.354 49.6865C125.101 49.6865 125.032 49.6184 125.169 47.6206L125.237 46.6217L129.197 46.5536C131.723 46.5309 133.27 46.3947 133.475 46.2358C133.703 46.0542 133.771 45.5093 133.725 44.2607L133.657 42.5353L128.196 42.4672C123.417 42.4218 122.666 42.4672 122.188 42.7851Z" fill="#054ADA"/>
<path d="M135.682 42.8302C134.704 43.6475 134.681 43.8745 134.681 52.5013C134.681 61.9227 134.454 61.0146 136.797 61.0827C138.891 61.1281 138.777 61.5368 138.777 53.5229V46.4852L142.259 46.5533L145.718 46.6215L145.832 53.7045C145.9 57.5866 146.014 60.833 146.082 60.9238C146.355 61.1962 149.222 61.1054 149.586 60.8103C149.882 60.5606 149.928 59.4482 149.928 52.6148C149.928 44.4647 149.882 43.8972 148.972 42.921C148.494 42.4216 148.426 42.4216 142.327 42.4216C136.775 42.4443 136.115 42.467 135.682 42.8302Z" fill="#054ADA"/>
<path d="M174.755 43.2164L174.049 44.0337V51.6616C174.049 58.8582 174.072 59.3123 174.504 60.016C175.187 61.1284 176.029 61.2646 181.809 61.2646C186.451 61.2646 186.975 61.2192 187.703 60.8106C188.135 60.5836 188.681 60.3112 188.909 60.2203C189.273 60.0841 189.296 59.4712 189.296 51.6843C189.296 46.9623 189.205 43.3527 189.091 43.4208C188.977 43.4889 188.613 43.2846 188.295 42.9894L187.68 42.4219H181.581H175.46L174.755 43.2164ZM185.04 46.8261C185.245 47.3482 185.222 56.588 185.018 56.9058C184.881 57.1102 184.016 57.1783 181.536 57.1329L178.259 57.0648L178.191 52.0703C178.168 49.3233 178.191 46.9623 178.236 46.8034C178.418 46.3493 184.881 46.3947 185.04 46.8261Z" fill="#054ADA"/>
</svg>
