<svg width="193" height="49" viewBox="0 0 193 49" fill="none" xmlns="http://www.w3.org/2000/svg">
<g clip-path="url(#clip0_1222_1578)">
<path d="M100.816 48.9961C91.8641 48.9961 91.3156 43.7283 92.9653 37.7389H100.195C99.4906 41.0448 99.0415 43.8234 103.015 43.8234C105.459 43.8234 106.992 42.2461 107.493 39.8953C108.814 33.6682 94.3429 33.2879 96.5324 22.9858C97.6812 17.5711 101.184 13.2627 109.993 13.2627C117.033 13.2627 119.853 16.4216 117.836 23.6599H110.797C111.349 21.0671 111.479 18.4354 108.56 18.4354C106.21 18.4354 104.548 19.7318 104.042 22.1215C102.643 28.6857 117.322 28.1109 115.007 38.9748C113.103 47.946 106.323 48.9961 100.816 48.9961Z" fill="black"/>
<path d="M143.082 48.4251L150.436 13.8369H169.3L168.168 19.1522H156.534L154.72 27.6826H165.448L164.316 32.9979H153.589L151.443 43.1055H163.461L162.33 48.4251H143.082Z" fill="black"/>
<path d="M136.051 27.6826L138.992 13.8369H146.221L138.871 48.4251H131.646L134.924 32.9979H126.641L123.359 48.4251H116.13L123.48 13.8369H130.714L127.768 27.6826H136.051Z" fill="black"/>
<path d="M82.1257 23.6594L83.5854 48.4251H91.2033L89.1693 13.8369H79.6426L62.7139 48.4251H70.0036L82.1257 23.6594Z" fill="black"/>
<path d="M184.225 13.833H172.159C169.711 25.3567 167.264 36.8875 164.817 48.4256H176.594C188.949 48.4256 190.72 36.2566 191.851 30.937C194.123 20.1595 193.691 13.833 184.225 13.833ZM184.475 31.1185C182.631 39.7872 181.068 43.093 176.663 43.093H173.169L178.261 19.1396H181.996C187.023 19.1526 185.827 24.7574 184.475 31.1315V31.1185Z" fill="black"/>
<path d="M60.9951 48.4251L68.3453 13.8369H61.116L58.1751 27.6826H49.8921L52.8331 13.8369H45.6038L38.2537 48.4251H45.4829L48.7607 32.9979H57.0436L53.7659 48.4251H60.9951Z" fill="black"/>
<path d="M40.1365 19.1525L41.268 13.8372H34.0387L36.9797 0.00878906H29.7504L26.8095 13.8372H18.5265L21.4675 0.00878906H14.2382L11.2973 13.8372H4.07238L2.94093 19.1525H10.1529L8.34342 27.6785H1.12714L0 32.9981H7.22492L3.94715 48.4254H11.1764L14.4542 32.9981H22.7371L19.4594 48.4254H26.6843L29.9664 32.9981H37.1913L38.3228 27.6785H31.0978L32.9073 19.1525H40.1365ZM23.8686 27.6785H15.5813L17.3994 19.1525H25.6996L23.8686 27.6785Z" fill="black"/>
</g>
<defs>
<clipPath id="clip0_1222_1578">
<rect width="193" height="49" fill="white"/>
</clipPath>
</defs>
</svg>
