<svg width="208" height="39" viewBox="0 0 208 39" fill="none" xmlns="http://www.w3.org/2000/svg">
<g clip-path="url(#clip0_1622_1486)">
<path fill-rule="evenodd" clip-rule="evenodd" d="M92.5026 6.32051C95.7744 6.32051 98.7487 7.80769 100.756 10.1872L104.103 6.84103C101.277 3.64359 97.1128 1.6359 92.5026 1.6359C83.9513 1.6359 77.0359 8.55128 77.0359 17.1026C77.0359 25.6538 83.9513 32.5692 92.5026 32.5692C97.1128 32.5692 101.277 30.5615 104.103 27.3641L100.756 24.018C98.8231 26.3974 95.8487 27.8846 92.5026 27.8846C86.5538 27.8846 81.7949 23.0513 81.7949 17.1769C81.7205 11.1538 86.5538 6.32051 92.5026 6.32051ZM128.269 8.40257H123.659V10.7821C121.651 9.29487 119.197 8.40257 116.521 8.40257C110.051 8.40257 104.772 13.6821 104.772 20.1513C104.772 26.6205 110.051 31.9 116.521 31.9C119.197 31.9 121.651 31.0077 123.659 29.5205V31.6026H128.269V8.40257ZM116.521 27.4385C112.505 27.4385 109.308 24.1667 109.308 20.2256C109.308 16.2103 112.579 13.0128 116.521 13.0128C120.536 13.0128 123.733 16.2846 123.733 20.2256C123.808 24.1667 120.536 27.4385 116.521 27.4385ZM200.174 8.40257H195.564V10.7821C193.556 9.29487 191.103 8.40257 188.426 8.40257C181.956 8.40257 176.677 13.6821 176.677 20.1513C176.677 26.6205 181.956 31.9 188.426 31.9C191.103 31.9 193.556 31.0077 195.564 29.5205V31.6026H200.174V8.40257ZM188.5 27.4385C184.485 27.4385 181.287 24.1667 181.287 20.2256C181.287 16.2103 184.559 13.0128 188.5 13.0128C192.515 13.0128 195.713 16.2846 195.713 20.2256C195.713 24.1667 192.515 27.4385 188.5 27.4385ZM157.641 8.40257H162.251V31.5282H157.641V8.40257ZM142.992 8.40257C140.315 8.40257 137.862 9.29487 135.854 10.7821V8.40257H131.244V38.3692H135.854V29.5205C137.862 31.0077 140.315 31.9 142.992 31.9C149.462 31.9 154.741 26.6205 154.741 20.1513C154.741 13.6821 149.536 8.40257 142.992 8.40257ZM142.992 27.4385C138.977 27.4385 135.779 24.1667 135.779 20.2256C135.779 16.2103 139.051 13.0128 142.992 13.0128C147.008 13.0128 150.205 16.2846 150.205 20.2256C150.279 24.1667 147.008 27.4385 142.992 27.4385ZM203.223 1.6359H207.833V31.6026H203.223V1.6359ZM159.946 0C158.385 0 157.121 1.2641 157.121 2.82564C157.121 4.38718 158.385 5.65128 159.946 5.65128C161.508 5.65128 162.772 4.38718 162.772 2.82564C162.772 1.2641 161.508 0 159.946 0ZM172.662 25.5795V12.8641H175.785V8.47692H172.662V1.6359H168.126V8.47692H165.003V12.8641H168.126V26.3231C168.2 29.2231 170.579 31.6026 173.628 31.6026H176.082V27.5128H174.595C173.331 27.4385 172.662 26.4718 172.662 25.5795Z" fill="#474C55"/>
<path fill-rule="evenodd" clip-rule="evenodd" d="M0 1.04102H5.20513V32.3461H0V1.04102ZM55.6949 32.3461H67.0718V14.8718H61.8667V27.141H55.9923C50.1923 27.141 45.4333 22.4564 45.4333 16.7308C45.4333 10.9308 50.118 6.3205 55.9923 6.3205H67.0718V1.11537H55.6949C46.9949 1.11537 39.9308 8.10512 39.9308 16.7308C39.9308 25.3564 46.9205 32.3461 55.6949 32.3461ZM20.6718 1.04102H9.29487V32.3461H20.6718C29.3718 32.3461 36.4359 25.3564 36.4359 16.7308C36.4359 8.10512 29.3718 1.04102 20.6718 1.04102ZM20.3744 27.141H14.5V6.24614H20.3744C26.1744 6.24614 30.9333 10.9308 30.9333 16.6564C30.9333 22.4564 26.1744 27.141 20.3744 27.141Z" fill="#AE132A"/>
</g>
<defs>
<clipPath id="clip0_1622_1486">
<rect width="207.833" height="38.3692" fill="white"/>
</clipPath>
</defs>
</svg>
