<svg width="155" height="142" viewBox="0 0 155 142" fill="none" xmlns="http://www.w3.org/2000/svg">
<path d="M63.3099 135.575L56.8742 117.96H55.2842L48.8485 135.575H50.8171L52.2557 131.551H59.9028L61.3414 135.575H63.3099ZM59.3728 129.956H52.7857L56.1171 120.617L59.3728 129.956Z" fill="#28CD96"/>
<path d="M128.727 119.63V117.96H116.689V119.63H121.761V135.575H123.654V119.63H128.727Z" fill="#28CD96"/>
<path d="M111.54 135.575V133.904H102.454V127.527H110.177V125.856H102.454V119.63H111.54V117.96H100.561V135.575H111.54Z" fill="#28CD96"/>
<path d="M95.4128 135.575V133.904H86.4028V117.96H84.5857V135.575H95.4128Z" fill="#28CD96"/>
<path d="M79.3614 135.575V133.904H70.4272V117.96H68.5343V135.575H79.3614Z" fill="#28CD96"/>
<path d="M47.1071 117.96H45.1385L41.6557 132.158L37.7942 117.96H36.1285L32.2671 132.158L28.7843 117.96H26.8157L31.2828 135.575H33.1L36.9614 121.453L40.8985 135.575H42.64L47.1071 117.96Z" fill="#28CD96"/>
<path d="M100.334 98.5984C100.334 97.6873 100.334 96.7761 100.259 96.0169C100.183 95.1817 100.183 94.4984 100.031 93.7391C99.88 93.0558 99.6528 92.3725 99.4257 91.765C99.1228 91.1576 98.7443 90.5502 98.2143 90.0187C97.4571 89.2595 96.6243 88.728 95.7157 88.2724C94.7314 87.8928 93.7471 87.665 92.46 87.665C91.2485 87.665 90.1886 87.8928 89.2043 88.2724C88.22 88.6521 87.3871 89.2595 86.7057 90.0187C86.1757 90.5502 85.7214 91.0817 85.4943 91.765C85.1914 92.3725 85.04 93.0558 84.8885 93.7391C84.7371 94.4224 84.7371 95.1817 84.6614 96.0169C84.5857 96.8521 84.5857 97.6873 84.5857 98.5984C84.5857 99.5095 84.5857 100.345 84.6614 101.18C84.7371 102.015 84.7371 102.698 84.8885 103.458C85.04 104.141 85.1914 104.824 85.4943 105.432C85.7971 106.039 86.1757 106.647 86.7057 107.178C87.4628 107.937 88.2957 108.469 89.2043 108.924C90.1886 109.304 91.1728 109.532 92.46 109.532C93.6714 109.532 94.7314 109.304 95.7157 108.924C96.6243 108.545 97.5328 107.937 98.2143 107.178C98.7443 106.647 99.1986 106.115 99.4257 105.432C99.7286 104.824 99.88 104.141 100.031 103.458C100.183 102.774 100.259 102.015 100.259 101.18C100.334 100.345 100.334 99.5095 100.334 98.5984ZM96.17 98.5984C96.17 99.5854 96.17 100.497 96.0943 101.104C96.0185 101.787 96.0185 102.319 95.9428 102.774C95.8671 103.23 95.7914 103.609 95.64 103.837C95.4886 104.065 95.3371 104.369 95.1857 104.597C94.8828 104.976 94.5043 105.204 94.05 105.432C93.5957 105.659 93.0657 105.735 92.5357 105.735C91.93 105.735 91.4757 105.659 91.0214 105.432C90.5671 105.204 90.1886 104.976 89.8857 104.597C89.6586 104.369 89.5071 104.141 89.4314 103.837C89.28 103.534 89.2043 103.23 89.1286 102.774C89.0528 102.319 88.9771 101.787 88.9771 101.104C88.9014 100.421 88.9014 99.5854 88.9014 98.5984C88.9014 97.6113 88.9014 96.7002 88.9771 96.0928C89.0528 95.4095 89.0528 94.878 89.1286 94.4225C89.2043 93.9669 89.28 93.5873 89.4314 93.3595C89.5828 93.0558 89.7343 92.828 89.8857 92.6002C90.1886 92.2206 90.5671 91.9928 91.0214 91.765C91.4757 91.5373 92.0057 91.4613 92.5357 91.4613C93.1414 91.4613 93.5957 91.5373 94.05 91.765C94.5043 91.9928 94.8828 92.2206 95.1857 92.6002C95.4128 92.828 95.5643 93.0558 95.64 93.3595C95.7914 93.6632 95.8671 93.9669 95.9428 94.4225C96.0185 94.878 96.0943 95.4095 96.0943 96.0928C96.0943 96.7002 96.17 97.6113 96.17 98.5984Z" fill="#28CD96"/>
<path d="M128.727 88.2722C128.727 88.0444 128.576 87.8926 128.349 87.8926H124.941C124.714 87.8926 124.563 88.0444 124.563 88.2722V100.952L116.159 87.9685C116.083 87.8926 116.083 87.8926 115.931 87.8926H112.751C112.6 87.8926 112.373 88.0444 112.373 88.2722C112.373 95.1055 112.373 102.015 112.373 108.848C112.373 109.076 112.524 109.228 112.751 109.228H116.159C116.386 109.228 116.537 109.076 116.537 108.848V96.0926L124.941 109.076C125.017 109.152 125.017 109.152 125.169 109.152H128.349C128.576 109.152 128.727 109 128.727 108.772V88.2722Z" fill="#28CD96"/>
<path d="M108.209 88.2722C108.209 88.0444 108.057 87.8926 107.83 87.8926H104.423C104.196 87.8926 104.044 88.0444 104.044 88.2722V108.848C104.044 109.076 104.196 109.228 104.423 109.228H107.83C108.057 109.228 108.209 109.076 108.209 108.848V88.2722Z" fill="#28CD96"/>
<path d="M69.5185 98.5989C69.5185 97.6118 69.5185 96.7007 69.5942 96.0933C69.67 95.41 69.67 94.8785 69.7457 94.4229C70.0485 92.6007 71.4871 91.5377 73.2285 91.5377C74.44 91.5377 75.5 91.9933 76.1057 92.9803C76.4085 93.4359 76.6357 93.8914 76.7871 94.4989C76.7871 94.5748 76.8628 94.5748 76.9385 94.5748H80.9514C81.0271 94.5748 81.0271 94.4989 81.0271 94.4989C80.5728 91.9933 79.2857 89.7914 76.8628 88.6526C75.8028 88.1211 74.5157 87.8174 73.2285 87.8174C70.9571 87.8174 69.0642 88.6526 67.4742 90.1711C66.6414 91.0063 65.96 92.1452 65.7328 93.36C65.5057 94.5748 65.3542 96.3211 65.3542 98.6748C65.3542 101.028 65.5057 102.775 65.7328 103.99C65.96 105.204 66.5657 106.343 67.4742 107.178C69.0642 108.773 70.9571 109.532 73.2285 109.532C74.5914 109.532 75.8028 109.228 76.8628 108.697C79.21 107.634 80.4971 105.28 81.0271 102.851C81.0271 102.775 81.0271 102.775 80.9514 102.775H76.9385C76.8628 102.775 76.8628 102.851 76.7871 102.851C76.6357 103.458 76.4085 103.914 76.1057 104.369C75.4242 105.356 74.3642 105.736 73.2285 105.812C71.4114 105.812 70.0485 104.749 69.7457 102.927C69.67 102.471 69.5942 101.94 69.5942 101.256C69.5185 100.497 69.5185 99.6618 69.5185 98.5989Z" fill="#28CD96"/>
<path d="M30.9043 88.2722C30.9043 88.0444 30.7528 87.8926 30.5257 87.8926H27.1186C26.8914 87.8926 26.74 88.0444 26.74 88.2722V108.848C26.74 109.076 26.8914 109.228 27.1186 109.228H30.5257C30.7528 109.228 30.9043 109.076 30.9043 108.848V102.774L33.63 99.5092L39.3086 109.152C39.3843 109.228 39.46 109.228 39.5357 109.228H43.7C43.8514 109.228 43.9271 109.076 43.8514 108.924L36.4314 96.3963L43.2457 88.2722C43.3971 88.1204 43.3214 87.9685 43.0943 87.9685H38.5514C38.4757 87.9685 38.4757 87.9685 38.4 88.0444L30.98 97.0037L30.9043 88.2722Z" fill="#28CD96"/>
<path d="M54.0727 105.735C52.1042 105.735 50.4385 103.913 50.4385 101.863V88.3484C50.4385 88.1206 50.287 87.9688 50.0599 87.9688H46.6527C46.4256 87.9688 46.2742 88.1206 46.2742 88.3484V101.787C46.2742 106.495 49.757 109.456 54.1485 109.456C58.4642 109.456 62.0227 106.495 62.0227 101.787V88.3484C62.0227 88.1206 61.8713 87.9688 61.6442 87.9688H58.237C58.0099 87.9688 57.8585 88.1206 57.8585 88.3484V101.863C57.7827 103.989 56.0413 105.735 54.0727 105.735Z" fill="#28CD96"/>
<path fill-rule="evenodd" clip-rule="evenodd" d="M77.7715 59.3443L56.5714 38.0851L77.7715 16.8258L98.9715 38.0851L77.7715 59.3443ZM77.7715 32.1628C74.5157 32.1628 71.8657 34.8203 71.8657 38.0851C71.8657 41.3499 74.5157 44.0073 77.7715 44.0073C81.0272 44.0073 83.6772 41.3499 83.6772 38.0851C83.6772 34.8203 81.0272 32.1628 77.7715 32.1628ZM47.4857 35.048C45.82 36.7184 45.82 39.4517 47.4857 41.1221L74.7429 68.4554C76.4086 70.1258 79.1343 70.1258 80.8 68.4554L108.057 41.1221C109.723 39.4517 109.723 36.7184 108.057 35.048L80.8 7.71469C79.1343 6.04432 76.4086 6.04432 74.7429 7.71469L47.4857 35.048Z" fill="#28CD96"/>
</svg>
