<svg width="180" height="100" viewBox="0 0 180 100" fill="none" xmlns="http://www.w3.org/2000/svg">
<path d="M111.201 16.6547C106.239 12.0262 100.466 9.57044 93.4457 9.82759C94.0114 16.3976 94.5771 22.7747 95.1428 29.2676C98.8971 29.3833 101.147 31.2219 101.7 35.1433C106.457 34.0762 111.137 33.0347 115.817 31.9933C116.589 34.8219 116.229 35.4904 113.567 36.0947C109.466 37.0333 105.364 37.9462 101.276 38.9104C100.581 39.0776 99.8999 39.3476 99.2828 39.7076C97.7914 40.5947 96.2871 41.2119 94.4999 40.6847C94.0885 40.569 93.5871 40.5819 93.1628 40.6847C86.9271 42.0862 80.6914 43.5262 74.4685 44.9533C74.3014 44.9919 74.1599 45.069 73.6842 45.2619C74.9828 46.8433 76.1528 48.399 77.4899 49.7876C77.9014 50.2119 78.8142 50.3019 79.4828 50.289C85.4357 50.1604 91.3885 49.9676 97.3671 49.9676C95.4385 50.3276 93.5099 50.7647 91.5685 51.0347C88.1742 51.5104 85.2171 52.899 82.7742 55.2647C81.9256 56.0876 81.2828 56.1004 80.2928 55.6762C69.6342 51.1504 63.2314 40.3376 64.4657 28.8562C65.6999 17.3362 74.4814 7.9633 86.0785 6.17616C96.4799 4.59473 104.837 8.33616 111.201 16.6547ZM89.9999 34.0504C89.3442 33.8062 88.6885 33.6519 88.1099 33.3304C87.7885 33.1504 87.6342 32.7004 87.3899 32.3662C87.7628 32.2119 88.1614 31.9033 88.5085 31.9547C89.2156 32.0447 89.8842 32.3276 90.4757 32.4947C91.1442 31.7747 91.6071 30.9904 92.3014 30.5919C93.3557 29.9876 93.5999 29.229 93.4714 28.1104C93.2142 25.9376 93.0599 23.7519 92.8671 21.579C92.7771 20.6019 92.6999 19.6376 92.6099 18.6347C90.1157 19.2519 88.0071 21.1419 86.6314 23.7133C86.1942 24.5233 85.5899 25.2819 84.9214 25.9376C83.6999 27.1333 82.3885 28.239 80.9871 29.499C81.9385 30.0904 82.6328 30.5147 83.3657 30.9776C82.6328 32.6876 81.9128 34.269 81.3085 35.889C81.1542 36.2876 81.2442 37.1362 81.5014 37.2776C84.4328 38.859 87.4157 40.299 90.8357 38.2547C90.6171 37.6247 90.2957 36.969 90.1542 36.2747C90.0128 35.5547 90.0514 34.809 89.9999 34.0504ZM100.003 35.0662C99.9899 32.7647 98.0871 30.8619 95.8114 30.8747C93.5742 30.8747 91.5814 32.8419 91.5685 35.0662C91.5557 37.4319 93.4842 39.3347 95.8885 39.309C98.1899 39.2833 100.016 37.3933 100.003 35.0662ZM77.7985 40.8647C73.9157 27.5319 78.7757 18.9562 92.3142 14.5976C86.0528 14.4433 79.1485 19.959 76.8085 26.6062C75.0857 31.5433 75.2914 36.3519 77.7985 40.8647Z" fill="#283C8F"/>
<path d="M24.8274 66.2185C27.1288 66.2185 28.8774 66.6428 30.0731 67.4914C31.2688 68.34 31.8731 69.6257 31.8731 71.3485C31.8731 72.3 31.7188 73.1614 31.4231 73.9328C31.1274 74.7042 30.6516 75.3471 29.9959 75.8742C29.3402 76.4014 28.5045 76.8 27.4888 77.0828C26.4731 77.3657 25.2516 77.5071 23.8245 77.5071H6.32593L10.0545 72.6728H24.2616C24.9559 72.6728 25.4574 72.57 25.7788 72.3514C26.1002 72.1328 26.2545 71.7857 26.2545 71.2971C26.2545 70.8085 26.1002 70.4614 25.7788 70.2557C25.4574 70.05 24.9559 69.9471 24.2616 69.9471H14.0402C12.8188 69.9471 11.7774 69.8185 10.8902 69.5485C10.0159 69.2914 9.28307 68.9185 8.7045 68.4557C8.12593 67.9928 7.68878 67.4271 7.41878 66.7585C7.13593 66.09 6.9945 65.3571 6.9945 64.56C6.9945 63.6857 7.14878 62.8757 7.45736 62.1557C7.76593 61.4357 8.24164 60.8185 8.8845 60.3171C9.52736 59.8157 10.3631 59.4171 11.3788 59.1342C12.3945 58.8514 13.6159 58.71 15.0431 58.71H31.3716L27.6431 63.5957H14.6059C13.9374 63.5957 13.4359 63.6857 13.1016 63.8785C12.7674 64.0714 12.6131 64.4057 12.6131 64.8942C12.6131 65.3828 12.7802 65.7171 13.1016 65.9228C13.4231 66.1157 13.9245 66.2185 14.6059 66.2185H24.8274Z" fill="#283C8F"/>
<path d="M58.1531 77.5071H49.3717L43.7017 72.57C42.7245 71.7214 41.9788 71.0785 41.4645 70.6028C40.9503 70.14 40.5388 69.7414 40.2174 69.42C40.2303 69.8442 40.256 70.2942 40.2688 70.7571C40.2817 71.22 40.2945 71.67 40.2945 72.12V77.5071H34.4574V58.7228H40.2945V63.0685C40.2945 63.6471 40.2817 64.2257 40.2688 64.7785C40.256 65.3442 40.2174 65.8585 40.1788 66.3471C40.5517 66.0128 41.0017 65.5885 41.5417 65.1C42.0688 64.5985 42.776 63.9942 43.6374 63.2871L49.0503 58.71H57.4717L50.2845 64.0971C49.6674 64.56 49.1145 64.9714 48.6388 65.3314C48.1631 65.6914 47.7388 66 47.366 66.2571C46.9931 66.5142 46.646 66.7585 46.3374 66.9642C46.0288 67.17 45.7203 67.3628 45.4245 67.5557C45.9645 67.9285 46.6203 68.4042 47.3917 68.9571C48.1631 69.5228 49.1531 70.2942 50.3617 71.2842L58.1531 77.5071Z" fill="#283C8F"/>
<path d="M86.9658 58.7217L75.8186 71.296V77.506H69.9815V71.2703L58.5258 58.7217H65.9958L70.4829 63.9417C70.6372 64.1088 70.83 64.3274 71.0743 64.5974C71.3186 64.8674 71.5758 65.1503 71.8329 65.4588C72.09 65.7545 72.3343 66.0374 72.5658 66.2945C72.7843 66.5517 72.9515 66.7574 73.0415 66.886C73.2343 66.6288 73.5043 66.2688 73.8515 65.8188C74.2115 65.3688 74.7258 64.7388 75.3943 63.916L79.6629 58.7217H86.9658Z" fill="#283C8F"/>
<path d="M97.8045 65.7159C98.2159 66.4488 98.5759 67.0917 98.8845 67.6445C99.193 68.1974 99.463 68.6859 99.6945 69.1231C99.9259 69.5474 100.132 69.9459 100.312 70.3059C100.492 70.6659 100.659 71.0131 100.826 71.3474C100.98 71.0131 101.134 70.6659 101.314 70.3188C101.494 69.9717 101.7 69.5731 101.932 69.1359C102.163 68.6988 102.433 68.2102 102.742 67.6574C103.05 67.1045 103.41 66.4745 103.822 65.7417L106.83 60.4059C107.164 59.8017 107.589 59.3259 108.103 58.9659C108.617 58.6059 109.26 58.4131 110.032 58.4131C110.764 58.4131 111.42 58.6188 112.012 59.0431C112.603 59.4674 113.027 60.1102 113.284 60.9974L118.029 77.5059H112.243L110.469 70.9617C110.173 69.8945 109.916 68.9559 109.71 68.1588C109.504 67.3617 109.324 66.5645 109.17 65.8059C108.849 66.4617 108.502 67.1817 108.103 67.9788C107.704 68.7759 107.19 69.7788 106.56 71.0002L104.027 75.7188C103.783 76.1817 103.539 76.5545 103.282 76.8245C103.024 77.0945 102.767 77.3131 102.51 77.4545C102.24 77.6088 101.97 77.6988 101.662 77.7502C101.353 77.8017 101.032 77.8145 100.684 77.8145C100.324 77.8145 100.003 77.7888 99.6945 77.7502C99.3987 77.6988 99.1159 77.6088 98.8587 77.4545C98.5887 77.3002 98.3445 77.0945 98.0873 76.8245C97.8302 76.5545 97.5859 76.1817 97.3416 75.7188L94.8216 70.9745C94.4873 70.3317 94.1788 69.7659 93.9216 69.2645C93.6645 68.7631 93.4202 68.3002 93.2016 67.9017C92.983 67.5031 92.803 67.1302 92.6359 66.7959C92.4816 66.4617 92.3273 66.1274 92.173 65.8188C92.0188 66.5645 91.8387 67.3488 91.633 68.1588C91.4273 68.9688 91.183 69.9202 90.9002 70.9874L89.1259 77.5317H83.4302L88.2902 61.0231C88.5473 60.1488 88.9845 59.4931 89.5759 59.0688C90.1802 58.6445 90.8359 58.4388 91.5687 58.4388C92.3145 58.4388 92.9445 58.6188 93.4588 58.9659C93.973 59.3259 94.3973 59.8145 94.7316 60.4317L97.8045 65.7159Z" fill="#283C8F"/>
<path d="M128.122 77.5059L131.632 72.6717H136.35C136.916 72.6717 137.495 72.6717 138.099 72.6717C138.703 72.6717 139.23 72.6845 139.68 72.7231C139.423 72.3888 139.115 71.9645 138.767 71.4502C138.42 70.9359 138.086 70.4474 137.765 70.0102L134.396 65.0345L125.576 77.5059H118.697L130.745 60.5217C131.143 59.9817 131.632 59.4931 132.236 59.0559C132.84 58.6317 133.586 58.4131 134.512 58.4131C135.386 58.4131 136.132 58.6188 136.71 59.0174C137.302 59.4159 137.803 59.9174 138.215 60.5217L149.953 77.5059H128.122Z" fill="#283C8F"/>
<path d="M171.09 77.8145C170.717 77.8145 170.344 77.7502 169.984 77.6345C169.624 77.5059 169.213 77.2359 168.763 76.8117L157.256 66.4745V77.5059H151.972V61.9231C151.972 61.3059 152.062 60.7659 152.242 60.3159C152.422 59.8659 152.653 59.5059 152.949 59.2231C153.244 58.9402 153.579 58.7345 153.964 58.6059C154.35 58.4774 154.749 58.4131 155.16 58.4131C155.52 58.4131 155.88 58.4774 156.24 58.5931C156.6 58.7088 157.024 58.9917 157.487 59.4159L168.994 69.7531V58.7217H174.304V74.2788C174.304 74.8959 174.214 75.4359 174.034 75.8859C173.854 76.3359 173.623 76.7088 173.327 76.9917C173.032 77.2874 172.697 77.4931 172.299 77.6217C171.9 77.7502 171.502 77.8145 171.09 77.8145Z" fill="#283C8F"/>
<path d="M53.3442 34.8213C53.3442 34.8213 53.3442 38.2413 57.4714 38.9484C57.4714 38.9484 53.0357 39.8613 53.3442 43.6799C53.3442 43.6799 54.4499 39.6556 48.8057 39.2441C48.8185 39.257 52.9457 38.1513 53.3442 34.8213Z" fill="#283C8F"/>
<path d="M43.8428 45.1709C43.8428 45.1709 43.8428 48.5909 47.9699 49.298C47.9699 49.298 43.5342 50.2109 43.8428 54.0295C43.8428 54.0295 44.9485 50.0052 39.3042 49.5938C39.3042 49.6066 43.4442 48.5009 43.8428 45.1709Z" fill="#283C8F"/>
<path d="M48.06 27.6982C48.06 27.6982 48.06 29.2154 49.8857 29.524C49.8857 29.524 47.9315 29.9225 48.06 31.6197C48.06 31.6197 48.5486 29.8325 46.0543 29.6654C46.0543 29.6525 47.88 29.164 48.06 27.6982Z" fill="#283C8F"/>
<path d="M54.4372 28.9082C54.4372 28.9082 54.4372 30.4253 56.2629 30.7339C56.2629 30.7339 54.3087 31.1325 54.4372 32.8296C54.4372 32.8296 54.9258 31.0425 52.4315 30.8753C52.4315 30.8753 54.2572 30.3868 54.4372 28.9082Z" fill="#283C8F"/>
<path d="M55.1443 21.4492C55.1443 21.4492 55.1443 22.9664 56.97 23.2749C56.97 23.2749 55.0157 23.6735 55.1443 25.3707C55.1443 25.3707 55.6328 23.5835 53.1385 23.4164C53.1514 23.4164 54.9771 22.9149 55.1443 21.4492Z" fill="#283C8F"/>
<path d="M35.2157 82.2627H36.7586L40.5643 91.8027L44.4214 82.2627H45.9514L41.3228 93.4484H39.8186L35.2157 82.2627Z" fill="#7E7E7E"/>
<path d="M51.2871 93.4227V82.2627H59.13V83.5355H52.6757V87.0198H58.86V88.3055H52.6757V92.0856H59.3871V93.4098H51.2871V93.4227Z" fill="#7E7E7E"/>
<path d="M65.7772 82.2627H66.7544L73.5944 90.8255V82.2627H74.9701V93.4227H74.0187L67.1787 84.8984V93.4227H65.7901V82.2627H65.7772Z" fill="#7E7E7E"/>
<path d="M84.1244 83.4981H80.293V82.251H89.2801V83.4981H85.4744V93.411H84.1244V83.4981Z" fill="#7E7E7E"/>
<path d="M102.253 82.2627H103.642V88.987C103.642 90.4655 103.204 91.6098 102.33 92.4198C101.456 93.2298 100.376 93.6413 99.0901 93.6413C97.8172 93.6413 96.7372 93.2427 95.8501 92.4327C94.9629 91.6227 94.5129 90.4784 94.5129 88.987V82.2627H95.9015V88.987C95.9015 90.0541 96.2101 90.877 96.8144 91.4684C97.4187 92.0598 98.1772 92.3555 99.0901 92.3555C99.9772 92.3555 100.736 92.047 101.34 91.4427C101.944 90.8384 102.253 90.0027 102.253 88.9613V82.2627Z" fill="#7E7E7E"/>
<path d="M118.131 93.4227L114.66 89.3856H111.96V93.4227H110.559V82.2627H115.624C116.82 82.2627 117.746 82.6098 118.401 83.317C119.07 84.0113 119.404 84.8598 119.404 85.837C119.404 86.7627 119.134 87.547 118.62 88.1898C118.093 88.8327 117.283 89.2056 116.203 89.2956L119.88 93.4227H118.131ZM111.96 88.1641H115.56C116.357 88.1641 116.961 87.9455 117.399 87.5213C117.823 87.097 118.041 86.5441 118.041 85.8755C118.041 85.2584 117.823 84.7056 117.399 84.2298C116.974 83.7541 116.383 83.5098 115.624 83.5098H111.96V88.1641Z" fill="#7E7E7E"/>
<path d="M126.026 93.4227V82.2627H133.869V83.5355H127.414V87.0198H133.599V88.3055H127.414V92.0856H134.126V93.4098H126.026V93.4227Z" fill="#7E7E7E"/>
<path d="M147.536 84.7451C147.227 84.2822 146.79 83.9222 146.224 83.6651C145.659 83.4208 145.042 83.2922 144.386 83.2794C143.614 83.2794 142.933 83.4465 142.342 83.7679C141.75 84.0894 141.454 84.5522 141.454 85.1437C141.454 85.4394 141.532 85.6965 141.686 85.9151C141.84 86.1337 142.072 86.3137 142.367 86.4551C142.676 86.5965 142.984 86.6994 143.306 86.7765C143.627 86.8537 144.013 86.9308 144.489 87.0079C145.003 87.0851 145.453 87.1622 145.813 87.2394C146.173 87.3165 146.572 87.4451 146.996 87.6122C147.42 87.7794 147.767 87.9722 148.012 88.1908C148.269 88.4094 148.487 88.6922 148.654 89.0522C148.834 89.4122 148.924 89.8237 148.924 90.2865C148.924 90.8908 148.783 91.4179 148.513 91.8679C148.243 92.3179 147.883 92.6651 147.433 92.9222C146.983 93.1665 146.494 93.3594 145.993 93.4751C145.479 93.5908 144.952 93.6551 144.386 93.6551C143.73 93.6551 143.113 93.5779 142.534 93.4108C141.956 93.2565 141.403 92.9737 140.889 92.5879C140.374 92.1894 139.976 91.7008 139.706 91.0837L140.812 90.4022C141.532 91.7265 142.74 92.3822 144.412 92.3822C144.926 92.3822 145.402 92.3308 145.852 92.2151C146.302 92.0994 146.7 91.8808 147.06 91.5594C147.42 91.2251 147.6 90.8008 147.6 90.2865C147.6 89.6694 147.317 89.2194 146.752 88.9365C146.186 88.6536 145.402 88.4222 144.373 88.2679C143.859 88.1779 143.434 88.1008 143.087 88.0237C142.74 87.9465 142.367 87.8308 141.956 87.6765C141.544 87.5222 141.223 87.3422 140.979 87.1365C140.734 86.9308 140.529 86.6608 140.362 86.3265C140.194 85.9922 140.117 85.6065 140.117 85.1694C140.104 84.6422 140.233 84.1665 140.49 83.7422C140.747 83.3179 141.094 82.9965 141.532 82.7522C141.969 82.5079 142.419 82.3408 142.907 82.2122C143.396 82.0965 143.884 82.0322 144.386 82.0322C146.379 82.0322 147.793 82.7137 148.629 84.0894L147.536 84.7451Z" fill="#7E7E7E"/>
</svg>
