<svg width="187" height="120" viewBox="0 0 187 120" fill="none" xmlns="http://www.w3.org/2000/svg">
<path d="M113.681 2H72.3191C63.8586 2 57 8.85862 57 17.3191V58.6809C57 67.1414 63.8586 74 72.3191 74H113.681C122.141 74 129 67.1414 129 58.6809V17.3191C129 8.85862 122.141 2 113.681 2Z" fill="url(#paint0_linear_1230_1671)"/>
<path fill-rule="evenodd" clipRule="evenodd" d="M70.1968 38.2054H64.6559V23.4473H69.1598C73.0087 23.4473 76.1289 26.5675 76.1289 30.4164C76.1289 31.9766 77.3937 33.2414 78.9539 33.2414C79.718 33.2414 80.4495 32.9319 80.9816 32.3834L86.5123 26.6823C88.5185 24.6144 91.2768 23.4473 94.158 23.4473H95.6014C97.2935 23.4473 98.6653 24.819 98.6653 26.5111V30.8263C98.6653 32.5138 100.033 33.8818 101.721 33.8818C102.531 33.8818 103.309 33.5597 103.882 32.9864L106.754 30.1128C111.02 25.8451 116.807 23.4473 122.841 23.4473V38.2054C118.388 38.2054 114.124 40.0082 111.022 43.203L102.395 52.0889C102.106 52.386 101.71 52.5536 101.295 52.5536H98.1484C97.3024 52.5536 96.6165 51.8678 96.6165 51.0217V40.2542C96.6165 39.1227 95.6993 38.2054 94.5678 38.2054C93.2649 38.2054 92.0246 38.7639 91.161 39.7394L80.2739 52.0372C79.9832 52.3656 79.5656 52.5536 79.1269 52.5536H74.7926C73.9465 52.5536 73.2607 51.8678 73.2607 51.0217V41.2693C73.2607 39.5772 71.8889 38.2054 70.1968 38.2054Z" fill="url(#paint1_linear_1230_1671)"/>
<path d="M2.71265 92.3389L10.2182 115.226H16.3532L20.5954 99.7827L24.7072 115.226H30.8748L38.413 92.3389H32.278L27.9705 108.892L23.6303 92.3389H17.789L13.4815 108.892L9.14132 92.3389H2.71265Z" fill="black"/>
<path d="M46.1143 97.3662C40.5994 97.3662 36.9119 100.99 36.9119 106.475C36.9119 111.862 40.4688 115.421 46.2449 115.421C49.5081 115.421 52.1514 114.311 53.9462 112.287L50.9114 109.25C49.7366 110.426 48.2681 111.046 46.767 111.046C44.7764 111.046 43.3079 109.936 42.7531 107.944H55.0231C55.4147 101.513 52.2819 97.3662 46.1143 97.3662ZM42.6226 104.843C43.0142 102.819 44.2543 101.447 46.147 101.447C48.1049 101.447 49.4102 102.819 49.4102 104.843H42.6226Z" fill="black"/>
<path d="M69.1857 97.3665C66.9993 97.3665 65.2372 98.248 63.9971 99.8478V91H58.1885V115.225H63.9971V112.94C65.2372 114.54 67.0646 115.421 69.3163 115.421C74.2112 115.421 77.4092 111.862 77.4092 106.475C77.4092 100.99 74.1133 97.3665 69.1857 97.3665ZM67.7499 110.72C65.5309 110.72 63.9971 108.957 63.9971 106.345C63.9971 103.733 65.5309 101.937 67.7499 101.937C70.0342 101.937 71.5679 103.733 71.5679 106.345C71.5679 108.957 70.0342 110.72 67.7499 110.72Z" fill="black"/>
<path fill-rule="evenodd" clipRule="evenodd" d="M171.846 97.2662H165.413V92.665H184V97.2662H177.505H171.846Z" fill="#07C160"/>
<path fill-rule="evenodd" clipRule="evenodd" d="M177.505 100.541V114.026H171.846V100.541" fill="#07C160"/>
<path fill-rule="evenodd" clipRule="evenodd" d="M159.814 107.048C162.32 105.768 163.68 103.391 163.68 100.161C163.68 95.4075 160.402 92.665 154.65 92.665H144.908V97.1138H150.567H153.07H154.681C156.969 97.1138 158.299 98.2414 158.299 100.344C158.299 102.508 156.969 103.665 154.681 103.665H153.07H150.567H144.908V114.026H150.567V108.114H154.65H154.773L157.928 114.026H164.33L159.814 107.048Z" fill="#07C160"/>
<mask id="mask0_1230_1671" style="mask-type:alpha" maskUnits="userSpaceOnUse" x="99" y="92" width="19" height="23">
<path d="M99.0115 92.667H117.258V114.028H99.0115V92.667Z" fill="white"/>
</mask>
<g mask="url(#mask0_1230_1671)">
<path fill-rule="evenodd" clipRule="evenodd" d="M99.0114 92.667V97.116H104.671H105.514H108.259C110.547 97.116 111.877 98.2435 111.877 100.346C111.877 102.509 110.547 103.668 108.259 103.668H105.514H104.671H99.0114V114.028H104.671V108.116H108.537C114.073 108.116 117.258 105.191 117.258 100.163C117.258 95.4095 114.073 92.667 108.537 92.667H99.0114Z" fill="#07C160"/>
</g>
<path fill-rule="evenodd" clipRule="evenodd" d="M124.507 103.483C124.507 106.996 127.264 109.708 130.485 109.708C133.738 109.708 136.34 106.996 136.34 103.483C136.34 99.9701 133.738 97.3199 130.485 97.3199C127.233 97.3199 124.507 99.9701 124.507 103.483ZM142.164 103.452C142.164 109.769 137.146 114.515 130.424 114.515C123.701 114.515 118.683 109.769 118.683 103.452C118.683 97.1658 123.701 92.5127 130.424 92.5127C137.146 92.5127 142.164 97.1968 142.164 103.452Z" fill="#07C160"/>
<mask id="mask1_1230_1671" style="mask-type:alpha" maskUnits="userSpaceOnUse" x="79" y="98" width="18" height="18">
<path d="M90.8597 101.928L89.7442 101.77L92.8191 98.9327L87.0933 98.9248L83.5613 102.276V105.371H87.322C89.8079 105.371 91.1784 106.287 91.1784 108.055C91.1784 109.792 89.8079 110.803 87.3539 110.803C85.2186 110.803 83.1151 109.856 81.3622 108.055L79.0038 112.509C81.171 114.151 84.5493 115.225 87.8001 115.225C93.3456 115.225 96.8832 112.256 96.8832 107.992C96.8832 104.613 94.3973 102.465 90.8597 101.928Z" fill="white"/>
</mask>
<g mask="url(#mask1_1230_1671)">
<path d="M90.8597 101.928L89.7442 101.77L92.8191 98.9327L87.0933 98.9248L83.5613 102.276V105.371H87.322C89.8079 105.371 91.1784 106.287 91.1784 108.055C91.1784 109.792 89.8079 110.803 87.3539 110.803C85.2186 110.803 83.1151 109.856 81.3622 108.055L79.0038 112.509C81.171 114.151 84.5493 115.225 87.8001 115.225C93.3456 115.225 96.8832 112.256 96.8832 107.992C96.8832 104.613 94.3973 102.465 90.8597 101.928Z" fill="black"/>
</g>
<path fill-rule="evenodd" clipRule="evenodd" d="M85.4668 97.2662H79.5742V92.665H96.6V97.2662H90.6508H85.4668Z" fill="black"/>
<defs>
<linearGradient id="paint0_linear_1230_1671" x1="120.993" y1="66.6919" x2="62.4288" y2="5.75798" gradientUnits="userSpaceOnUse">
<stop stop-color="#B357E8"/>
<stop offset="0.221259" stop-color="#4D8CAB"/>
<stop offset="0.53555" stop-color="#5AC799"/>
<stop offset="1" stop-color="#64F38C"/>
</linearGradient>
<linearGradient id="paint1_linear_1230_1671" x1="65.6013" y1="38.0005" x2="122.841" y2="38.0005" gradientUnits="userSpaceOnUse">
<stop stop-color="white" stop-opacity="0"/>
<stop offset="0.18934" stop-color="white"/>
<stop offset="0.746224" stop-color="white"/>
<stop offset="1" stop-color="white" stop-opacity="0"/>
</linearGradient>
</defs>
</svg>
