<svg width="420" height="130" xmlns="http://www.w3.org/2000/svg">
 <style type="text/css">.st0{fill:#41E6AF;}</style>

 <g>
  <title>background</title>
  <rect fill="none" id="canvas_background" height="132" width="422" y="-1" x="-1"/>
 </g>
 <g>
  <title>Layer 1</title>
  <g id="svg_1">
   <polygon id="svg_2" points="139.89999389648438,55.399993896484375 136.10000610351562,49 136.10000610351562,48.899993896484375 114.79998779296875,13.199996948242188 114.70001220703125,13.300003051757812 114,12 106.20001220703125,12 76.10000610351562,65.10000610351562 106.70001220703125,117.89999389648438 114.5,117.89999389648438 114.70001220703125,117.60000610351562 140,74.20001220703125 124.39999389648438,74.20001220703125 110.89999389648438,98.10000610351562 91.70001220703125,65 110.60000610351562,31.800003051757812 124.20001220703125,55.399993896484375 " class="st0"/>
   <polygon id="svg_3" points="21.899993896484375,46.80000305175781 36,22.699996948242188 31.300003051757812,15 31.300003051757812,15 28,9.600006103515625 3.6999969482421875,52.30000305175781 3.6999969482421875,52.30000305175781 3,53.600006103515625 6.899993896484375,60.30000305175781 67.89999389648438,60.30000305175781 98.70001220703125,7.600006103515625 94.39999389648438,0.3000030517578125 51.69999694824219,0.3000030517578125 51,0.39999377727508545 44.19999694824219,0.3000030517578125 47.899993896484375,7.100006103515625 47.899993896484375,7.100006103515625 51.5,13.899993896484375 79.39999389648438,13.800003051757812 60.100006103515625,46.80000305175781 " class="st0"/>
   <path id="svg_4" d="m52,18.9c-1,0 -2.2,0.2 -3.4,0.5c-1.3,0.4 -2.5,0.9 -3.7,1.6c-3.3,2 -5.6,4.9 -6,7.7c-0.2,1.2 0.1,2.3 0.8,3.1c0,0 0,0 0,0c0.1,0.1 0.3,0.3 0.4,0.4c0.1,0.1 0.2,0.1 0.3,0.2c0.1,0.1 0.1,0.1 0.2,0.2c0.2,0.1 0.3,0.2 0.5,0.3c0,0 0,0 0,0c2.1,1 5.3,0.7 8.4,-0.7l0.1,0c0.3,-0.1 0.6,-0.3 0.9,-0.4c0.3,-0.1 0.5,-0.3 0.8,-0.5c0.3,-0.2 0.6,-0.4 0.9,-0.6c0.3,-0.2 0.5,-0.4 0.7,-0.5l0.2,-0.1c0.2,-0.1 0.4,-0.3 0.5,-0.5c0.1,-0.1 0.1,-0.1 0.2,-0.2c0.1,-0.1 0.3,-0.3 0.4,-0.4c0.1,-0.1 0.2,-0.2 0.3,-0.3c0.1,-0.1 0.3,-0.3 0.4,-0.4c0.1,-0.1 0.1,-0.1 0.2,-0.2c0.1,-0.2 0.3,-0.3 0.4,-0.5l0.2,-0.2c0.1,-0.1 0.2,-0.3 0.3,-0.5c0,0 0,0 0,-0.1l0.1,-0.2c0.1,-0.2 0.3,-0.5 0.4,-0.7c0.1,-0.2 0.2,-0.4 0.3,-0.7l0.1,-0.1c0,-0.1 0.1,-0.2 0.1,-0.2c0,0 0,0 0,0c0,-0.1 0,-0.1 0.1,-0.2c0,-0.2 0.1,-0.3 0.1,-0.4c0,-0.2 0.1,-0.2 0.1,-0.3c0,-0.1 0,-0.2 0,-0.2c0,-0.2 0,-0.3 0,-0.4l0,-0.2c0,-0.2 0,-0.3 0,-0.5c0,-0.1 0,-0.1 0,-0.2c0,-0.1 0,-0.2 0,-0.2c0,-0.1 0,-0.1 0,-0.2l0,-0.1c0,-0.2 -0.1,-0.3 -0.2,-0.5c-0.1,-0.2 -0.2,-0.3 -0.3,-0.5l0,0c-0.9,-1.4 -2.6,-2.1 -4.8,-2.1" class="st0"/>
   <path id="svg_5" d="m59.1,26c0,0.2 -0.1,0.3 -0.2,0.5c0,0 0,0 0,0c0,0.1 0,0.1 -0.1,0.2c0,0 0,0 0,0c-0.1,0.3 -0.2,0.5 -0.3,0.8l0,0c0,0 0,0 0,0c-1,2.1 -2.8,4 -5,5.5c-0.3,0.2 -0.6,0.4 -0.9,0.6c-0.3,0.2 -0.6,0.3 -0.9,0.5l-0.1,0c0,0 0,0 0,0c-0.1,0.1 -0.2,0.1 -0.3,0.2c-0.2,0.1 -0.3,0.2 -0.5,0.2l-0.1,0c-0.1,0 -0.2,0.1 -0.2,0.1c-0.2,0.1 -0.4,0.2 -0.6,0.2l-0.2,0.1c0,0 0,0 -0.1,0c-0.1,0 -0.2,0.1 -0.3,0.1c-0.2,0.1 -0.4,0.1 -0.5,0.2l-0.2,0.1c0,0 -0.1,0 -0.1,0c-0.2,0.1 -0.4,0.1 -0.5,0.2c-0.1,0 -0.2,0.1 -0.3,0.1l0,0l0,0l-0.1,0c-0.2,0 -0.3,0.1 -0.5,0.1c-0.1,0 -0.3,0 -0.4,0.1c0,0 -0.1,0 -0.1,0c-0.1,0 -0.2,0 -0.3,0c-0.1,0 -0.2,0 -0.2,0c-0.3,0 -0.7,0.1 -1,0.1l-0.1,0c-0.3,0 -0.6,0 -0.8,0c-0.1,0 -0.2,0 -0.2,0l-0.1,0c-0.2,0 -0.4,0 -0.6,-0.1c-0.1,0 -0.2,0 -0.3,-0.1c-0.2,0 -0.4,-0.1 -0.6,-0.1c-0.1,0 -0.2,-0.1 -0.3,-0.1l5.3,8.7l11.4,-0.1l5.9,-10.5l-5.3,-8.7c0,0.1 0,0.2 -0.1,0.3c0,0.1 0,0.1 0,0.2c0,0.1 -0.1,0.2 -0.1,0.4c-0.1,0.1 -0.1,0.2 -0.1,0.2" class="st0"/>
   <path id="svg_6" d="m119.9,57.6c0.5,0.9 1,2 1.3,3.2c0.3,1.3 0.5,2.6 0.5,4c0,3.8 -1.3,7.3 -3.4,9.1c-1,0.8 -2,1.2 -3.1,1l0,0c-0.2,0 -0.4,-0.1 -0.6,-0.1c-0.1,0 -0.2,-0.1 -0.3,-0.1c-0.1,0 -0.2,-0.1 -0.2,-0.1c-0.2,-0.1 -0.3,-0.2 -0.5,-0.3c0,0 0,0 0,0c-1.9,-1.3 -3.4,-4.1 -3.8,-7.5l0,-0.1c0,-0.3 -0.1,-0.6 -0.1,-0.9c0,-0.3 0,-0.6 0,-0.9c0,-0.3 0,-0.7 0,-1c0,-0.3 0,-0.6 0.1,-0.9l0,-0.2c0,-0.2 0.1,-0.5 0.1,-0.7c0,-0.1 0,-0.2 0,-0.3c0,-0.2 0.1,-0.4 0.1,-0.6c0,-0.2 0.1,-0.3 0.1,-0.5c0.1,-0.2 0.1,-0.4 0.2,-0.6c0,-0.1 0.1,-0.2 0.1,-0.2c0.1,-0.2 0.1,-0.4 0.2,-0.6l0.1,-0.3c0.1,-0.2 0.2,-0.3 0.2,-0.5c0,0 0,0 0,-0.1l0.1,-0.2c0.1,-0.2 0.3,-0.5 0.4,-0.7c0.1,-0.2 0.3,-0.4 0.4,-0.6l0.1,-0.1c0.1,-0.1 0.1,-0.1 0.2,-0.2c0,0 0,0 0,0c0,-0.1 0.1,-0.1 0.1,-0.2c0.1,-0.1 0.2,-0.2 0.3,-0.3c0.1,-0.1 0.2,-0.2 0.2,-0.2c0.1,-0.1 0.1,-0.1 0.2,-0.2c0.1,-0.1 0.2,-0.2 0.3,-0.3l0.2,-0.1c0.1,-0.1 0.3,-0.2 0.4,-0.2c0.1,0 0.1,0 0.2,-0.1c0.1,0 0.1,-0.1 0.2,-0.1c0,0 0.1,0 0.1,-0.1l0.1,0c0.2,0 0.3,-0.1 0.5,-0.1c0.2,0 0.4,0 0.6,0l0,0c1.8,-0.1 3.3,1 4.4,2.9" class="st0"/>
   <path id="svg_7" d="m110.2,55.2c-0.1,0.1 -0.2,0.3 -0.3,0.4c0,0 0,0 0,0c0,0.1 -0.1,0.1 -0.1,0.2c0,0 0,0 0,0c-0.2,0.2 -0.3,0.5 -0.5,0.7c0,0 0,0 0,0l0,0c-1.2,1.9 -1.9,4.4 -2.1,7.1c0,0.4 0,0.7 0,1c0,0.3 0,0.7 0,1l0,0.1c0,0 0,0 0,0c0,0.1 0,0.2 0,0.4c0,0.2 0,0.4 0,0.5l0,0.1c0,0.1 0,0.2 0,0.3c0,0.2 0.1,0.4 0.1,0.6l0,0.2c0,0 0,0 0,0.1c0,0.1 0,0.2 0.1,0.3c0,0.2 0.1,0.4 0.1,0.6l0.1,0.2c0,0 0,0.1 0,0.1c0,0.2 0.1,0.4 0.1,0.5c0,0.1 0.1,0.2 0.1,0.3l0,0c0,0 0,0 0,0l0,0.1c0.1,0.2 0.1,0.3 0.2,0.5c0,0.1 0.1,0.2 0.1,0.4c0,0 0,0.1 0,0.1c0,0.1 0.1,0.2 0.1,0.3c0,0.1 0.1,0.2 0.1,0.2c0.1,0.3 0.3,0.6 0.4,0.9l0.1,0.1c0.2,0.3 0.3,0.5 0.4,0.7c0,0.1 0.1,0.1 0.1,0.2l0.1,0.1c0.1,0.2 0.2,0.3 0.4,0.5c0.1,0.1 0.1,0.2 0.2,0.2c0.2,0.2 0.3,0.3 0.4,0.4c0.1,0.1 0.1,0.1 0.2,0.2l-10.2,0l-5.9,-9.8l5.9,-10.5l10.2,0c-0.1,0.1 -0.1,0.1 -0.2,0.2c0,0 -0.1,0.1 -0.1,0.1c0.1,0.2 0,0.2 -0.1,0.4c0,0 0,0 0,0" class="st0"/>
   <path id="svg_8" d="m52,111c-1,0 -2.2,-0.2 -3.4,-0.5c-1.3,-0.4 -2.5,-0.9 -3.7,-1.6c-3.3,-2 -5.6,-4.9 -6,-7.7c-0.2,-1.2 0.1,-2.3 0.8,-3.1c0,0 0,0 0,0c0.1,-0.1 0.3,-0.3 0.4,-0.4c0.1,-0.1 0.2,-0.1 0.3,-0.2c0.1,-0.1 0.1,-0.1 0.2,-0.2c0.2,-0.1 0.3,-0.2 0.5,-0.3c0,0 0,0 0,0c2.1,-1 5.3,-0.7 8.4,0.7l0.1,0.1c0.3,0.1 0.6,0.3 0.9,0.4c0.3,0.1 0.5,0.3 0.8,0.5c0.3,0.2 0.6,0.4 0.9,0.6c0.3,0.2 0.5,0.4 0.7,0.5l0.2,0.1c0.2,0.1 0.4,0.3 0.5,0.5c0.1,0.1 0.1,0.1 0.2,0.2c0.1,0.1 0.3,0.3 0.4,0.4c0.1,0.1 0.2,0.2 0.3,0.3c0.1,0.1 0.3,0.3 0.4,0.4c0.1,0.1 0.1,0.1 0.2,0.2c0.1,0.2 0.3,0.3 0.4,0.5l0.2,0.2c0.1,0.2 0.2,0.3 0.3,0.5l0,0.1l0.1,0.2c0.1,0.2 0.3,0.5 0.4,0.7c0.1,0.2 0.2,0.4 0.3,0.7l0.1,0.1c0,0.1 0.1,0.2 0.1,0.2c0,0 0,0 0,0c0,0.1 0,0.1 0.1,0.2c0,0.2 0.1,0.3 0.1,0.4c0,0.2 0.1,0.2 0.1,0.3c0,0.1 0,0.2 0,0.2c0,0.2 0,0.3 0,0.4l0,0.2c0,0.2 0,0.3 0,0.5c0,0.1 0,0.1 0,0.2c0,0.1 0,0.2 0,0.2c0,0.1 0,0.1 0,0.2l0,0.1c0,0.2 -0.1,0.3 -0.2,0.5c-0.1,0.2 -0.2,0.3 -0.3,0.5l0,0c-0.9,1.3 -2.6,2.1 -4.8,2" class="st0"/>
   <path id="svg_9" d="m59.1,103.9c0,-0.2 -0.1,-0.3 -0.2,-0.5c0,0 0,0 0,0c0,-0.1 0,-0.1 -0.1,-0.2c0,0 0,0 0,0c-0.1,-0.3 -0.2,-0.5 -0.3,-0.8l0,0c0,0 0,0 0,0c-1,-2.1 -2.8,-4 -5,-5.5c-0.3,-0.2 -0.6,-0.4 -0.9,-0.6c-0.3,-0.2 -0.6,-0.3 -0.9,-0.5l-0.1,0c0,0 0,0 0,0c-0.1,-0.1 -0.2,-0.1 -0.3,-0.2c-0.2,-0.1 -0.3,-0.2 -0.5,-0.2l-0.1,0c-0.1,0 -0.2,-0.1 -0.2,-0.1c-0.2,-0.1 -0.4,-0.2 -0.6,-0.2l-0.2,-0.1c0,0 0,0 -0.1,0c-0.1,0 -0.2,-0.1 -0.3,-0.1c-0.2,-0.1 -0.4,-0.1 -0.5,-0.2l-0.2,-0.1c0,0 -0.1,0 -0.1,0c-0.2,-0.1 -0.4,-0.1 -0.5,-0.2c-0.1,0 -0.2,-0.1 -0.3,-0.1l0,0c0,0 0,0 0,0l-0.1,0c-0.2,0 -0.3,-0.1 -0.5,-0.1c-0.1,0 -0.3,0 -0.4,-0.1c0,0 -0.1,0 -0.1,0c-0.1,0 -0.2,0 -0.3,-0.1c-0.1,0 -0.2,0 -0.2,0c-0.3,0 -0.7,-0.1 -1,-0.1l-0.1,0c-0.3,0 -0.6,0 -0.8,0c-0.1,0 -0.2,0 -0.2,0l-0.1,0c-0.2,0 -0.4,0 -0.6,0.1c-0.1,0 -0.2,0 -0.3,0.1c-0.2,0 -0.4,0.1 -0.6,0.1c-0.1,0 -0.2,0.1 -0.3,0.1l5.3,-8.7l11.4,0.1l5.9,10.5l-5.3,8.7c0,-0.1 0,-0.2 -0.1,-0.3c0,-0.1 0,-0.1 0,-0.2c0,-0.1 -0.1,-0.2 -0.1,-0.4c-0.1,0 -0.1,-0.1 -0.1,-0.1" class="st0"/>
   <polygon id="svg_10" points="79.39999389648438,116.20001220703125 51.5,116.10000610351562 47.19999694824219,124.10000610351562 44.19999694824219,129.70001220703125 51.69999694824219,129.60000610351562 51.69999694824219,129.60000610351562 94.39999389648438,129.70001220703125 98.70001220703125,122.29998779296875 67.89999389648438,69.60000610351562 6.899993896484375,69.60000610351562 3,76.29998779296875 3.6999969482421875,77.60000610351562 3.6999969482421875,77.60000610351562 28,120.29998779296875 36,107.20001220703125 21.899993896484375,83.10000610351562 60.100006103515625,83.10000610351562 " class="st0"/>
   <g id="svg_11">
    <g id="svg_12">
     <path id="svg_13" d="m196.6,96.1l0,2.3l-19.5,0l0,5.2c0,4.1 -0.3,10.3 -2.7,14.3c-0.4,-0.4 -1.5,-1.2 -2.1,-1.4c2.1,-3.7 2.3,-9.1 2.3,-12.9l0,-7.5l10.1,0c-0.3,-0.7 -0.6,-1.4 -1,-2l2.4,-0.6c0.5,0.8 1,1.8 1.3,2.6l9.2,0zm-7.2,15.7l7.2,0l0,2.2l-7.2,0l0,3.7l-2.4,0l0,-3.7l-9.1,0l0,-2.2l9.1,0l0,-2.6l-4.3,0c-1.3,0 -2.3,0.1 -2.5,0.4c-0.1,-0.5 -0.6,-1.7 -0.8,-2.3c0.5,-0.1 0.9,-0.7 1.5,-1.5c0.2,-0.4 0.7,-1.2 1.3,-2.3l-3.5,0l0,-2.2l4.5,0c0.3,-0.8 0.7,-1.7 0.9,-2.5l2.6,0.8c-0.2,0.5 -0.4,1.1 -0.7,1.7l9.7,0l0,2.2l-10.9,0c-0.7,1.3 -1.4,2.5 -2.1,3.6l4.4,0l0,-2.5l2.4,0l0,2.5l5.5,0l0,2.2l-5.5,0l0,2.5l-0.1,0z" class="st0"/>
    </g>
    <g id="svg_14">
     <path id="svg_15" d="m248.2,111.8c0,1.3 -0.3,2 -1.2,2.4c-0.9,0.4 -2.3,0.5 -4.4,0.4c-0.1,-0.7 -0.5,-1.8 -0.8,-2.5c1.5,0.1 2.9,0.1 3.3,0c0.4,0 0.6,-0.1 0.6,-0.5l0,-7.6l-5.7,0l0,13.8l-2.5,0l0,-13.8l-5.4,0l0,10.8l-2.5,0l0,-13.2l7.9,0l0,-3.9c-3.2,0.2 -6.4,0.3 -9.3,0.3c0,-0.7 -0.3,-1.6 -0.5,-2.2c7.3,-0.1 16,-0.7 21.3,-1.5l0.9,2.3c-2.7,0.4 -6.2,0.8 -9.8,1l0,4.1l8.3,0l0,10.1l-0.2,0z" class="st0"/>
    </g>
    <g id="svg_16">
     <path id="svg_17" d="m289.3,109.9c-0.5,-0.7 -1.5,-1.9 -2.4,-3l0,10.8l-2.4,0l0,-10.2c-1.1,1.1 -2.2,2 -3.4,2.7c-0.2,-0.7 -0.7,-2 -1,-2.4c2.8,-1.6 5.6,-4.5 7.3,-7.5l-6.5,0l0,-2.3l5,0c-0.5,-1 -1.5,-2.5 -2.4,-3.5l1.9,-1.1c1,1 2,2.4 2.5,3.4l-1.9,1.2l2.7,0l0.4,-0.1l1.3,0.9c-0.8,2 -1.9,3.8 -3.1,5.5c1.1,0.9 3,2.9 3.5,3.5l-1.5,2.1zm15.4,4.5l0,2.4l-15.1,0l0,-2.4l6.7,0l0,-10.4l-5.5,0l0,-2.3l5.5,0l0,-8l2.5,0l0,8l5.3,0l0,2.3l-5.3,0l0,10.5l5.9,0l0,-0.1z" class="st0"/>
    </g>
    <g id="svg_18">
     <path id="svg_19" d="m358.4,114.7l0,2.3l-22.5,0l0,-22.2l21.9,0l0,2.3l-19.5,0l0,17.5l20.1,0l0,0.1zm-4.7,-1.6c-1.3,-1.6 -3.2,-3.5 -5.4,-5.6c-2.2,2.2 -4.5,4.1 -6.9,5.6c-0.4,-0.5 -1.4,-1.4 -1.9,-1.8c2.5,-1.4 4.9,-3.2 7.1,-5.4c-2.1,-1.9 -4.2,-3.7 -6.2,-5.3l1.7,-1.5c1.9,1.5 4,3.2 6.1,5c1.7,-1.8 3.2,-3.8 4.4,-5.9l2.3,0.9c-1.4,2.3 -3,4.5 -4.9,6.5c2.3,2 4.3,4 5.7,5.6l-2,1.9z" class="st0"/>
    </g>
    <g id="svg_20">
     <path id="svg_21" d="m395.7,111.8c0.1,0.6 0.4,1.4 0.7,1.8c-4,2.9 -4.7,3.4 -5.1,4l0,-0.1l0,0.1c-0.2,-0.5 -0.8,-1.3 -1.2,-1.6c0.5,-0.4 1.3,-1.3 1.3,-2.6l0,-4.8l-2.5,0l0,-2.1l2.5,0l0,-3.3l-1.4,0l0,-1.9c-0.2,0.3 -0.4,0.5 -0.5,0.7c-0.2,-0.5 -0.8,-1.7 -1.2,-2.2c1.2,-1.6 2.2,-3.9 2.7,-6.2l2.1,0.6c-0.2,0.7 -0.4,1.5 -0.7,2.2l3.7,0l0,2.1l-4.5,0c-0.4,1 -0.9,1.8 -1.4,2.6l5.4,0l0,2.1l-1.9,0l0,3.3l2.6,0l0,2.1l-2.6,0l0,4.7l2,-1.5zm4.5,1.1c0.5,0.2 0.9,0.6 1.7,1.1c1.3,0.8 2.9,1 4.9,1c1.7,0 4.4,-0.1 6.1,-0.3c-0.2,0.7 -0.6,1.8 -0.6,2.5c-1.3,0.1 -3.9,0.2 -5.6,0.2c-2.2,0 -3.8,-0.4 -5.3,-1.2c-0.9,-0.6 -1.7,-1.2 -2.1,-1.2c-0.7,0 -1.7,1.5 -2.6,2.8l-1.6,-2.3c0.9,-1 1.9,-1.8 2.8,-2.3l0,-8.5l-1.8,0l0,-2.2l4,0l0,10.4l0.1,0zm-2.1,-12.9c-0.3,-1.3 -1.1,-3.4 -1.8,-5l2,-0.7c0.7,1.6 1.5,3.6 1.9,4.9l-2.1,0.8zm5.8,4.8c-1,0 -1.8,0.2 -2,0.4c-0.1,-0.5 -0.5,-1.6 -0.8,-2.1c0.4,-0.1 0.8,-0.8 1.2,-1.7c0.2,-0.4 0.6,-1.5 1,-2.8l-2.5,0l0,-2.2l3.1,0c0.2,-0.9 0.5,-1.9 0.6,-2.9l2.4,0.5c-0.2,0.8 -0.4,1.6 -0.7,2.4l5.8,0l0,2.2l-6.6,0c-0.6,1.5 -1.2,3 -1.8,4.2l2.2,0l0,-3l2.3,0l0,3l3.4,0l0,2.1l-3.4,0l0,3.1l4.1,0l0,2.1l-4.1,0l0,4.1l-2.3,0l0,-4.2l-5.2,0l0,-2.1l5.2,0l0,-3.1l-1.9,0z" class="st0"/>
    </g>
   </g>
   <g id="svg_22">
    <g id="svg_23">
     <path id="svg_24" d="m179.2,85.3c-2,0 -3.7,-0.7 -5.1,-2.1c-1.9,-1.9 -1.9,-4 -1.9,-7.7c0,-3.7 0,-5.8 1.9,-7.7c1.3,-1.3 3.1,-2.1 5.1,-2.1c3.5,0 6.2,2.1 6.9,5.9l-3,0c-0.5,-1.9 -1.8,-3.3 -3.9,-3.3c-1.1,0 -2.2,0.4 -2.8,1.2c-0.9,1 -1.2,2.1 -1.2,6c0,3.9 0.2,5 1.2,6c0.7,0.7 1.7,1.2 2.8,1.2c2.1,0 3.5,-1.4 3.9,-3.3l2.9,0c-0.6,3.8 -3.3,5.9 -6.8,5.9z" class="st0"/>
    </g>
    <g id="svg_25">
     <path id="svg_26" d="m201.6,83.3c-1.3,1.3 -3,2.1 -5.1,2.1c-2.1,0 -3.7,-0.7 -5.1,-2.1c-1.9,-1.9 -1.9,-4 -1.9,-7.7c0,-3.7 0,-5.8 1.9,-7.7c1.3,-1.3 3,-2.1 5.1,-2.1c2.1,0 3.8,0.7 5.1,2.1c1.9,1.9 1.8,4 1.8,7.7c0,3.6 0.1,5.8 -1.8,7.7zm-2.2,-13.7c-0.7,-0.7 -1.7,-1.2 -2.9,-1.2c-1.1,0 -2.2,0.5 -2.9,1.2c-0.9,1 -1.1,2.1 -1.1,6c0,3.9 0.2,4.9 1.1,6c0.7,0.7 1.7,1.2 2.9,1.2c1.1,0 2.2,-0.5 2.9,-1.2c0.9,-1 1.1,-2.1 1.1,-6c0,-3.9 -0.2,-5 -1.1,-6z" class="st0"/>
    </g>
    <g id="svg_27">
     <path id="svg_28" d="m222.1,85.2l0,-12.9l-4.4,9.4l-2.2,0l-4.5,-9.4l0,12.9l-2.9,0l0,-19.3l2.9,0l5.6,12l5.5,-12l2.9,0l0,19.3l-2.9,0z" class="st0"/>
    </g>
    <g id="svg_29">
     <path id="svg_30" d="m244.4,85.2l0,-12.9l-4.4,9.4l-2.2,0l-4.5,-9.4l0,12.9l-2.9,0l0,-19.3l2.9,0l5.6,12l5.5,-12l2.9,0l0,19.3l-2.9,0z" class="st0"/>
    </g>
    <g id="svg_31">
     <path id="svg_32" d="m259.3,85.3c-3.9,0 -6.9,-2.7 -6.9,-6.7l0,-12.8l2.9,0l0,12.6c0,2.6 1.6,4.2 4,4.2c2.4,0 4,-1.6 4,-4.2l0,-12.6l2.9,0l0,12.8c0,4 -3,6.7 -6.9,6.7z" class="st0"/>
    </g>
    <g id="svg_33">
     <path id="svg_34" d="m283.1,85.2l-8.9,-13.5l0,13.5l-2.9,0l0,-19.3l2.7,0l8.9,13.5l0,-13.5l2.9,0l0,19.3l-2.7,0z" class="st0"/>
    </g>
    <g id="svg_35">
     <path id="svg_36" d="m291.1,85.2l0,-19.3l2.9,0l0,19.3l-2.9,0z" class="st0"/>
    </g>
    <g id="svg_37">
     <path id="svg_38" d="m305.9,68.5l0,16.6l-2.9,0l0,-16.6l-5.3,0l0,-2.6l13.5,0l0,2.6l-5.3,0z" class="st0"/>
    </g>
    <g id="svg_39">
     <path id="svg_40" d="m321.1,77.2l0,7.9l-2.9,0l0,-7.9l-5.8,-11.3l3.2,0l4,8.5l4,-8.5l3.2,0l-5.7,11.3z" class="st0"/>
    </g>
    <g id="svg_41">
     <path id="svg_42" d="m342.9,85.3c-2,0 -3.7,-0.7 -5.1,-2.1c-1.9,-1.9 -1.9,-4 -1.9,-7.7c0,-3.7 0,-5.8 1.9,-7.7c1.3,-1.3 3.1,-2.1 5.1,-2.1c3.5,0 6.2,2.1 6.9,5.9l-3,0c-0.5,-1.9 -1.8,-3.3 -3.9,-3.3c-1.1,0 -2.2,0.4 -2.8,1.2c-0.9,1 -1.2,2.1 -1.2,6c0,3.9 0.2,5 1.2,6c0.7,0.7 1.7,1.2 2.8,1.2c2.1,0 3.5,-1.4 3.9,-3.3l2.9,0c-0.6,3.8 -3.3,5.9 -6.8,5.9z" class="st0"/>
    </g>
    <g id="svg_43">
     <path id="svg_44" d="m364.7,85.2l0,-8.4l-7.8,0l0,8.4l-2.9,0l0,-19.3l2.9,0l0,8.2l7.8,0l0,-8.2l2.9,0l0,19.3l-2.9,0z" class="st0"/>
    </g>
   </g>
   <g id="svg_45">
    <path id="svg_46" d="m384.1,85.2l-1.3,-3.9l-7.6,0l-1.3,3.9l-3.1,0l7.1,-19.3l2.4,0l7.1,19.3l-3.3,0zm-5.1,-14.9l-3,8.5l5.9,0l-2.9,-8.5z" class="st0"/>
   </g>
   <g id="svg_47">
    <path id="svg_48" d="m390.2,85.2l0,-19.3l2.9,0l0,19.3l-2.9,0z" class="st0"/>
   </g>
   <g id="svg_49">
    <path id="svg_50" d="m410.3,85.2l-8.9,-13.5l0,13.5l-2.9,0l0,-19.3l2.7,0l8.9,13.5l0,-13.5l2.9,0l0,19.3l-2.7,0z" class="st0"/>
   </g>
   <g id="svg_51">
    <path id="svg_52" d="m341,35.2c0,-2 0,-3.9 -0.1,-5.6c-0.1,-1.7 -0.2,-3.4 -0.5,-4.9c-0.3,-1.5 -0.7,-2.9 -1.4,-4.2c-0.6,-1.3 -1.5,-2.6 -2.7,-3.7c-1.6,-1.6 -3.4,-2.9 -5.5,-3.8c-2,-0.9 -4.4,-1.3 -7,-1.3c-2.6,0 -5,0.4 -7,1.3c-2.1,0.9 -3.9,2.1 -5.5,3.8c-1.2,1.2 -2,2.4 -2.7,3.7c-0.6,1.3 -1.1,2.7 -1.3,4.2c-0.3,1.5 -0.4,3.1 -0.5,4.9c0,1.7 -0.1,3.6 -0.1,5.6c0,2 0,3.9 0.1,5.6c0,1.7 0.2,3.4 0.5,4.9c0.3,1.5 0.7,2.9 1.3,4.2c0.6,1.3 1.5,2.6 2.7,3.7c1.6,1.6 3.5,2.9 5.5,3.7c2.1,0.9 4.4,1.3 7,1.3c2.6,0 4.9,-0.4 7,-1.3c2,-0.9 3.9,-2.1 5.5,-3.7c1.2,-1.2 2.1,-2.4 2.7,-3.7c0.6,-1.3 1.1,-2.7 1.4,-4.2c0.3,-1.5 0.4,-3.1 0.5,-4.9c0.1,-1.8 0.1,-3.6 0.1,-5.6m-9,0c0,2.2 0,4 -0.1,5.5c-0.1,1.5 -0.2,2.7 -0.4,3.6c-0.2,0.9 -0.4,1.7 -0.7,2.3c-0.3,0.6 -0.7,1.1 -1.1,1.6c-0.6,0.8 -1.5,1.4 -2.4,1.8c-1,0.4 -2.1,0.7 -3.3,0.7c-1.2,0 -2.4,-0.2 -3.4,-0.7c-1,-0.4 -1.8,-1 -2.5,-1.8c-0.4,-0.5 -0.8,-1 -1.1,-1.6c-0.3,-0.6 -0.5,-1.4 -0.7,-2.3c-0.2,-0.9 -0.3,-2.1 -0.3,-3.6c-0.1,-1.5 -0.1,-3.3 -0.1,-5.5c0,-2.2 0,-4 0.1,-5.5c0.1,-1.5 0.2,-2.7 0.3,-3.6c0.2,-0.9 0.4,-1.7 0.7,-2.3c0.3,-0.6 0.6,-1.1 1.1,-1.6c0.7,-0.8 1.5,-1.4 2.5,-1.8c1,-0.4 2.1,-0.7 3.4,-0.7c1.2,0 2.4,0.2 3.3,0.7c1,0.4 1.8,1 2.4,1.8c0.4,0.5 0.8,1 1.1,1.6c0.3,0.6 0.5,1.4 0.7,2.3c0.2,0.9 0.3,2.1 0.4,3.6c0,1.4 0.1,3.3 0.1,5.5" class="st0"/>
   </g>
   <g id="svg_53">
    <path id="svg_54" d="m413,12.8c0,-0.4 -0.4,-0.8 -0.8,-0.8l-7.4,0c-0.4,0 -0.8,0.4 -0.8,0.8l0,27.5l-18.2,-28.1c-0.1,-0.2 -0.2,-0.2 -0.5,-0.2l-6.9,0c-0.4,0 -0.8,0.4 -0.8,0.8l0,44.7c0,0.4 0.4,0.8 0.8,0.8l7.4,0c0.4,0 0.8,-0.4 0.8,-0.8l0,-27.6l18.2,28.2c0.1,0.2 0.2,0.2 0.5,0.2l6.9,0c0.4,0 0.8,-0.4 0.8,-0.8l0,-44.7z" class="st0"/>
   </g>
   <g id="svg_55">
    <path id="svg_56" d="m363,12.8c0,-0.4 -0.4,-0.8 -0.8,-0.8l-7.4,0c-0.4,0 -0.8,0.4 -0.8,0.8l0,44.7c0,0.4 0.4,0.8 0.8,0.8l7.4,0c0.4,0 0.8,-0.4 0.8,-0.8l0,-44.7z" class="st0"/>
   </g>
   <g id="svg_57">
    <path id="svg_58" d="m273.9,35.2c0,-2.2 0,-4.1 0.1,-5.5c0.1,-1.5 0.2,-2.7 0.3,-3.6c0.7,-4 3.7,-6.3 7.6,-6.3c2.5,0 4.8,1 6.3,3.1c0.6,0.9 1.1,2 1.4,3.3c0,0.1 0.1,0.2 0.3,0.2l8.8,0c0.1,0 0.2,-0.1 0.1,-0.2c-1,-5.4 -3.9,-10.3 -9,-12.7c-2.4,-1.1 -5,-1.7 -8,-1.7c-4.9,0 -9.1,1.7 -12.5,5.1c-1.9,1.9 -3.2,4.3 -3.8,6.9c-0.5,2.6 -0.8,6.4 -0.8,11.5c0,5.1 0.3,8.9 0.8,11.5c0.5,2.7 1.8,5 3.8,7c3.4,3.4 7.5,5.1 12.5,5.1c3,0 5.6,-0.6 8,-1.7c5.1,-2.4 8,-7.3 9,-12.7c0,-0.1 0,-0.2 -0.1,-0.2l-8.7,0c-0.1,0 -0.2,0.1 -0.3,0.2c-0.3,1.2 -0.8,2.3 -1.4,3.3c-1.5,2.1 -3.8,3.1 -6.3,3.1c-3.9,0 -6.9,-2.3 -7.6,-6.3c-0.2,-0.9 -0.3,-2.1 -0.3,-3.6c-0.2,-1.8 -0.2,-3.6 -0.2,-5.8" class="st0"/>
   </g>
   <g id="svg_59">
    <path id="svg_60" d="m181.3,12.8c0,-0.4 -0.4,-0.8 -0.8,-0.8l-7.4,0c-0.4,0 -0.8,0.4 -0.8,0.8l0,44.7c0,0.4 0.4,0.8 0.8,0.8l7.4,0c0.4,0 0.8,-0.4 0.8,-0.8l0,-13.1l6,-7.1l12.3,20.8c0.1,0.1 0.2,0.2 0.4,0.2l9,0c0.4,0 0.5,-0.3 0.3,-0.6l-16.1,-27.3l14.7,-17.7c0.3,-0.4 0.2,-0.7 -0.3,-0.7l-9.9,0c-0.1,0 -0.2,0 -0.3,0.1l-16.2,19.4l0,-18.7l0.1,0z" class="st0"/>
   </g>
   <g id="svg_61">
    <path id="svg_62" d="m235.6,50.6c-4.2,0 -8,-3.9 -8,-8.5l0,-29.3c0,-0.4 -0.4,-0.8 -0.8,-0.8l-7.4,0c-0.4,0 -0.8,0.4 -0.8,0.8l0,29.2c0,10.2 7.6,16.7 17,16.7c9.4,0 17,-6.5 17,-16.7l0,-29.2c0,-0.4 -0.4,-0.8 -0.8,-0.8l-7.4,0c-0.4,0 -0.8,0.4 -0.8,0.8l0,29.3c0,4.6 -3.8,8.5 -8,8.5" class="st0"/>
   </g>
  </g>
 </g>
</svg>