<?xml version="1.0" encoding="utf-8"?>
<!-- Generator: Adobe Illustrator 22.0.0, SVG Export Plug-In . SVG Version: 6.00 Build 0)  -->
<svg version="1.1" id="图层_1" xmlns="http://www.w3.org/2000/svg" xmlns:xlink="http://www.w3.org/1999/xlink" x="0px" y="0px"
	 viewBox="0 0 800 500" style="enable-background:new 0 0 800 500;" xml:space="preserve">
<style type="text/css">
	.st0{fill:#41E6AF;}
</style>
<g>
	<polygon class="st0" points="331.9,240.4 328.1,234 328.1,233.9 306.8,198.2 306.7,198.3 306,197 298.2,197 268.1,250.1 
		298.7,302.9 306.5,302.9 306.7,302.6 332,259.2 316.4,259.2 302.9,283.1 283.7,250 302.6,216.8 316.2,240.4 	"/>
	<polygon class="st0" points="213.9,231.8 228,207.7 223.3,200 223.3,200 220,194.6 195.7,237.3 195.7,237.3 195,238.6 198.9,245.3 
		259.9,245.3 290.7,192.6 286.4,185.3 243.7,185.3 243,185.4 236.2,185.3 239.9,192.1 239.9,192.1 243.5,198.9 271.4,198.8 
		252.1,231.8 	"/>
	<path class="st0" d="M244,203.9c-1,0-2.2,0.2-3.4,0.5c-1.3,0.4-2.5,0.9-3.7,1.6c-3.3,2-5.6,4.9-6,7.7c-0.2,1.2,0.1,2.3,0.8,3.1
		c0,0,0,0,0,0c0.1,0.1,0.3,0.3,0.4,0.4c0.1,0.1,0.2,0.1,0.3,0.2c0.1,0.1,0.1,0.1,0.2,0.2c0.2,0.1,0.3,0.2,0.5,0.3c0,0,0,0,0,0
		c2.1,1,5.3,0.7,8.4-0.7l0.1,0c0.3-0.1,0.6-0.3,0.9-0.4c0.3-0.1,0.5-0.3,0.8-0.5c0.3-0.2,0.6-0.4,0.9-0.6c0.3-0.2,0.5-0.4,0.7-0.5
		l0.2-0.1c0.2-0.1,0.4-0.3,0.5-0.5c0.1-0.1,0.1-0.1,0.2-0.2c0.1-0.1,0.3-0.3,0.4-0.4c0.1-0.1,0.2-0.2,0.3-0.3
		c0.1-0.1,0.3-0.3,0.4-0.4c0.1-0.1,0.1-0.1,0.2-0.2c0.1-0.2,0.3-0.3,0.4-0.5l0.2-0.2c0.1-0.1,0.2-0.3,0.3-0.5c0,0,0,0,0-0.1l0.1-0.2
		c0.1-0.2,0.3-0.5,0.4-0.7c0.1-0.2,0.2-0.4,0.3-0.7l0.1-0.1c0-0.1,0.1-0.2,0.1-0.2c0,0,0,0,0,0c0-0.1,0-0.1,0.1-0.2
		c0-0.2,0.1-0.3,0.1-0.4c0-0.2,0.1-0.2,0.1-0.3c0-0.1,0-0.2,0-0.2c0-0.2,0-0.3,0-0.4l0-0.2c0-0.2,0-0.3,0-0.5c0-0.1,0-0.1,0-0.2
		c0-0.1,0-0.2,0-0.2c0-0.1,0-0.1,0-0.2l0-0.1c0-0.2-0.1-0.3-0.2-0.5c-0.1-0.2-0.2-0.3-0.3-0.5l0,0
		C247.9,204.6,246.2,203.9,244,203.9"/>
	<path class="st0" d="M251.1,211c0,0.2-0.1,0.3-0.2,0.5c0,0,0,0,0,0c0,0.1,0,0.1-0.1,0.2c0,0,0,0,0,0c-0.1,0.3-0.2,0.5-0.3,0.8v0
		c0,0,0,0,0,0c-1,2.1-2.8,4-5,5.5c-0.3,0.2-0.6,0.4-0.9,0.6c-0.3,0.2-0.6,0.3-0.9,0.5l-0.1,0c0,0,0,0,0,0c-0.1,0.1-0.2,0.1-0.3,0.2
		c-0.2,0.1-0.3,0.2-0.5,0.2l-0.1,0c-0.1,0-0.2,0.1-0.2,0.1c-0.2,0.1-0.4,0.2-0.6,0.2l-0.2,0.1c0,0,0,0-0.1,0c-0.1,0-0.2,0.1-0.3,0.1
		c-0.2,0.1-0.4,0.1-0.5,0.2l-0.2,0.1c0,0-0.1,0-0.1,0c-0.2,0.1-0.4,0.1-0.5,0.2c-0.1,0-0.2,0.1-0.3,0.1l0,0l0,0l-0.1,0
		c-0.2,0-0.3,0.1-0.5,0.1c-0.1,0-0.3,0-0.4,0.1c0,0-0.1,0-0.1,0c-0.1,0-0.2,0-0.3,0c-0.1,0-0.2,0-0.2,0c-0.3,0-0.7,0.1-1,0.1h-0.1
		c-0.3,0-0.6,0-0.8,0c-0.1,0-0.2,0-0.2,0l-0.1,0c-0.2,0-0.4,0-0.6-0.1c-0.1,0-0.2,0-0.3-0.1c-0.2,0-0.4-0.1-0.6-0.1
		c-0.1,0-0.2-0.1-0.3-0.1l5.3,8.7l11.4-0.1l5.9-10.5l-5.3-8.7c0,0.1,0,0.2-0.1,0.3c0,0.1,0,0.1,0,0.2c0,0.1-0.1,0.2-0.1,0.4
		C251.1,210.9,251.1,211,251.1,211"/>
	<path class="st0" d="M311.9,242.6c0.5,0.9,1,2,1.3,3.2c0.3,1.3,0.5,2.6,0.5,4c0,3.8-1.3,7.3-3.4,9.1c-1,0.8-2,1.2-3.1,1h0
		c-0.2,0-0.4-0.1-0.6-0.1c-0.1,0-0.2-0.1-0.3-0.1c-0.1,0-0.2-0.1-0.2-0.1c-0.2-0.1-0.3-0.2-0.5-0.3c0,0,0,0,0,0
		c-1.9-1.3-3.4-4.1-3.8-7.5l0-0.1c0-0.3-0.1-0.6-0.1-0.9c0-0.3,0-0.6,0-0.9c0-0.3,0-0.7,0-1c0-0.3,0-0.6,0.1-0.9l0-0.2
		c0-0.2,0.1-0.5,0.1-0.7c0-0.1,0-0.2,0-0.3c0-0.2,0.1-0.4,0.1-0.6c0-0.2,0.1-0.3,0.1-0.5c0.1-0.2,0.1-0.4,0.2-0.6
		c0-0.1,0.1-0.2,0.1-0.2c0.1-0.2,0.1-0.4,0.2-0.6l0.1-0.3c0.1-0.2,0.2-0.3,0.2-0.5c0,0,0,0,0-0.1l0.1-0.2c0.1-0.2,0.3-0.5,0.4-0.7
		c0.1-0.2,0.3-0.4,0.4-0.6l0.1-0.1c0.1-0.1,0.1-0.1,0.2-0.2c0,0,0,0,0,0c0-0.1,0.1-0.1,0.1-0.2c0.1-0.1,0.2-0.2,0.3-0.3
		c0.1-0.1,0.2-0.2,0.2-0.2c0.1-0.1,0.1-0.1,0.2-0.2c0.1-0.1,0.2-0.2,0.3-0.3l0.2-0.1c0.1-0.1,0.3-0.2,0.4-0.2c0.1,0,0.1,0,0.2-0.1
		c0.1,0,0.1-0.1,0.2-0.1c0,0,0.1,0,0.1-0.1l0.1,0c0.2,0,0.3-0.1,0.5-0.1c0.2,0,0.4,0,0.6,0h0C309.3,239.6,310.8,240.7,311.9,242.6"
		/>
	<path class="st0" d="M302.2,240.2c-0.1,0.1-0.2,0.3-0.3,0.4c0,0,0,0,0,0c0,0.1-0.1,0.1-0.1,0.2c0,0,0,0,0,0
		c-0.2,0.2-0.3,0.5-0.5,0.7c0,0,0,0,0,0h0c-1.2,1.9-1.9,4.4-2.1,7.1c0,0.4,0,0.7,0,1c0,0.3,0,0.7,0,1l0,0.1c0,0,0,0,0,0
		c0,0.1,0,0.2,0,0.4c0,0.2,0,0.4,0,0.5l0,0.1c0,0.1,0,0.2,0,0.3c0,0.2,0.1,0.4,0.1,0.6l0,0.2c0,0,0,0,0,0.1c0,0.1,0,0.2,0.1,0.3
		c0,0.2,0.1,0.4,0.1,0.6l0.1,0.2c0,0,0,0.1,0,0.1c0,0.2,0.1,0.4,0.1,0.5c0,0.1,0.1,0.2,0.1,0.3l0,0c0,0,0,0,0,0l0,0.1
		c0.1,0.2,0.1,0.3,0.2,0.5c0,0.1,0.1,0.2,0.1,0.4c0,0,0,0.1,0,0.1c0,0.1,0.1,0.2,0.1,0.3c0,0.1,0.1,0.2,0.1,0.2
		c0.1,0.3,0.3,0.6,0.4,0.9l0.1,0.1c0.2,0.3,0.3,0.5,0.4,0.7c0,0.1,0.1,0.1,0.1,0.2l0.1,0.1c0.1,0.2,0.2,0.3,0.4,0.5
		c0.1,0.1,0.1,0.2,0.2,0.2c0.2,0.2,0.3,0.3,0.4,0.4c0.1,0.1,0.1,0.1,0.2,0.2l-10.2,0l-5.9-9.8l5.9-10.5l10.2,0
		c-0.1,0.1-0.1,0.1-0.2,0.2c0,0-0.1,0.1-0.1,0.1C302.4,240,302.3,240,302.2,240.2C302.2,240.2,302.2,240.2,302.2,240.2"/>
	<path class="st0" d="M244,296c-1,0-2.2-0.2-3.4-0.5c-1.3-0.4-2.5-0.9-3.7-1.6c-3.3-2-5.6-4.9-6-7.7c-0.2-1.2,0.1-2.3,0.8-3.1
		c0,0,0,0,0,0c0.1-0.1,0.3-0.3,0.4-0.4c0.1-0.1,0.2-0.1,0.3-0.2c0.1-0.1,0.1-0.1,0.2-0.2c0.2-0.1,0.3-0.2,0.5-0.3c0,0,0,0,0,0
		c2.1-1,5.3-0.7,8.4,0.7l0.1,0.1c0.3,0.1,0.6,0.3,0.9,0.4c0.3,0.1,0.5,0.3,0.8,0.5c0.3,0.2,0.6,0.4,0.9,0.6c0.3,0.2,0.5,0.4,0.7,0.5
		l0.2,0.1c0.2,0.1,0.4,0.3,0.5,0.5c0.1,0.1,0.1,0.1,0.2,0.2c0.1,0.1,0.3,0.3,0.4,0.4c0.1,0.1,0.2,0.2,0.3,0.3
		c0.1,0.1,0.3,0.3,0.4,0.4c0.1,0.1,0.1,0.1,0.2,0.2c0.1,0.2,0.3,0.3,0.4,0.5l0.2,0.2c0.1,0.2,0.2,0.3,0.3,0.5l0,0.1l0.1,0.2
		c0.1,0.2,0.3,0.5,0.4,0.7c0.1,0.2,0.2,0.4,0.3,0.7l0.1,0.1c0,0.1,0.1,0.2,0.1,0.2c0,0,0,0,0,0c0,0.1,0,0.1,0.1,0.2
		c0,0.2,0.1,0.3,0.1,0.4c0,0.2,0.1,0.2,0.1,0.3c0,0.1,0,0.2,0,0.2c0,0.2,0,0.3,0,0.4l0,0.2c0,0.2,0,0.3,0,0.5c0,0.1,0,0.1,0,0.2
		c0,0.1,0,0.2,0,0.2c0,0.1,0,0.1,0,0.2l0,0.1c0,0.2-0.1,0.3-0.2,0.5c-0.1,0.2-0.2,0.3-0.3,0.5l0,0C247.9,295.3,246.2,296.1,244,296"
		/>
	<path class="st0" d="M251.1,288.9c0-0.2-0.1-0.3-0.2-0.5c0,0,0,0,0,0c0-0.1,0-0.1-0.1-0.2c0,0,0,0,0,0c-0.1-0.3-0.2-0.5-0.3-0.8v0
		c0,0,0,0,0,0c-1-2.1-2.8-4-5-5.5c-0.3-0.2-0.6-0.4-0.9-0.6c-0.3-0.2-0.6-0.3-0.9-0.5l-0.1,0c0,0,0,0,0,0c-0.1-0.1-0.2-0.1-0.3-0.2
		c-0.2-0.1-0.3-0.2-0.5-0.2l-0.1,0c-0.1,0-0.2-0.1-0.2-0.1c-0.2-0.1-0.4-0.2-0.6-0.2l-0.2-0.1c0,0,0,0-0.1,0c-0.1,0-0.2-0.1-0.3-0.1
		c-0.2-0.1-0.4-0.1-0.5-0.2l-0.2-0.1c0,0-0.1,0-0.1,0c-0.2-0.1-0.4-0.1-0.5-0.2c-0.1,0-0.2-0.1-0.3-0.1l0,0c0,0,0,0,0,0l-0.1,0
		c-0.2,0-0.3-0.1-0.5-0.1c-0.1,0-0.3,0-0.4-0.1c0,0-0.1,0-0.1,0c-0.1,0-0.2,0-0.3-0.1c-0.1,0-0.2,0-0.2,0c-0.3,0-0.7-0.1-1-0.1
		l-0.1,0c-0.3,0-0.6,0-0.8,0c-0.1,0-0.2,0-0.2,0l-0.1,0c-0.2,0-0.4,0-0.6,0.1c-0.1,0-0.2,0-0.3,0.1c-0.2,0-0.4,0.1-0.6,0.1
		c-0.1,0-0.2,0.1-0.3,0.1l5.3-8.7l11.4,0.1l5.9,10.5l-5.3,8.7c0-0.1,0-0.2-0.1-0.3c0-0.1,0-0.1,0-0.2c0-0.1-0.1-0.2-0.1-0.4
		C251.1,289,251.1,288.9,251.1,288.9"/>
	<polygon class="st0" points="271.4,301.2 243.5,301.1 239.2,309.1 236.2,314.7 243.7,314.6 243.7,314.6 286.4,314.7 290.7,307.3 
		259.9,254.6 198.9,254.6 195,261.3 195.7,262.6 195.7,262.6 220,305.3 228,292.2 213.9,268.1 252.1,268.1 	"/>
	<g>
		<g>
			<path class="st0" d="M388.6,281.1v2.3h-19.5v5.2c0,4.1-0.3,10.3-2.7,14.3c-0.4-0.4-1.5-1.2-2.1-1.4c2.1-3.7,2.3-9.1,2.3-12.9
				v-7.5h10.1c-0.3-0.7-0.6-1.4-1-2l2.4-0.6c0.5,0.8,1,1.8,1.3,2.6H388.6z M381.4,296.8h7.2v2.2h-7.2v3.7H379v-3.7h-9.1v-2.2h9.1
				v-2.6h-4.3c-1.3,0-2.3,0.1-2.5,0.4c-0.1-0.5-0.6-1.7-0.8-2.3c0.5-0.1,0.9-0.7,1.5-1.5c0.2-0.4,0.7-1.2,1.3-2.3h-3.5v-2.2h4.5
				c0.3-0.8,0.7-1.7,0.9-2.5l2.6,0.8c-0.2,0.5-0.4,1.1-0.7,1.7h9.7v2.2h-10.9c-0.7,1.3-1.4,2.5-2.1,3.6h4.4v-2.5h2.4v2.5h5.5l0,2.2
				h-5.5V296.8z"/>
		</g>
		<g>
			<path class="st0" d="M440.2,296.8c0,1.3-0.3,2-1.2,2.4c-0.9,0.4-2.3,0.5-4.4,0.4c-0.1-0.7-0.5-1.8-0.8-2.5c1.5,0.1,2.9,0.1,3.3,0
				c0.4,0,0.6-0.1,0.6-0.5V289h-5.7v13.8h-2.5V289h-5.4v10.8h-2.5v-13.2h7.9v-3.9c-3.2,0.2-6.4,0.3-9.3,0.3c0-0.7-0.3-1.6-0.5-2.2
				c7.3-0.1,16-0.7,21.3-1.5l0.9,2.3c-2.7,0.4-6.2,0.8-9.8,1v4.1h8.3V296.8z"/>
		</g>
		<g>
			<path class="st0" d="M481.3,294.9c-0.5-0.7-1.5-1.9-2.4-3v10.8h-2.4v-10.2c-1.1,1.1-2.2,2-3.4,2.7c-0.2-0.7-0.7-2-1-2.4
				c2.8-1.6,5.6-4.5,7.3-7.5h-6.5V283h5c-0.5-1-1.5-2.5-2.4-3.5l1.9-1.1c1,1,2,2.4,2.5,3.4L478,283h2.7l0.4-0.1l1.3,0.9
				c-0.8,2-1.9,3.8-3.1,5.5c1.1,0.9,3,2.9,3.5,3.5L481.3,294.9z M496.7,299.4v2.4h-15.1v-2.4h6.7V289h-5.5v-2.3h5.5v-8h2.5v8h5.3
				v2.3h-5.3v10.5H496.7z"/>
		</g>
		<g>
			<path class="st0" d="M550.4,299.7v2.3h-22.5v-22.2h21.9v2.3h-19.5v17.5H550.4z M545.7,298.1c-1.3-1.6-3.2-3.5-5.4-5.6
				c-2.2,2.2-4.5,4.1-6.9,5.6c-0.4-0.5-1.4-1.4-1.9-1.8c2.5-1.4,4.9-3.2,7.1-5.4c-2.1-1.9-4.2-3.7-6.2-5.3l1.7-1.5
				c1.9,1.5,4,3.2,6.1,5c1.7-1.8,3.2-3.8,4.4-5.9l2.3,0.9c-1.4,2.3-3,4.5-4.9,6.5c2.3,2,4.3,4,5.7,5.6L545.7,298.1z"/>
		</g>
		<g>
			<path class="st0" d="M587.7,296.8c0.1,0.6,0.4,1.4,0.7,1.8c-4,2.9-4.7,3.4-5.1,4l0-0.1v0.1c-0.2-0.5-0.8-1.3-1.2-1.6
				c0.5-0.4,1.3-1.3,1.3-2.6v-4.8h-2.5v-2.1h2.5v-3.3h-1.4v-1.9c-0.2,0.3-0.4,0.5-0.5,0.7c-0.2-0.5-0.8-1.7-1.2-2.2
				c1.2-1.6,2.2-3.9,2.7-6.2l2.1,0.6c-0.2,0.7-0.4,1.5-0.7,2.2h3.7v2.1h-4.5c-0.4,1-0.9,1.8-1.4,2.6h5.4v2.1h-1.9v3.3h2.6v2.1h-2.6
				v4.7L587.7,296.8z M592.2,297.9c0.5,0.2,0.9,0.6,1.7,1.1c1.3,0.8,2.9,1,4.9,1c1.7,0,4.4-0.1,6.1-0.3c-0.2,0.7-0.6,1.8-0.6,2.5
				c-1.3,0.1-3.9,0.2-5.6,0.2c-2.2,0-3.8-0.4-5.3-1.2c-0.9-0.6-1.7-1.2-2.1-1.2c-0.7,0-1.7,1.5-2.6,2.8l-1.6-2.3
				c0.9-1,1.9-1.8,2.8-2.3v-8.5h-1.8v-2.2h4V297.9z M590.1,285c-0.3-1.3-1.1-3.4-1.8-5l2-0.7c0.7,1.6,1.5,3.6,1.9,4.9L590.1,285z
				 M595.9,289.8c-1,0-1.8,0.2-2,0.4c-0.1-0.5-0.5-1.6-0.8-2.1c0.4-0.1,0.8-0.8,1.2-1.7c0.2-0.4,0.6-1.5,1-2.8h-2.5v-2.2h3.1
				c0.2-0.9,0.5-1.9,0.6-2.9l2.4,0.5c-0.2,0.8-0.4,1.6-0.7,2.4h5.8v2.2h-6.6c-0.6,1.5-1.2,3-1.8,4.2h2.2v-3h2.3v3h3.4v2.1h-3.4v3.1
				h4.1v2.1h-4.1v4.1h-2.3V295h-5.2v-2.1h5.2v-3.1H595.9z"/>
		</g>
	</g>
	<g>
		<g>
			<path class="st0" d="M371.2,270.3c-2,0-3.7-0.7-5.1-2.1c-1.9-1.9-1.9-4-1.9-7.7c0-3.7,0-5.8,1.9-7.7c1.3-1.3,3.1-2.1,5.1-2.1
				c3.5,0,6.2,2.1,6.9,5.9h-3c-0.5-1.9-1.8-3.3-3.9-3.3c-1.1,0-2.2,0.4-2.8,1.2c-0.9,1-1.2,2.1-1.2,6c0,3.9,0.2,5,1.2,6
				c0.7,0.7,1.7,1.2,2.8,1.2c2.1,0,3.5-1.4,3.9-3.3h2.9C377.4,268.2,374.7,270.3,371.2,270.3z"/>
		</g>
		<g>
			<path class="st0" d="M393.6,268.3c-1.3,1.3-3,2.1-5.1,2.1c-2.1,0-3.7-0.7-5.1-2.1c-1.9-1.9-1.9-4-1.9-7.7c0-3.7,0-5.8,1.9-7.7
				c1.3-1.3,3-2.1,5.1-2.1c2.1,0,3.8,0.7,5.1,2.1c1.9,1.9,1.8,4,1.8,7.7C395.4,264.2,395.5,266.4,393.6,268.3z M391.4,254.6
				c-0.7-0.7-1.7-1.2-2.9-1.2c-1.1,0-2.2,0.5-2.9,1.2c-0.9,1-1.1,2.1-1.1,6c0,3.9,0.2,4.9,1.1,6c0.7,0.7,1.7,1.2,2.9,1.2
				c1.1,0,2.2-0.5,2.9-1.2c0.9-1,1.1-2.1,1.1-6C392.5,256.7,392.3,255.6,391.4,254.6z"/>
		</g>
		<g>
			<path class="st0" d="M414.1,270.2v-12.9l-4.4,9.4h-2.2l-4.5-9.4v12.9h-2.9v-19.3h2.9l5.6,12l5.5-12h2.9v19.3H414.1z"/>
		</g>
		<g>
			<path class="st0" d="M436.4,270.2v-12.9l-4.4,9.4h-2.2l-4.5-9.4v12.9h-2.9v-19.3h2.9l5.6,12l5.5-12h2.9v19.3H436.4z"/>
		</g>
		<g>
			<path class="st0" d="M451.3,270.3c-3.9,0-6.9-2.7-6.9-6.7v-12.8h2.9v12.6c0,2.6,1.6,4.2,4,4.2c2.4,0,4-1.6,4-4.2v-12.6h2.9v12.8
				C458.2,267.6,455.2,270.3,451.3,270.3z"/>
		</g>
		<g>
			<path class="st0" d="M475.1,270.2l-8.9-13.5v13.5h-2.9v-19.3h2.7l8.9,13.5v-13.5h2.9v19.3H475.1z"/>
		</g>
		<g>
			<path class="st0" d="M483.1,270.2v-19.3h2.9v19.3H483.1z"/>
		</g>
		<g>
			<path class="st0" d="M497.9,253.5v16.6H495v-16.6h-5.3v-2.6h13.5v2.6H497.9z"/>
		</g>
		<g>
			<path class="st0" d="M513.1,262.2v7.9h-2.9v-7.9l-5.8-11.3h3.2l4,8.5l4-8.5h3.2L513.1,262.2z"/>
		</g>
		<g>
			<path class="st0" d="M534.9,270.3c-2,0-3.7-0.7-5.1-2.1c-1.9-1.9-1.9-4-1.9-7.7c0-3.7,0-5.8,1.9-7.7c1.3-1.3,3.1-2.1,5.1-2.1
				c3.5,0,6.2,2.1,6.9,5.9h-3c-0.5-1.9-1.8-3.3-3.9-3.3c-1.1,0-2.2,0.4-2.8,1.2c-0.9,1-1.2,2.1-1.2,6c0,3.9,0.2,5,1.2,6
				c0.7,0.7,1.7,1.2,2.8,1.2c2.1,0,3.5-1.4,3.9-3.3h2.9C541.1,268.2,538.4,270.3,534.9,270.3z"/>
		</g>
		<g>
			<path class="st0" d="M556.7,270.2v-8.4h-7.8v8.4H546v-19.3h2.9v8.2h7.8v-8.2h2.9v19.3H556.7z"/>
		</g>
	</g>
	<g>
		<path class="st0" d="M576.1,270.2l-1.3-3.9h-7.6l-1.3,3.9h-3.1l7.1-19.3h2.4l7.1,19.3H576.1z M571,255.3l-3,8.5h5.9L571,255.3z"/>
	</g>
	<g>
		<path class="st0" d="M582.2,270.2v-19.3h2.9v19.3H582.2z"/>
	</g>
	<g>
		<path class="st0" d="M602.3,270.2l-8.9-13.5v13.5h-2.9v-19.3h2.7l8.9,13.5v-13.5h2.9v19.3H602.3z"/>
	</g>
	<g>
		<path class="st0" d="M533,220.2c0-2,0-3.9-0.1-5.6c-0.1-1.7-0.2-3.4-0.5-4.9c-0.3-1.5-0.7-2.9-1.4-4.2c-0.6-1.3-1.5-2.6-2.7-3.7
			c-1.6-1.6-3.4-2.9-5.5-3.8c-2-0.9-4.4-1.3-7-1.3c-2.6,0-5,0.4-7,1.3c-2.1,0.9-3.9,2.1-5.5,3.8c-1.2,1.2-2,2.4-2.7,3.7
			c-0.6,1.3-1.1,2.7-1.3,4.2c-0.3,1.5-0.4,3.1-0.5,4.9c0,1.7-0.1,3.6-0.1,5.6c0,2,0,3.9,0.1,5.6c0,1.7,0.2,3.4,0.5,4.9
			c0.3,1.5,0.7,2.9,1.3,4.2c0.6,1.3,1.5,2.6,2.7,3.7c1.6,1.6,3.5,2.9,5.5,3.7c2.1,0.9,4.4,1.3,7,1.3c2.6,0,4.9-0.4,7-1.3
			c2-0.9,3.9-2.1,5.5-3.7c1.2-1.2,2.1-2.4,2.7-3.7c0.6-1.3,1.1-2.7,1.4-4.2c0.3-1.5,0.4-3.1,0.5-4.9C533,224,533,222.2,533,220.2
			 M524,220.2c0,2.2,0,4-0.1,5.5c-0.1,1.5-0.2,2.7-0.4,3.6c-0.2,0.9-0.4,1.7-0.7,2.3c-0.3,0.6-0.7,1.1-1.1,1.6
			c-0.6,0.8-1.5,1.4-2.4,1.8c-1,0.4-2.1,0.7-3.3,0.7c-1.2,0-2.4-0.2-3.4-0.7c-1-0.4-1.8-1-2.5-1.8c-0.4-0.5-0.8-1-1.1-1.6
			c-0.3-0.6-0.5-1.4-0.7-2.3c-0.2-0.9-0.3-2.1-0.3-3.6c-0.1-1.5-0.1-3.3-0.1-5.5c0-2.2,0-4,0.1-5.5c0.1-1.5,0.2-2.7,0.3-3.6
			c0.2-0.9,0.4-1.7,0.7-2.3c0.3-0.6,0.6-1.1,1.1-1.6c0.7-0.8,1.5-1.4,2.5-1.8c1-0.4,2.1-0.7,3.4-0.7c1.2,0,2.4,0.2,3.3,0.7
			c1,0.4,1.8,1,2.4,1.8c0.4,0.5,0.8,1,1.1,1.6c0.3,0.6,0.5,1.4,0.7,2.3c0.2,0.9,0.3,2.1,0.4,3.6C523.9,216.1,524,218,524,220.2"/>
	</g>
	<g>
		<path class="st0" d="M605,197.8c0-0.4-0.4-0.8-0.8-0.8h-7.4c-0.4,0-0.8,0.4-0.8,0.8v27.5l-18.2-28.1c-0.1-0.2-0.2-0.2-0.5-0.2
			h-6.9c-0.4,0-0.8,0.4-0.8,0.8v44.7c0,0.4,0.4,0.8,0.8,0.8h7.4c0.4,0,0.8-0.4,0.8-0.8v-27.6l18.2,28.2c0.1,0.2,0.2,0.2,0.5,0.2h6.9
			c0.4,0,0.8-0.4,0.8-0.8V197.8z"/>
	</g>
	<g>
		<path class="st0" d="M555,197.8c0-0.4-0.4-0.8-0.8-0.8h-7.4c-0.4,0-0.8,0.4-0.8,0.8v44.7c0,0.4,0.4,0.8,0.8,0.8h7.4
			c0.4,0,0.8-0.4,0.8-0.8V197.8z"/>
	</g>
	<g>
		<path class="st0" d="M465.9,220.2c0-2.2,0-4.1,0.1-5.5c0.1-1.5,0.2-2.7,0.3-3.6c0.7-4,3.7-6.3,7.6-6.3c2.5,0,4.8,1,6.3,3.1
			c0.6,0.9,1.1,2,1.4,3.3c0,0.1,0.1,0.2,0.3,0.2h8.8c0.1,0,0.2-0.1,0.1-0.2c-1-5.4-3.9-10.3-9-12.7c-2.4-1.1-5-1.7-8-1.7
			c-4.9,0-9.1,1.7-12.5,5.1c-1.9,1.9-3.2,4.3-3.8,6.9c-0.5,2.6-0.8,6.4-0.8,11.5c0,5.1,0.3,8.9,0.8,11.5c0.5,2.7,1.8,5,3.8,7
			c3.4,3.4,7.5,5.1,12.5,5.1c3,0,5.6-0.6,8-1.7c5.1-2.4,8-7.3,9-12.7c0-0.1,0-0.2-0.1-0.2H482c-0.1,0-0.2,0.1-0.3,0.2
			c-0.3,1.2-0.8,2.3-1.4,3.3c-1.5,2.1-3.8,3.1-6.3,3.1c-3.9,0-6.9-2.3-7.6-6.3c-0.2-0.9-0.3-2.1-0.3-3.6
			C465.9,224.2,465.9,222.4,465.9,220.2"/>
	</g>
	<g>
		<path class="st0" d="M373.3,197.8c0-0.4-0.4-0.8-0.8-0.8h-7.4c-0.4,0-0.8,0.4-0.8,0.8v44.7c0,0.4,0.4,0.8,0.8,0.8h7.4
			c0.4,0,0.8-0.4,0.8-0.8v-13.1l6-7.1l12.3,20.8c0.1,0.1,0.2,0.2,0.4,0.2h9c0.4,0,0.5-0.3,0.3-0.6l-16.1-27.3l14.7-17.7
			c0.3-0.4,0.2-0.7-0.3-0.7h-9.9c-0.1,0-0.2,0-0.3,0.1l-16.2,19.4V197.8z"/>
	</g>
	<g>
		<path class="st0" d="M427.6,235.6c-4.2,0-8-3.9-8-8.5v-29.3c0-0.4-0.4-0.8-0.8-0.8h-7.4c-0.4,0-0.8,0.4-0.8,0.8V227
			c0,10.2,7.6,16.7,17,16.7c9.4,0,17-6.5,17-16.7v-29.2c0-0.4-0.4-0.8-0.8-0.8h-7.4c-0.4,0-0.8,0.4-0.8,0.8v29.3
			C435.6,231.7,431.8,235.6,427.6,235.6"/>
	</g>
</g>
</svg>
