<?xml version="1.0" encoding="utf-8"?>
<!-- Generator: Adobe Illustrator 22.0.0, SVG Export Plug-In . SVG Version: 6.00 Build 0)  -->
<svg version="1.1" id="图层_1" xmlns="http://www.w3.org/2000/svg" xmlns:xlink="http://www.w3.org/1999/xlink" x="0px" y="0px"
	 viewBox="0 0 800 500" style="enable-background:new 0 0 800 500;" xml:space="preserve">
<style type="text/css">
	.st0{fill:#41E6AF;}
</style>
<g>
	<polygon class="st0" points="496.5,266.8 471.9,310.4 436.9,250 471.4,189.4 496.2,232.5 524.8,232.5 517.9,220.8 517.9,220.6 
		479,155.5 478.8,155.7 477.6,153.3 463.3,153.3 408.4,250.2 464.2,346.5 478.5,346.5 478.8,346 525,266.8 	"/>
	<polygon class="st0" points="393.4,241.4 449.6,145.3 441.8,131.9 363.9,131.9 362.6,132.1 350.2,131.9 356.9,144.3 363.5,156.8 
		414.4,156.6 379.2,216.8 309.5,216.8 335.2,172.8 326.6,158.8 320.6,148.9 276.3,226.8 275,229.2 282.1,241.4 	"/>
	<path class="st0" d="M342.7,190.1c0.2,0.2,0.4,0.2,0.5,0.4c0.2,0.2,0.2,0.2,0.4,0.4c0.4,0.2,0.5,0.4,0.9,0.5
		c3.8,1.8,9.7,1.3,15.3-1.3h0.2c0.5-0.2,1.1-0.5,1.6-0.7c0.5-0.2,0.9-0.5,1.5-0.9c0.5-0.4,1.1-0.7,1.6-1.1c0.5-0.4,0.9-0.7,1.3-0.9
		l0.4-0.2c0.4-0.2,0.7-0.5,0.9-0.9c0.2-0.2,0.2-0.2,0.4-0.4c0.2-0.2,0.5-0.5,0.7-0.7s0.4-0.4,0.5-0.5s0.5-0.5,0.7-0.7
		s0.2-0.2,0.4-0.4c0.2-0.4,0.5-0.5,0.7-0.9l0.4-0.4c0.2-0.2,0.4-0.5,0.5-0.9c0,0,0,0,0-0.2l0.2-0.4c0.2-0.4,0.5-0.9,0.7-1.3
		c0.2-0.4,0.4-0.7,0.5-1.3l0.2-0.2c0-0.2,0.2-0.4,0.2-0.4c0-0.2,0-0.2,0.2-0.4c0-0.4,0.2-0.5,0.2-0.7c0-0.4,0.2-0.4,0.2-0.5
		s0-0.4,0-0.4c0-0.4,0-0.5,0-0.7v-0.4c0-0.4,0-0.5,0-0.9c0-0.2,0-0.2,0-0.4c0-0.2,0-0.4,0-0.4c0-0.2,0-0.2,0-0.4v-0.2
		c0-0.4-0.2-0.5-0.4-0.9c-0.2-0.4-0.4-0.5-0.5-0.9c-1.6-2.6-4.7-3.8-8.8-3.8c-1.8,0-4,0.4-6.2,0.9c-2.4,0.7-4.6,1.6-6.8,2.9
		c-6,3.6-10.2,8.9-10.9,14.1c-0.4,2.2,0.2,4.2,1.5,5.7C342.2,189.6,342.5,190,342.7,190.1z"/>
	<path class="st0" d="M367.2,191.6c-0.5,0.4-1.1,0.7-1.6,1.1c-0.5,0.4-1.1,0.5-1.6,0.9h-0.2c-0.2,0.2-0.4,0.2-0.5,0.4
		c-0.4,0.2-0.5,0.4-0.9,0.4H362c-0.2,0-0.4,0.2-0.4,0.2c-0.4,0.2-0.7,0.4-1.1,0.4l-0.4,0.2c0,0,0,0-0.2,0s-0.4,0.2-0.5,0.2
		c-0.4,0.2-0.7,0.2-0.9,0.4l-0.4,0.2H358c-0.4,0.2-0.7,0.2-0.9,0.4c-0.2,0-0.4,0.2-0.5,0.2h-0.2c-0.4,0-0.5,0.2-0.9,0.2
		c-0.2,0-0.5,0-0.7,0.2h-0.2c-0.2,0-0.4,0-0.5,0s-0.4,0-0.4,0c-0.5,0-1.3,0.2-1.8,0.2h-0.2c-0.5,0-1.1,0-1.5,0c-0.2,0-0.4,0-0.4,0
		h-0.2c-0.4,0-0.7,0-1.1-0.2c-0.2,0-0.4,0-0.5-0.2c-0.4,0-0.7-0.2-1.1-0.2c-0.2,0-0.4-0.2-0.5-0.2L356,212l20.8-0.2l10.8-19.2
		l-9.7-15.9c0,0.2,0,0.4-0.2,0.5c0,0.2,0,0.2,0,0.4c0,0.2-0.2,0.4-0.2,0.7c-0.2,0.2-0.2,0.4-0.2,0.4c0,0.4-0.2,0.5-0.4,0.9
		c0,0.2,0,0.2-0.2,0.4c-0.2,0.5-0.4,0.9-0.5,1.5C374.5,185.4,371.2,188.9,367.2,191.6z"/>
	<path class="st0" d="M476.8,267c0.4,0.2,0.5,0.4,0.9,0.5c0,0,0.2,0.2,0.4,0.2c0.2,0,0.4,0.2,0.5,0.2c0.4,0,0.7,0.2,1.1,0.2
		c2,0.4,3.8-0.4,5.7-1.8c3.8-3.3,6.2-9.7,6.2-16.6c0-2.6-0.4-4.9-0.9-7.3c-0.5-2.2-1.5-4.2-2.4-5.8c-2-3.5-4.7-5.5-8-5.3
		c-0.4,0-0.7,0-1.1,0s-0.5,0.2-0.9,0.2h-0.2c0,0.2-0.2,0.2-0.2,0.2c-0.2,0-0.2,0.2-0.4,0.2c-0.2,0.2-0.2,0.2-0.4,0.2
		s-0.5,0.2-0.7,0.4l-0.4,0.2c-0.2,0.2-0.4,0.4-0.5,0.5c-0.2,0.2-0.2,0.2-0.4,0.4c0,0-0.2,0.2-0.4,0.4c-0.2,0.2-0.4,0.4-0.5,0.5
		c0,0.2-0.2,0.2-0.2,0.4c-0.2,0.2-0.2,0.2-0.4,0.4l-0.2,0.2c-0.2,0.4-0.5,0.7-0.7,1.1c-0.2,0.4-0.5,0.9-0.7,1.3l-0.2,0.4
		c0,0.2,0,0.2,0,0.2c0,0.4-0.2,0.5-0.4,0.9l-0.2,0.5c-0.2,0.4-0.2,0.7-0.4,1.1c0,0-0.2,0.2-0.2,0.4c-0.2,0.4-0.2,0.7-0.4,1.1
		c0,0.4-0.2,0.5-0.2,0.9s-0.2,0.7-0.2,1.1c0,0.2,0,0.4,0,0.5c0,0.4-0.2,0.9-0.2,1.3v0.4c-0.2,0.5-0.2,1.1-0.2,1.6c0,0.5,0,1.3,0,1.8
		s0,1.1,0,1.6s0.2,1.1,0.2,1.6v0.2C470.6,259.5,473.4,264.6,476.8,267z"/>
	<path class="st0" d="M471.4,230.8h-18.6L442,250l10.8,17.9h18.6c-0.2-0.2-0.2-0.2-0.4-0.4s-0.4-0.4-0.7-0.7c-0.2,0-0.2-0.2-0.4-0.4
		c-0.4-0.4-0.5-0.5-0.7-0.9l-0.2-0.2c0-0.2-0.2-0.2-0.2-0.4c-0.2-0.4-0.4-0.7-0.7-1.3l-0.2-0.2c-0.2-0.5-0.5-1.1-0.7-1.6
		c0,0-0.2-0.2-0.2-0.4c0-0.2-0.2-0.4-0.2-0.5v-0.2c0-0.4-0.2-0.5-0.2-0.7c-0.2-0.4-0.2-0.5-0.4-0.9v-0.2c0-0.2-0.2-0.4-0.2-0.5
		c0-0.2-0.2-0.5-0.2-0.9v-0.2l-0.2-0.4c0-0.4-0.2-0.7-0.2-1.1c-0.2-0.2-0.2-0.4-0.2-0.5s0-0.2,0-0.2v-0.4c0-0.4-0.2-0.7-0.2-1.1
		c0-0.2,0-0.4,0-0.5v-0.2c0-0.2,0-0.5,0-0.9c0-0.4,0-0.5,0-0.7v-0.2c0-0.5,0-1.3,0-1.8c0-0.5,0-1.1,0-1.8c0.4-4.9,1.6-9.5,3.8-13
		c0.4-0.4,0.5-0.9,0.9-1.3c0-0.2,0.2-0.2,0.2-0.4c0.2-0.2,0.4-0.5,0.5-0.7c0.2-0.4,0.4-0.4,0.2-0.7l0.2-0.2
		C471.2,231,471.2,231,471.4,230.8z"/>
	<path class="st0" d="M358.2,333c2.2,0.5,4.4,0.9,6.2,0.9c4,0.2,7.1-1.3,8.8-3.6c0.2-0.4,0.4-0.5,0.5-0.9c0.2-0.4,0.4-0.5,0.4-0.9
		v-0.2c0-0.2,0-0.2,0-0.4c0,0,0-0.2,0-0.4c0-0.2,0-0.2,0-0.4c0-0.4,0-0.5,0-0.9v-0.4c0-0.2,0-0.4,0-0.7c0,0,0-0.2,0-0.4
		c0-0.2-0.2-0.2-0.2-0.5c0-0.2-0.2-0.4-0.2-0.7c-0.2-0.2-0.2-0.2-0.2-0.4c0,0-0.2-0.2-0.2-0.4l-0.2-0.2c-0.2-0.5-0.4-0.9-0.5-1.3
		c-0.2-0.4-0.5-0.9-0.7-1.3l-0.2-0.4v-0.2c-0.2-0.4-0.4-0.5-0.5-0.9l-0.4-0.4c-0.2-0.4-0.5-0.5-0.7-0.9c-0.2-0.2-0.2-0.2-0.4-0.4
		s-0.5-0.5-0.7-0.7c-0.2-0.2-0.4-0.4-0.5-0.5s-0.5-0.5-0.7-0.7c-0.2-0.2-0.2-0.2-0.4-0.4c-0.2-0.4-0.5-0.7-0.9-0.9l-0.4-0.2
		c-0.4-0.2-0.7-0.5-1.3-0.9s-1.1-0.7-1.6-1.1c-0.5-0.4-0.9-0.7-1.5-0.9c-0.5-0.2-1.1-0.5-1.6-0.7l-0.2-0.2
		c-5.7-2.6-11.5-3.1-15.3-1.3c-0.4,0.2-0.5,0.4-0.9,0.5c-0.2,0.2-0.2,0.2-0.4,0.4s-0.4,0.2-0.5,0.4s-0.5,0.5-0.7,0.7
		c-1.3,1.5-1.8,3.5-1.5,5.7c0.7,5.1,4.9,10.4,10.9,14.1C353.6,331.4,355.8,332.3,358.2,333z"/>
	<path class="st0" d="M377.9,322.8l9.7-15.9l-10.8-19.2l-20.8-0.2l-9.7,15.9c0.2,0,0.4-0.2,0.5-0.2c0.4,0,0.7-0.2,1.1-0.2
		c0.2-0.2,0.4-0.2,0.5-0.2c0.4-0.2,0.7-0.2,1.1-0.2h0.2c0,0,0.2,0,0.4,0c0.4,0,0.9,0,1.5,0h0.2c0.5,0,1.3,0.2,1.8,0.2
		c0,0,0.2,0,0.4,0c0.2,0.2,0.4,0.2,0.5,0.2h0.2c0.2,0.2,0.5,0.2,0.7,0.2c0.4,0,0.5,0.2,0.9,0.2h0.2c0.2,0,0.4,0.2,0.5,0.2
		c0.2,0.2,0.5,0.2,0.9,0.4h0.2l0.4,0.2c0.2,0.2,0.5,0.2,0.9,0.4c0.2,0,0.4,0.2,0.5,0.2s0.2,0,0.2,0l0.4,0.2c0.4,0,0.7,0.2,1.1,0.4
		c0,0,0.2,0.2,0.4,0.2h0.2c0.4,0,0.5,0.2,0.9,0.4c0.2,0.2,0.4,0.2,0.5,0.4h0.2c0.5,0.4,1.1,0.5,1.6,0.9c0.5,0.4,1.1,0.7,1.6,1.1
		c4,2.7,7.3,6.2,9.1,10c0.2,0.5,0.4,0.9,0.5,1.5c0.2,0.2,0.2,0.2,0.2,0.4c0.2,0.4,0.4,0.5,0.4,0.9c0,0,0,0.2,0.2,0.2
		c0,0.4,0.2,0.5,0.2,0.7s0,0.2,0,0.4C377.9,322.4,377.9,322.6,377.9,322.8z"/>
	<polygon class="st0" points="282.1,258.4 275,270.6 276.3,273 320.6,350.9 335.2,327 309.5,283 379.2,283 414.4,343.4 363.5,343.2 
		355.7,357.8 350.2,368.1 363.9,367.9 441.8,368.1 449.6,354.6 393.4,258.4 	"/>
</g>
</svg>
