<svg width="22" height="22" viewBox="0 0 22 22" fill="none" xmlns="http://www.w3.org/2000/svg">
<path fillRule="evenodd" clipRule="evenodd" d="M10.9986 0.388184C4.9508 0.388184 0.046875 5.2585 0.046875 11.2677C0.046875 16.0734 3.18473 20.1509 7.53762 21.5896C8.08524 21.6896 8.28512 21.3537 8.28512 21.0654C8.28512 20.8071 8.27554 20.123 8.27006 19.2153C5.22324 19.8728 4.58048 17.7569 4.58048 17.7569C4.08283 16.5004 3.36476 16.1659 3.36476 16.1659C2.37015 15.4907 3.44006 15.5043 3.44006 15.5043C4.53872 15.5811 5.11714 16.6255 5.11714 16.6255C6.09464 18.2879 7.68068 17.8079 8.30497 17.5291C8.40423 16.8261 8.68762 16.3467 9.00045 16.0748C6.56833 15.8001 4.01164 14.8672 4.01164 10.6986C4.01164 9.51076 4.4381 8.53982 5.13905 7.77898C5.0261 7.50361 4.6503 6.39805 5.24583 4.90017C5.24583 4.90017 6.16583 4.60781 8.25774 6.01525C9.13188 5.77388 10.0683 5.65353 10.9999 5.64877C11.9302 5.65353 12.8673 5.77388 13.7421 6.01525C15.8327 4.60781 16.7506 4.90017 16.7506 4.90017C17.3482 6.39805 16.9724 7.50361 16.8595 7.77898C17.5618 8.53982 17.9855 9.51076 17.9855 10.6986C17.9855 14.8774 15.4247 15.7974 12.9851 16.0666C13.378 16.4025 13.7285 17.0661 13.7285 18.0812C13.7285 19.5356 13.7148 20.7085 13.7148 21.0654C13.7148 21.3564 13.9119 21.695 14.4677 21.5883C18.8165 20.1468 21.9516 16.072 21.9516 11.2677C21.9516 5.2585 17.0477 0.388184 10.9986 0.388184Z" fill="white"/>
</svg>
