<?xml version="1.0" encoding="UTF-8"?>
<svg width="36px" height="36px" viewBox="0 0 36 36" version="1.1" xmlns="http://www.w3.org/2000/svg" xmlns:xlink="http://www.w3.org/1999/xlink">
    <title>Bridge</title>
    <g id="Bridge" stroke="none" stroke-width="1" fill="none" fill-rule="evenodd">
        <path d="M18,4 C25.7319865,4 32,10.2680135 32,18 C32,25.7319865 25.7319865,32 18,32 C10.2680135,32 4,25.7319865 4,18 C4,10.2680135 10.2680135,4 18,4 Z M20.0157614,16.028967 C19.3448349,16.0826411 18.8408946,16.6700745 18.8945687,17.3410011 C18.9094782,17.513951 18.9571885,17.6719915 19.0317359,17.8151225 C19.371672,18.5814696 19.2225772,19.514803 18.5963791,20.143983 L15.3162939,23.4300319 C14.5022364,24.2440895 13.1782748,24.2440895 12.3642173,23.4300319 C11.5501597,22.6159744 11.5501597,21.2920128 12.3642173,20.4779553 L13.5867945,19.2553781 L13.5778488,19.2464324 C13.8611289,19.0019169 14.0251331,18.62918 13.9953142,18.229606 C13.94164,17.5586794 13.3542066,17.0547391 12.6832801,17.1084132 C12.3612354,17.1322684 12.0809372,17.2813632 11.8781683,17.5020234 L11.8751864,17.4990415 L10.628754,18.7454739 C8.85750799,20.5167199 8.85750799,23.3853035 10.628754,25.1565495 C12.4,26.9277955 15.2685836,26.9277955 17.0398296,25.1565495 L20.3288605,21.8675186 C21.7064963,20.486901 22.0046858,18.4443024 21.2353568,16.7684771 L21.2115016,16.714803 L21.2115016,16.714803 C21.2085197,16.7118211 21.2085197,16.7088392 21.2055378,16.7028754 C20.9908413,16.2705005 20.5286475,15.9902023 20.0157614,16.028967 Z M19.1331203,10.5124601 L15.8440895,13.8014909 C14.4664537,15.1791267 14.1682641,17.2217252 14.9346113,18.8975506 L14.9584665,18.9512247 L14.9584665,18.9512247 C14.9614483,18.9542066 14.9614483,18.9571885 14.9644302,18.9631523 C15.1791267,19.3955272 15.6413206,19.6758253 16.1542066,19.6370607 C16.8251331,19.5833866 17.3290735,18.9959531 17.2753994,18.3250266 C17.2604899,18.1520767 17.2127796,17.9940362 17.1382322,17.8509052 C16.7982961,17.084558 16.9473908,16.1512247 17.5735889,15.5220447 L20.856656,12.2389776 C21.6707135,11.4249201 22.9946752,11.4249201 23.8087327,12.2389776 C24.6227902,13.0530351 24.6227902,14.3769968 23.8087327,15.1910543 L22.5861555,16.4136315 L22.5951012,16.4225772 C22.3118211,16.6670927 22.1478168,17.0398296 22.1776358,17.4394036 C22.2313099,18.1103301 22.8187433,18.6142705 23.4896699,18.5605964 C23.8117146,18.5367412 24.0920128,18.3876464 24.2947817,18.1669862 L24.2977636,18.1699681 L25.544196,16.9235357 C27.3124601,15.1522897 27.3124601,12.2807242 25.544196,10.5124601 C23.7729499,8.74121406 20.9043663,8.74121406 19.1331203,10.5124601 Z" id="形状结合" fill="#49FFA1" fill-rule="nonzero"></path>
    </g>
</svg>