<svg width="64" height="64" viewBox="0 0 64 64" fill="none" xmlns="http://www.w3.org/2000/svg">
<g clipPath="url(#clip0_8049_21455)">
<path fill-rule="evenodd" clip-rule="evenodd" d="M13.156 31.972L31.972 50.788L50.788 31.972L31.972 13.156L13.156 31.972ZM26.708 31.972C26.708 29.06 29.06 26.708 31.972 26.708C34.884 26.708 37.124 29.06 37.236 31.972C37.236 34.884 34.884 37.236 31.972 37.236C29.06 37.236 26.708 34.884 26.708 31.972ZM5.092 34.66C3.636 33.204 3.636 30.74 5.092 29.284L29.284 5.092C30.74 3.636 33.204 3.636 34.66 5.092L58.852 29.284C60.308 30.74 60.308 33.204 58.852 34.66L34.66 58.852C33.204 60.308 30.74 60.308 29.284 58.852L5.092 34.66ZM164.244 28.836C164.356 29.732 164.356 30.852 164.356 31.972C164.356 33.092 164.356 34.1 164.244 35.108C164.244 36.116 164.132 37.012 163.908 37.908C163.684 38.804 163.46 39.588 163.124 40.372C162.788 41.156 162.228 41.828 161.556 42.5C160.66 43.396 159.54 44.18 158.42 44.628C157.188 45.076 155.956 45.412 154.388 45.412C152.82 45.412 151.588 45.076 150.356 44.628C149.124 44.18 148.116 43.396 147.22 42.5C146.548 41.828 146.1 41.156 145.652 40.372C145.295 39.748 145.152 39.1241 144.995 38.4437C144.955 38.2692 144.914 38.0909 144.868 37.908C144.715 37.2946 144.666 36.6811 144.615 36.0317C144.591 35.7326 144.567 35.4259 144.532 35.108C144.42 34.1 144.42 33.092 144.42 31.972C144.42 30.852 144.42 29.844 144.532 28.836C144.567 28.5181 144.591 28.2114 144.615 27.9123C144.666 27.263 144.715 26.6495 144.868 26.036C145.092 25.14 145.316 24.356 145.652 23.572C145.988 22.788 146.548 22.116 147.22 21.444C148.116 20.548 149.124 19.764 150.356 19.316C151.588 18.868 152.82 18.532 154.388 18.532C155.956 18.532 157.188 18.868 158.42 19.316C159.652 19.764 160.66 20.548 161.556 21.444C162.228 22.116 162.788 22.788 163.124 23.572C163.46 24.356 163.684 25.14 163.908 26.036C164.061 26.6494 164.11 27.2628 164.161 27.9122V27.9125C164.185 28.2115 164.209 28.5182 164.244 28.836ZM159.092 35.108C159.204 34.324 159.204 33.204 159.204 31.972C159.204 30.74 159.204 29.62 159.092 28.836C159.092 28.052 158.98 27.38 158.868 26.82C158.868 26.26 158.756 25.812 158.532 25.476C158.42 25.14 158.308 24.916 157.972 24.58C157.601 24.2089 157.23 23.9915 156.795 23.7368C156.705 23.684 156.612 23.6297 156.516 23.572C155.956 23.348 155.284 23.236 154.612 23.236C153.94 23.236 153.268 23.348 152.708 23.572C152.148 23.796 151.588 24.132 151.252 24.58C151.116 24.7156 151.022 24.8924 150.919 25.0853C150.851 25.211 150.78 25.3434 150.692 25.476C150.58 25.812 150.468 26.26 150.356 26.82C150.294 27.0677 150.266 27.4181 150.235 27.8144V27.8147C150.21 28.1351 150.182 28.4855 150.132 28.836C150.02 29.62 150.02 30.74 150.02 31.972C150.02 33.204 150.02 34.324 150.132 35.108C150.132 35.892 150.244 36.564 150.356 37.124C150.356 37.684 150.468 38.132 150.692 38.468C150.804 38.804 150.916 39.028 151.252 39.364C151.623 39.7352 151.995 39.9526 152.429 40.2072C152.519 40.26 152.612 40.3144 152.708 40.372C153.268 40.596 153.94 40.708 154.612 40.708C155.284 40.708 155.956 40.708 156.516 40.372C157.076 40.148 157.636 39.812 157.972 39.364C158.196 39.14 158.42 38.804 158.532 38.468C158.644 38.132 158.756 37.684 158.868 37.124C158.93 36.8763 158.958 36.5259 158.989 36.1295V36.1289C159.014 35.8086 159.042 35.4583 159.092 35.108ZM198.964 18.756C199.188 18.756 199.412 18.868 199.412 19.204V44.516C199.412 44.74 199.3 44.964 198.964 44.964H195.044C194.82 44.964 194.82 44.964 194.708 44.852L184.404 28.836V44.516C184.404 44.74 184.292 44.964 183.956 44.964H179.7C179.476 44.964 179.252 44.852 179.252 44.516V19.204C179.252 18.98 179.476 18.756 179.7 18.756H183.62C183.844 18.756 183.844 18.756 183.956 18.868L194.26 34.772V19.204C194.26 18.98 194.372 18.756 194.708 18.756H198.964ZM174.1 19.204C174.1 18.868 173.876 18.756 173.652 18.756H169.396C169.06 18.756 168.948 18.98 168.948 19.204V44.516C168.948 44.852 169.172 44.964 169.396 44.964H173.652C173.988 44.964 174.1 44.74 174.1 44.516V19.204ZM126.388 31.9717V31.972V31.9723C126.388 33.2042 126.388 34.2121 126.5 35.108C126.5 35.892 126.612 36.564 126.724 37.124C127.172 39.364 128.852 40.708 131.092 40.708C132.548 40.596 133.892 40.148 134.676 38.916C135.012 38.468 135.236 37.796 135.46 37.124C135.516 37.124 135.544 37.096 135.572 37.068C135.6 37.04 135.628 37.012 135.684 37.012H140.612C140.724 37.012 140.724 37.012 140.724 37.124C140.164 40.148 138.596 42.948 135.684 44.292C134.34 44.964 132.884 45.3 131.204 45.3C128.404 45.3 126.052 44.292 124.148 42.388C123.028 41.38 122.356 40.036 122.02 38.468C121.796 37.012 121.572 34.884 121.572 31.972C121.572 29.172 121.684 26.932 122.02 25.476C122.356 24.02 123.028 22.676 124.148 21.556C126.052 19.652 128.404 18.644 131.204 18.644C132.772 18.644 134.34 18.98 135.684 19.652C138.596 20.996 140.164 23.796 140.724 26.82C140.724 26.82 140.724 26.932 140.612 26.932H135.684C135.572 26.932 135.46 26.932 135.46 26.82C135.348 26.148 135.012 25.588 134.676 25.028C133.892 23.796 132.548 23.236 131.092 23.236C128.852 23.236 127.06 24.58 126.724 26.82C126.662 27.0677 126.634 27.4181 126.603 27.8145V27.8146C126.578 28.135 126.55 28.4855 126.5 28.836C126.388 29.6199 126.388 30.7398 126.388 31.9717ZM78.788 19.204C78.788 18.868 78.564 18.756 78.34 18.756H74.196C73.86 18.756 73.748 18.98 73.748 19.204V44.516C73.748 44.852 73.972 44.964 74.196 44.964H78.452C78.788 44.964 78.9 44.74 78.9 44.516V37.124L82.26 33.092L89.204 44.964C89.316 45.076 89.428 45.076 89.54 45.076H94.692C94.916 45.076 95.028 44.852 94.916 44.74L85.732 29.284L94.132 19.204C94.356 18.98 94.244 18.868 93.908 18.868H88.308C88.196 18.868 88.196 18.868 88.084 18.98L78.9 29.956L78.788 19.204ZM102.868 35.892C102.868 38.468 104.996 40.708 107.348 40.708C109.812 40.708 111.94 38.58 111.828 35.892V19.204C111.828 18.98 111.94 18.756 112.276 18.756H116.532C116.756 18.756 116.98 18.868 116.98 19.204V35.78C116.98 41.492 112.612 45.188 107.348 45.188C102.084 45.188 97.716 41.604 97.716 35.78V19.204C97.716 18.98 97.828 18.756 98.164 18.756H102.42C102.644 18.756 102.868 18.868 102.868 19.204V35.892ZM243.428 18.868H240.404L235.252 39.924L229.428 18.868H226.964L221.14 39.924L215.988 18.868H212.964L219.684 45.076H222.26L228.084 24.132L233.908 45.076H236.484L243.428 18.868ZM263.812 44.964H260.788L258.66 39.028H247.236L245.108 44.964H242.084L251.716 18.756H254.068L263.812 44.964ZM257.988 36.676L253.172 22.9L248.244 36.676H257.988ZM284.308 44.964V42.5H270.98V18.868H268.18V45.076H284.308V44.964ZM305.028 44.964V42.5H291.7V18.868H288.9V45.076H305.028V44.964ZM325.748 44.964V42.5H312.308V33.092H323.732V30.628H312.308V21.444H325.748V18.98H309.508V45.188H325.748V44.964ZM348.26 21.332V18.868H330.34V21.332H337.956V44.964H340.756V21.332H348.26Z" fill="#1CFF97"/>
</g>
<defs>
<clipPath id="clip0_8049_21455">
<rect width="64" height="64" fill="white"/>
</clipPath>
</defs>
</svg>
