<svg width="64" height="64" viewBox="0 0 64 64" fill="none" xmlns="http://www.w3.org/2000/svg">
<path d="M60 4H4V60H60V4Z" fill="white" fill-opacity="0.01"/>
<path fill-rule="evenodd" clip-rule="evenodd" d="M32.5008 5.82021C32.1805 5.72664 31.8401 5.7266 31.5198 5.82008L10.5097 11.9517C9.7632 12.1695 9.25 12.8539 9.25 13.6316V26.2002C9.25 40.1734 18.1929 52.5783 31.45 56.9942C31.8091 57.1138 32.1972 57.1138 32.5563 56.9942C45.8098 52.5781 54.75 40.1759 54.75 26.206V13.6316C54.75 12.8541 54.237 12.1698 53.4907 11.9518L32.5008 5.82021ZM33.6914 21.4395C33.6914 20.473 32.9079 19.6895 31.9414 19.6895C30.9749 19.6895 30.1914 20.473 30.1914 21.4395V29.0234H22.608C21.6415 29.0234 20.858 29.8069 20.858 30.7734C20.858 31.7399 21.6415 32.5234 22.608 32.5234H30.1914V40.1061C30.1914 41.0726 30.9749 41.8561 31.9414 41.8561C32.9079 41.8561 33.6914 41.0726 33.6914 40.1061V32.5234H41.2747C42.2412 32.5234 43.0247 31.7399 43.0247 30.7734C43.0247 29.8069 42.2412 29.0234 41.2747 29.0234H33.6914V21.4395Z" fill="#1CFF97"/>
</svg>
