<?xml version="1.0" encoding="UTF-8"?>
<svg width="24px" height="24px" viewBox="0 0 24 24" version="1.1" xmlns="http://www.w3.org/2000/svg" xmlns:xlink="http://www.w3.org/1999/xlink">
    <title>Icons/info</title>
    <g id="矿池" stroke="none" stroke-width="1" fill="none" fill-rule="evenodd">
        <g id="KuChain" transform="translate(-416.000000, -470.000000)" fill="#24AE8F">
            <g id="Feedback/Alert/Warning/Light" transform="translate(0.000000, 460.000000)">
                <g id="Icon/error" transform="translate(416.000000, 10.000000)">
                    <path d="M12,22 C17.5228475,22 22,17.5228475 22,12 C22,6.4771525 17.5228475,2 12,2 C6.4771525,2 2,6.4771525 2,12 C2,17.5228475 6.4771525,22 12,22 Z M12,21 C7.02943725,21 3,16.9705627 3,12 C3,7.02943725 7.02943725,3 12,3 C16.9705627,3 21,7.02943725 21,12 C21,16.9705627 16.9705627,21 12,21 Z M13,9 L13,7 L11,7 L11,9 L13,9 Z M13,17 L13,11 L11,11 L11,17 L13,17 Z" id="形状结合"></path>
                </g>
            </g>
        </g>
    </g>
</svg>