<svg width="420" height="120" xmlns="http://www.w3.org/2000/svg">
 <style type="text/css">.st0{fill:#41E6AF;}</style>

 <g>
  <title>background</title>
  <rect fill="none" id="canvas_background" height="122" width="422" y="-1" x="-1"/>
 </g>
 <g>
  <title>Layer 1</title>
  <g id="svg_1">
   <g id="svg_2">
    <g id="svg_3">
     <polygon id="svg_4" points="129.70001220703125,51.19999694824219 126.10000610351562,45.30000305175781 126.10000610351562,45.30000305175781 106.60000610351562,12.5 106.60000610351562,12.5 105.89999389648438,11.399993896484375 98.79998779296875,11.399993896484375 71.10000610351562,60.100006103515625 99.20001220703125,108.60000610351562 106.39999389648438,108.5 106.5,108.20001220703125 129.79998779296875,68.39999389648438 115.39999389648438,68.39999389648438 103,90.39999389648438 85.39999389648438,60 102.79998779296875,29.5 115.20001220703125,51.19999694824219 " class="st0"/>
    </g>
   </g>
   <g id="svg_5">
    <g id="svg_6">
     <polygon id="svg_7" points="21.300003051757812,43.30000305175781 34.30000305175781,21.199996948242188 30,14.100006103515625 30,14.100006103515625 26.899993896484375,9.199996948242188 4.600006103515625,48.399993896484375 4.600006103515625,48.399993896484375 4,49.5 7.5,55.69999694824219 63.600006103515625,55.69999694824219 91.79998779296875,7.3000030517578125 87.89999389648438,0.6000062227249146 48.69999694824219,0.6999970078468323 48.100006103515625,0.6999970078468323 41.80000305175781,0.6000062227249146 45.19999694824219,6.8000030517578125 45.19999694824219,6.8000030517578125 48.5,13.100006103515625 74.20001220703125,13 56.5,43.30000305175781 " class="st0"/>
    </g>
   </g>
   <g id="svg_8">
    <g id="svg_9">
     <path id="svg_10" d="m49,17.7c-1,0 -2,0.2 -3.1,0.5c-1.2,0.3 -2.3,0.9 -3.4,1.5c-3,1.8 -5.1,4.5 -5.5,7c-0.2,1.1 0.1,2.1 0.7,2.9c0,0 0,0 0,0c0.1,0.1 0.2,0.3 0.4,0.4c0.1,0.1 0.2,0.1 0.3,0.2c0.1,0 0.1,0.1 0.2,0.1c0.2,0.1 0.3,0.2 0.5,0.3c0,0 0,0 0,0c1.9,0.9 4.8,0.7 7.7,-0.6l0.1,0c0.3,-0.1 0.5,-0.3 0.8,-0.4c0.2,-0.1 0.5,-0.3 0.7,-0.4c0.3,-0.2 0.5,-0.3 0.8,-0.5c0.2,-0.2 0.5,-0.3 0.7,-0.5l0.2,-0.1c0.2,-0.1 0.3,-0.3 0.5,-0.4c0.1,-0.1 0.1,-0.1 0.2,-0.2c0.1,-0.1 0.3,-0.3 0.4,-0.4c0.1,-0.1 0.2,-0.2 0.3,-0.3c0.1,-0.1 0.3,-0.3 0.4,-0.4c0.1,-0.1 0.1,-0.1 0.2,-0.2c0.1,-0.1 0.2,-0.3 0.3,-0.4l0.1,-0.2c0.1,-0.1 0.2,-0.3 0.3,-0.4c0,0 0,0 0,0l0.1,-0.2c0.1,-0.2 0.3,-0.4 0.4,-0.7c0.1,-0.2 0.2,-0.4 0.3,-0.6l0.1,-0.1c0,-0.1 0.1,-0.2 0.1,-0.2c0,0 0,0 0,0c0,-0.1 0,-0.1 0.1,-0.2c0,-0.1 0.1,-0.3 0.1,-0.4c0,-0.1 0.1,-0.2 0.1,-0.3c0,-0.1 0,-0.1 0,-0.2c0,-0.1 0,-0.3 0,-0.4l0,-0.2c0,-0.2 0,-0.3 0,-0.5c0,-0.1 0,-0.1 0,-0.2c0,-0.1 0,-0.1 0,-0.2c0,0 0,-0.1 0,-0.1l0,-0.1c0,-0.1 -0.1,-0.3 -0.1,-0.4c-0.1,-0.2 -0.1,-0.3 -0.2,-0.5l0,0c-1.2,-1.4 -2.8,-2 -4.8,-2" class="st0"/>
    </g>
   </g>
   <g id="svg_11">
    <g id="svg_12">
     <path id="svg_13" d="m55.5,24.2c0,0.1 -0.1,0.3 -0.1,0.4c0,0 0,0 0,0c0,0.1 0,0.1 -0.1,0.2c0,0 0,0 0,0c-0.1,0.2 -0.2,0.5 -0.3,0.7l0,0c0,0 0,0 0,0c-0.9,1.9 -2.6,3.6 -4.6,5c-0.3,0.2 -0.5,0.4 -0.8,0.5c-0.3,0.2 -0.5,0.3 -0.8,0.5l-0.1,0c0,0 0,0 0,0c-0.1,0.1 -0.2,0.1 -0.3,0.1c-0.2,0.1 -0.3,0.2 -0.5,0.2l-0.1,0c-0.1,0 -0.2,0.1 -0.2,0.1c-0.2,0.1 -0.4,0.2 -0.5,0.2l-0.2,0.1c0,0 0,0 -0.1,0c-0.1,0 -0.2,0.1 -0.2,0.1c-0.2,0.1 -0.3,0.1 -0.5,0.2l-0.2,0.1c0,0 -0.1,0 -0.1,0c-0.2,0.1 -0.3,0.1 -0.5,0.1c-0.1,0 -0.2,0.1 -0.3,0.1l0,0l0,0l0,0c-0.2,0 -0.3,0.1 -0.4,0.1c-0.1,0 -0.2,0 -0.3,0.1c0,0 -0.1,0 -0.1,0c-0.1,0 -0.2,0 -0.3,0c-0.1,0 -0.2,0 -0.2,0c-0.3,0 -0.6,0.1 -0.9,0.1l-0.1,0c-0.3,0 -0.5,0 -0.8,0c-0.1,0 -0.1,0 -0.2,0l-0.1,0c-0.2,0 -0.4,0 -0.6,-0.1c-0.1,0 -0.2,0 -0.3,0c-0.2,0 -0.4,-0.1 -0.5,-0.1c-0.1,0 -0.2,0 -0.3,-0.1l4.9,8l10.5,-0.1l5.4,-9.6l-4.9,-8c0,0.1 0,0.2 -0.1,0.3c0,0.1 0,0.1 0,0.1c-0.1,0.4 -0.2,0.5 -0.2,0.7c0,-0.1 0,0 0,0" class="st0"/>
    </g>
   </g>
   <g id="svg_14">
    <g id="svg_15">
     <path id="svg_16" d="m111.3,53.2c0.5,0.8 0.9,1.8 1.2,2.9c0.3,1.2 0.5,2.4 0.5,3.7c0,3.5 -1.2,6.7 -3.1,8.4c-0.9,0.7 -1.9,1.1 -2.8,0.9l0,0c-0.2,0 -0.4,-0.1 -0.6,-0.1c-0.1,0 -0.2,-0.1 -0.3,-0.1c-0.1,0 -0.2,-0.1 -0.2,-0.1c-0.2,-0.1 -0.3,-0.2 -0.5,-0.3c0,0 0,0 0,0c-1.8,-1.2 -3.1,-3.8 -3.5,-6.9l0,-0.1c0,-0.3 -0.1,-0.6 -0.1,-0.9c0,-0.3 0,-0.6 0,-0.8c0,-0.3 0,-0.6 0,-0.9c0,-0.3 0,-0.6 0.1,-0.8l0,-0.2c0,-0.2 0.1,-0.4 0.1,-0.6c0,-0.1 0,-0.2 0,-0.2c0,-0.2 0.1,-0.4 0.1,-0.5c0,-0.1 0.1,-0.3 0.1,-0.4c0,-0.2 0.1,-0.4 0.2,-0.5c0,-0.1 0,-0.2 0.1,-0.2c0.1,-0.2 0.1,-0.4 0.2,-0.5l0.1,-0.2c0.1,-0.2 0.1,-0.3 0.2,-0.5c0,0 0,0 0,-0.1l0.1,-0.2c0.1,-0.2 0.2,-0.4 0.4,-0.7c0.1,-0.2 0.3,-0.4 0.4,-0.6l0.1,-0.1c0.1,-0.1 0.1,-0.1 0.1,-0.2c0,0 0,0 0,0c0,-0.1 0.1,-0.1 0.1,-0.1c0.1,-0.1 0.2,-0.2 0.3,-0.3c0.1,-0.1 0.2,-0.2 0.2,-0.2c0.1,-0.1 0.1,-0.1 0.2,-0.1c0.1,-0.1 0.2,-0.2 0.3,-0.2l0.1,-0.1c0.1,-0.1 0.3,-0.2 0.4,-0.2c0.1,0 0.1,0 0.1,-0.1c0.1,0 0.1,-0.1 0.2,-0.1c0,0 0.1,0 0.1,0l0.1,0c0.1,0 0.3,-0.1 0.4,-0.1c0.2,0 0.3,0 0.5,0l0,0c1.7,-0.5 3.1,0.6 4.1,2.3" class="st0"/>
    </g>
   </g>
   <g id="svg_17">
    <g id="svg_18">
     <path id="svg_19" d="m102.4,51c-0.1,0.1 -0.2,0.2 -0.3,0.4c0,0 0,0 0,0c0,0 -0.1,0.1 -0.1,0.1c0,0 0,0 0,0c-0.2,0.2 -0.3,0.4 -0.4,0.6c0,0 0,0 0,0l0,0c-1.1,1.8 -1.8,4.1 -1.9,6.5c0,0.3 0,0.7 0,1c0,0.3 0,0.6 0,0.9l0,0.1c0,0 0,0 0,0c0,0.1 0,0.2 0,0.3c0,0.2 0,0.3 0,0.5l0,0.1c0,0.1 0,0.2 0,0.2c0,0.2 0.1,0.4 0.1,0.6l0,0.2c0,0 0,0 0,0.1c0,0.1 0,0.2 0.1,0.3c0,0.2 0.1,0.3 0.1,0.5l0.1,0.2c0,0 0,0.1 0,0.1c0,0.2 0.1,0.3 0.1,0.5c0,0.1 0.1,0.2 0.1,0.3l0,0l0,0l0,0c0.1,0.2 0.1,0.3 0.1,0.4c0,0.1 0.1,0.2 0.1,0.3c0,0 0,0.1 0,0.1c0,0.1 0.1,0.2 0.1,0.3c0,0.1 0.1,0.2 0.1,0.2c0.1,0.3 0.3,0.5 0.4,0.8l0.1,0.1c0.1,0.2 0.3,0.5 0.4,0.6c0,0.1 0.1,0.1 0.1,0.2l0,0.1c0.1,0.2 0.2,0.3 0.3,0.4c0.1,0.1 0.1,0.1 0.2,0.2c0.2,0.2 0.3,0.3 0.4,0.4c0.1,0.1 0.1,0.1 0.2,0.2l-9.3,0l-5.4,-9l5.4,-9.6l9.3,0c-0.1,0.1 -0.1,0.1 -0.2,0.2c0,0 -0.1,0.1 -0.1,0.1c0.1,0.3 0,0.4 -0.1,0.5c0,0 0,0 0,0" class="st0"/>
    </g>
   </g>
   <g id="svg_20">
    <g id="svg_21">
     <path id="svg_22" d="m49,102.3c-1,0 -2,-0.2 -3.1,-0.5c-1.2,-0.3 -2.3,-0.9 -3.4,-1.5c-3,-1.8 -5.1,-4.5 -5.5,-7c-0.2,-1.1 0.1,-2.1 0.7,-2.9c0,0 0,0 0,0c0.1,-0.1 0.2,-0.3 0.4,-0.4c0.1,-0.1 0.2,-0.1 0.3,-0.2c0.1,0 0.1,-0.1 0.2,-0.1c0.2,-0.1 0.3,-0.2 0.5,-0.3c0,0 0,0 0,0c1.9,-0.9 4.8,-0.7 7.7,0.6l0.1,0c0.3,0.1 0.5,0.3 0.8,0.4c0.2,0.1 0.5,0.3 0.7,0.4c0.3,0.2 0.5,0.3 0.8,0.5c0.2,0.2 0.5,0.3 0.7,0.5l0.2,0.1c0.2,0.1 0.3,0.3 0.5,0.4c0.1,0.1 0.1,0.1 0.2,0.2c0.1,0.1 0.3,0.3 0.4,0.4c0.1,0.1 0.2,0.2 0.3,0.3c0.1,0.1 0.3,0.3 0.4,0.4c0.1,0.1 0.1,0.1 0.2,0.2c0.1,0.1 0.2,0.3 0.3,0.4l0.1,0.2c0.1,0.1 0.2,0.3 0.3,0.4l0,0l0.1,0.2c0.1,0.2 0.3,0.4 0.4,0.7c0.1,0.2 0.2,0.4 0.3,0.6l0.1,0.1c0,0.1 0.1,0.2 0.1,0.2c0,0 0,0 0,0c0,0.1 0,0.1 0.1,0.2c0,0.1 0.1,0.3 0.1,0.4c0,0.1 0.1,0.2 0.1,0.3c0,0.1 0,0.1 0,0.2c0,0.1 0,0.3 0,0.4l0,0.2c0,0.2 0,0.3 0,0.5c0,0.1 0,0.1 0,0.2c0,0.1 0,0.1 0,0.2c0,0 0,0.1 0,0.1l0,0.1c0,0.1 -0.1,0.3 -0.1,0.4c-0.1,0.2 -0.1,0.3 -0.2,0.5l0,0c-1.2,1.3 -2.8,2 -4.8,2" class="st0"/>
    </g>
   </g>
   <g id="svg_23">
    <g id="svg_24">
     <path id="svg_25" d="m55.5,95.7c0,-0.1 -0.1,-0.3 -0.1,-0.4c0,0 0,0 0,0c0,-0.1 0,-0.1 -0.1,-0.2c0,0 0,0 0,0c-0.1,-0.2 -0.2,-0.5 -0.3,-0.7l0,0c0,0 0,0 0,0c-0.9,-1.9 -2.6,-3.6 -4.6,-5c-0.3,-0.2 -0.5,-0.4 -0.8,-0.5c-0.3,-0.2 -0.5,-0.3 -0.8,-0.5l-0.1,0c0,0 0,0 0,0c-0.1,-0.1 -0.2,-0.1 -0.3,-0.2c-0.2,-0.1 -0.3,-0.2 -0.5,-0.2l-0.1,0c-0.1,0 -0.2,-0.1 -0.2,-0.1c-0.2,-0.1 -0.4,-0.2 -0.5,-0.2l-0.2,-0.1c0,0 0,0 -0.1,0c-0.1,0 -0.2,-0.1 -0.2,-0.1c-0.2,-0.1 -0.3,-0.1 -0.5,-0.2l-0.2,-0.1c0,0 -0.1,0 -0.1,0c-0.2,0 -0.3,-0.1 -0.5,-0.1c-0.1,0 -0.2,-0.1 -0.3,-0.1l0,0c0,0 0,0 0,0l0,0c-0.2,0 -0.3,-0.1 -0.4,-0.1c-0.1,0 -0.2,0 -0.3,-0.1c0,0 -0.1,0 -0.1,0c-0.1,0 -0.2,0 -0.3,0c-0.1,0 -0.2,0 -0.2,0c-0.3,0 -0.6,-0.1 -0.9,-0.1l-0.1,0c-0.3,0 -0.5,0 -0.8,0c-0.1,0 -0.1,0 -0.2,0l-0.1,0c-0.2,0 -0.4,0 -0.6,0.1c-0.1,0 -0.2,0 -0.3,0c-0.2,0 -0.4,0.1 -0.5,0.1c-0.1,0 -0.2,0 -0.3,0.1l4.9,-8l10.5,0.1l5.4,9.6l-4.9,8c0,-0.1 0,-0.2 -0.1,-0.3c0,-0.1 0,-0.1 0,-0.1c-0.1,-0.3 -0.2,-0.4 -0.2,-0.6c0,0.1 0,0.1 0,0" class="st0"/>
    </g>
   </g>
   <g id="svg_26">
    <g id="svg_27">
     <polygon id="svg_28" points="74.20001220703125,107 48.5,106.89999389648438 44.600006103515625,114.29998779296875 41.80000305175781,119.39999389648438 48.69999694824219,119.29998779296875 48.69999694824219,119.29998779296875 87.89999389648438,119.39999389648438 91.79998779296875,112.60000610351562 63.600006103515625,64.19999694824219 7.5,64.19999694824219 4,70.39999389648438 4.6999969482421875,71.5 4.600006103515625,71.5 26.899993896484375,110.79998779296875 34.30000305175781,98.79998779296875 21.300003051757812,76.60000610351562 56.399993896484375,76.60000610351562 " class="st0"/>
    </g>
   </g>
   <g id="svg_29">
    <path id="svg_30" d="m166.5,99c-2.1,0 -4,-0.8 -5.4,-2.2c-2,-2 -2,-4.3 -2,-8.2c0,-3.9 0,-6.2 2,-8.2c1.4,-1.4 3.2,-2.2 5.4,-2.2c3.7,0 6.6,2.2 7.3,6.3l-3.1,0c-0.5,-2.1 -1.9,-3.5 -4.1,-3.5c-1.2,0 -2.3,0.5 -3,1.2c-1,1.1 -1.2,2.3 -1.2,6.4c0,4.1 0.2,5.3 1.2,6.4c0.7,0.8 1.8,1.2 3,1.2c2.3,0 3.7,-1.4 4.2,-3.5l3.1,0c-0.8,4 -3.7,6.3 -7.4,6.3z" class="st0"/>
    <path id="svg_31" d="m190.2,96.8c-1.4,1.4 -3.2,2.2 -5.4,2.2c-2.2,0 -4,-0.8 -5.4,-2.2c-2,-2 -2,-4.3 -2,-8.2c0,-3.9 0,-6.2 2,-8.2c1.4,-1.4 3.2,-2.2 5.4,-2.2c2.2,0 4,0.8 5.4,2.2c2,2 1.9,4.3 1.9,8.2c0.1,3.9 0.1,6.2 -1.9,8.2zm-2.3,-14.6c-0.7,-0.8 -1.8,-1.3 -3,-1.3c-1.2,0 -2.3,0.5 -3,1.3c-1,1.1 -1.2,2.2 -1.2,6.3c0,4.1 0.2,5.2 1.2,6.3c0.7,0.8 1.8,1.3 3,1.3c1.2,0 2.3,-0.5 3,-1.3c1,-1.1 1.2,-2.2 1.2,-6.3c0,-4 -0.2,-5.2 -1.2,-6.3z" class="st0"/>
    <path id="svg_32" d="m211.9,98.8l0,-13.6l-4.7,9.9l-2.2,0l-4.8,-9.9l0,13.6l-3.1,0l0,-20.4l3.1,0l6,12.7l5.8,-12.7l3.1,0l0,20.4l-3.2,0z" class="st0"/>
    <path id="svg_33" d="m235.6,98.8l0,-13.6l-4.7,9.9l-2.3,0l-4.8,-9.9l0,13.6l-3.1,0l0,-20.4l3.1,0l6,12.7l5.8,-12.7l3.1,0l0,20.4l-3.1,0z" class="st0"/>
    <path id="svg_34" d="m251.3,99c-4.2,0 -7.3,-2.8 -7.3,-7.1l0,-13.5l3.1,0l0,13.4c0,2.7 1.7,4.4 4.2,4.4c2.5,0 4.2,-1.7 4.2,-4.4l0,-13.4l3.1,0l0,13.5c0,4.2 -3.2,7.1 -7.3,7.1z" class="st0"/>
    <path id="svg_35" d="m276.5,98.8l-9.4,-14.4l0,14.4l-3.1,0l0,-20.4l2.8,0l9.4,14.3l0,-14.3l3.1,0l0,20.4l-2.8,0z" class="st0"/>
    <path id="svg_36" d="m285,98.8l0,-20.4l3.1,0l0,20.4l-3.1,0z" class="st0"/>
    <path id="svg_37" d="m300.6,81.1l0,17.6l-3.1,0l0,-17.6l-5.6,0l0,-2.8l14.3,0l0,2.8l-5.6,0z" class="st0"/>
    <path id="svg_38" d="m316.7,90.4l0,8.4l-3.1,0l0,-8.4l-6.1,-12l3.4,0l4.3,9l4.3,-9l3.4,0l-6.2,12z" class="st0"/>
    <path id="svg_39" d="m339.8,99c-2.1,0 -4,-0.8 -5.4,-2.2c-2,-2 -2,-4.3 -2,-8.2c0,-3.9 0,-6.2 2,-8.2c1.4,-1.4 3.2,-2.2 5.4,-2.2c3.7,0 6.6,2.2 7.3,6.3l-3.1,0c-0.5,-2.1 -1.9,-3.5 -4.1,-3.5c-1.2,0 -2.3,0.5 -3,1.2c-1,1.1 -1.2,2.3 -1.2,6.4c0,4.1 0.2,5.3 1.2,6.4c0.7,0.8 1.8,1.2 3,1.2c2.3,0 3.7,-1.4 4.2,-3.5l3.1,0c-0.8,4 -3.7,6.3 -7.4,6.3z" class="st0"/>
    <path id="svg_40" d="m362.9,98.8l0,-8.9l-8.3,0l0,8.9l-3.1,0l0,-20.4l3.1,0l0,8.7l8.3,0l0,-8.7l3.1,0l0,20.4l-3.1,0z" class="st0"/>
   </g>
   <g id="svg_41">
    <path id="svg_42" d="m383.4,98.8l-1.4,-4.1l-8,0l-1.4,4.1l-3.3,0l7.5,-20.4l2.5,0l7.5,20.4l-3.4,0zm-5.4,-15.8l-3.2,9.1l6.3,0l-3.1,-9.1z" class="st0"/>
   </g>
   <g id="svg_43">
    <path id="svg_44" d="m389.9,98.8l0,-20.4l3.1,0l0,20.4l-3.1,0z" class="st0"/>
   </g>
   <g id="svg_45">
    <path id="svg_46" d="m411.2,98.8l-9.4,-14.4l0,14.4l-3.1,0l0,-20.4l2.8,0l9.4,14.3l0,-14.3l3.1,0l0,20.4l-2.8,0z" class="st0"/>
   </g>
   <g id="svg_47">
    <path id="svg_48" d="m337.8,45.8c0,-2.1 0,-4.1 -0.1,-5.9c-0.1,-1.8 -0.2,-3.6 -0.5,-5.2c-0.3,-1.6 -0.8,-3.1 -1.4,-4.5c-0.7,-1.4 -1.6,-2.7 -2.9,-4c-1.7,-1.7 -3.6,-3.1 -5.8,-4c-2.2,-0.9 -4.6,-1.4 -7.4,-1.4c-2.8,0 -5.2,0.5 -7.4,1.4c-2.2,0.9 -4.1,2.2 -5.8,4c-1.2,1.2 -2.2,2.5 -2.8,4c-0.7,1.4 -1.1,2.9 -1.4,4.5c-0.3,1.6 -0.4,3.3 -0.5,5.2c0,1.8 -0.1,3.8 -0.1,5.9c0,2.1 0,4.1 0.1,5.9c0,1.8 0.2,3.6 0.5,5.2c0.3,1.6 0.8,3.1 1.4,4.5c0.7,1.4 1.6,2.7 2.8,4c1.7,1.7 3.7,3.1 5.8,4c2.2,0.9 4.7,1.4 7.4,1.4c2.8,0 5.2,-0.5 7.4,-1.4c2.2,-0.9 4.1,-2.2 5.8,-4c1.2,-1.2 2.2,-2.6 2.9,-4c0.7,-1.4 1.2,-2.9 1.4,-4.5c0.3,-1.6 0.5,-3.3 0.5,-5.2c0.1,-1.9 0.1,-3.8 0.1,-5.9m-9.6,0c0,2.3 0,4.3 -0.1,5.8c-0.1,1.5 -0.2,2.8 -0.4,3.8c-0.2,1 -0.4,1.8 -0.7,2.4c-0.3,0.6 -0.7,1.2 -1.2,1.7c-0.7,0.8 -1.6,1.4 -2.6,1.9c-1,0.5 -2.2,0.7 -3.5,0.7c-1.3,0 -2.5,-0.3 -3.6,-0.7c-1.1,-0.5 -1.9,-1.1 -2.6,-1.9c-0.5,-0.5 -0.8,-1.1 -1.1,-1.7c-0.3,-0.6 -0.6,-1.4 -0.7,-2.4c-0.2,-1 -0.3,-2.3 -0.4,-3.8c-0.1,-1.6 -0.1,-3.5 -0.1,-5.8c0,-2.3 0,-4.3 0.1,-5.8c0.1,-1.5 0.2,-2.8 0.4,-3.8c0.2,-1 0.4,-1.8 0.7,-2.4c0.3,-0.6 0.7,-1.2 1.1,-1.7c0.7,-0.8 1.6,-1.4 2.6,-1.9c1.1,-0.5 2.2,-0.7 3.6,-0.7c1.3,0 2.5,0.2 3.5,0.7c1,0.5 1.9,1.1 2.6,1.9c0.5,0.5 0.8,1.1 1.2,1.7c0.3,0.6 0.6,1.4 0.7,2.4c0.2,1 0.3,2.3 0.4,3.8c0.1,1.5 0.1,3.4 0.1,5.8" class="st0"/>
   </g>
   <g id="svg_49">
    <path id="svg_50" d="m414,22.1c0,-0.5 -0.4,-0.8 -0.8,-0.8l-7.9,0c-0.5,0 -0.8,0.4 -0.8,0.8l0,29.2l-19.2,-29.8c-0.1,-0.2 -0.2,-0.2 -0.5,-0.2l-7.3,0c-0.5,0 -0.8,0.4 -0.8,0.8l0,47.4c0,0.5 0.4,0.8 0.8,0.8l7.9,0c0.5,0 0.8,-0.4 0.8,-0.8l0,-29.3l19.2,29.9c0.1,0.2 0.2,0.2 0.5,0.2l7.3,0c0.5,0 0.8,-0.4 0.8,-0.8l0,-47.4z" class="st0"/>
   </g>
   <g id="svg_51">
    <path id="svg_52" d="m361.1,22.1c0,-0.5 -0.4,-0.8 -0.8,-0.8l-7.9,0c-0.5,0 -0.8,0.4 -0.8,0.8l0,47.4c0,0.5 0.4,0.8 0.8,0.8l7.9,0c0.5,0 0.8,-0.4 0.8,-0.8l0,-47.4z" class="st0"/>
   </g>
   <g id="svg_53">
    <path id="svg_54" d="m266.8,45.8c0,-2.4 0,-4.3 0.1,-5.9c0.1,-1.5 0.2,-2.8 0.4,-3.8c0.7,-4.2 4,-6.7 8.1,-6.7c2.7,0 5.1,1 6.7,3.3c0.7,1 1.2,2.1 1.5,3.5c0,0.1 0.1,0.2 0.3,0.2l9.3,0c0.1,0 0.2,-0.1 0.2,-0.2c-1,-5.8 -4.1,-10.9 -9.5,-13.5c-2.5,-1.2 -5.3,-1.8 -8.5,-1.8c-5.2,0 -9.6,1.8 -13.2,5.4c-2,2 -3.4,4.5 -4,7.4c-0.5,2.8 -0.8,6.8 -0.8,12.2c0,5.4 0.3,9.4 0.8,12.2c0.6,2.8 1.9,5.3 4,7.4c3.6,3.6 8,5.4 13.2,5.4c3.2,0 6,-0.6 8.5,-1.8c5.4,-2.6 8.5,-7.7 9.5,-13.5c0,-0.1 0,-0.2 -0.2,-0.2l-9.3,0c-0.2,0 -0.2,0.1 -0.3,0.2c-0.3,1.3 -0.9,2.5 -1.5,3.5c-1.6,2.3 -4,3.3 -6.7,3.3c-4.1,0 -7.3,-2.5 -8.1,-6.7c-0.2,-1 -0.3,-2.3 -0.4,-3.8c-0.1,-1.8 -0.1,-3.8 -0.1,-6.1" class="st0"/>
   </g>
   <g id="svg_55">
    <path id="svg_56" d="m168.8,22.1c0,-0.5 -0.4,-0.8 -0.8,-0.8l-7.9,0c-0.5,0 -0.8,0.4 -0.8,0.8l0,47.4c0,0.5 0.4,0.8 0.8,0.8l7.9,0c0.5,0 0.8,-0.4 0.8,-0.8l0,-13.9l6.3,-7.6l13,22.1c0.1,0.2 0.3,0.3 0.5,0.3l9.6,0c0.4,0 0.5,-0.3 0.3,-0.7l-17,-28.9l15.5,-18.8c0.3,-0.4 0.2,-0.7 -0.3,-0.7l-10.5,0c-0.2,0 -0.2,0 -0.3,0.2l-17.1,20.5l0,-19.9z" class="st0"/>
   </g>
   <g id="svg_57">
    <path id="svg_58" d="m226.2,62.2c-4.4,0 -8.5,-4.1 -8.5,-9l0,-31.1c0,-0.5 -0.4,-0.8 -0.8,-0.8l-7.9,0c-0.5,0 -0.8,0.4 -0.8,0.8l0,30.9c0,10.8 8.1,17.7 18,17.7c9.9,0 18,-6.9 18,-17.7l0,-30.9c0,-0.5 -0.4,-0.8 -0.8,-0.8l-7.9,0c-0.5,0 -0.8,0.4 -0.8,0.8l0,31.1c-0.1,4.8 -4.1,9 -8.5,9" class="st0"/>
   </g>
  </g>
 </g>
</svg>