<?xml version="1.0" encoding="UTF-8"?>
<svg width="85px" height="72px" viewBox="0 0 85 72" version="1.1" xmlns="http://www.w3.org/2000/svg" xmlns:xlink="http://www.w3.org/1999/xlink">
    <title>空</title>
    <g id="页面-1" stroke="none" strokeWidth="1" fill="none" fill-rule="evenodd" opacity="0.0799999982">
        <g id="搜索_空" transform="translate(-678.000000, -781.000000)" fill="#000000" fill-rule="nonzero">
            <g id="空" transform="translate(678.000000, 781.000000)">
                <path d="M71.971875,22.35 L12.15,22.35 L0,44.15625 L0,71.371875 L84.1125,71.371875 L84.1125,44.15625 L71.971875,22.35 Z M52.74375,44.4 C52.74375,50.296875 47.9625,55.078125 42.05625,55.078125 C36.15,55.078125 31.36875,50.296875 31.36875,44.4 L5.015625,44.4 L14.746875,25.8375 L69.35625,25.8375 L79.0875,44.4 L52.74375,44.4 Z M41.08125,0 L44.746875,0 L44.746875,13.18125 L41.08125,13.18125 L41.08125,0 Z M16.2051563,6.5439375 L18.7970625,3.95203125 L28.1175938,13.2724687 L25.5255937,15.8644687 L16.2051563,6.5439375 Z M56.5825313,13.2784688 L65.9029687,3.9579375 L68.4949687,6.5499375 L59.1745313,15.870375 L56.5825313,13.2784688 Z" id="形状"></path>
            </g>
        </g>
    </g>
</svg>