<?xml version="1.0" encoding="UTF-8"?>
<svg width="522px" height="184px" viewBox="0 0 522 184" version="1.1" xmlns="http://www.w3.org/2000/svg" xmlns:xlink="http://www.w3.org/1999/xlink">
    <title>编组 11</title>
    <defs>
        <rect id="path-1" x="0" y="0" width="522" height="184"></rect>
        <filter x="-17.8%" y="-17.8%" width="135.6%" height="135.6%" filterUnits="objectBoundingBox" id="filter-3">
            <feGaussianBlur stdDeviation="28" in="SourceGraphic"></feGaussianBlur>
        </filter>
        <linearGradient x1="100%" y1="50%" x2="0%" y2="50%" id="linearGradient-4">
            <stop stop-color="#09BB8C" offset="0%"></stop>
            <stop stop-color="#49FFA1" offset="100%"></stop>
        </linearGradient>
        <circle id="path-5" cx="59" cy="59" r="59"></circle>
        <filter x="-92.4%" y="-90.7%" width="284.7%" height="284.7%" filterUnits="objectBoundingBox" id="filter-7">
            <feOffset dx="0" dy="2" in="SourceAlpha" result="shadowOffsetOuter1"></feOffset>
            <feGaussianBlur stdDeviation="36" in="shadowOffsetOuter1" result="shadowBlurOuter1"></feGaussianBlur>
            <feColorMatrix values="0 0 0 0 0.28627451   0 0 0 0 1   0 0 0 0 0.631372549  0 0 0 0.88 0" type="matrix" in="shadowBlurOuter1"></feColorMatrix>
        </filter>
        <linearGradient x1="100%" y1="50%" x2="0%" y2="50%" id="linearGradient-8">
            <stop stop-color="#32E699" offset="0%"></stop>
            <stop stop-color="#1C4B34" offset="100%"></stop>
        </linearGradient>
        <linearGradient x1="100%" y1="50%" x2="0%" y2="50%" id="linearGradient-9">
            <stop stop-color="#32E699" offset="0%"></stop>
            <stop stop-color="#1C4B34" offset="100%"></stop>
        </linearGradient>
        <linearGradient x1="100%" y1="50%" x2="0%" y2="50%" id="linearGradient-10">
            <stop stop-color="#32E699" offset="0%"></stop>
            <stop stop-color="#1C4B34" offset="100%"></stop>
        </linearGradient>
        <path d="M395.96,86.22 L395.96,116.22 C395.96,123.906855 393.377982,128.523202 388.00108,130.281907 L388.000631,121.065388 C388.318758,119.96454 388.487518,118.63536 388.52,117.06 L388.52,117.06 L388.58,115.56 C388.387179,115.70178 388.194358,115.83552 388.000524,115.961472 L388.000408,108.325821 C388.349142,107.32721 388.52,106.100358 388.52,104.64 L388.52,104.64 L388.52,98.58 C388.52,97.1018365 388.349299,95.8626538 388.000889,94.8554429 L388.001054,87.0670037 C388.54088,87.4020064 389.049125,87.798 389.54,88.26 L389.54,88.26 L390.2,86.22 L395.96,86.22 Z M421.02,85.56 C430.38,85.56 434.22,90 434.22,100.74 L434.22,100.74 L434.22,103.44 L415.32,103.44 L415.32,104.4 C415.32,109.26 417.6,111.84 421.98,111.84 C424.92,111.84 426.72,110.94 428.34,108.66 L428.34,108.66 L433.8,111.84 C431.22,115.98 427.62,117.66 421.14,117.66 C411.84,117.66 407.82,113.22 407.82,102.9 L407.82,102.9 L407.82,100.74 C407.82,90 411.66,85.56 421.02,85.56 Z M93.92,74.16 L93.92,93.48 L108.38,74.16 L117.62,74.16 L103.52,91.68 L118.46,117 L109.4,117 L98.42,97.02 L93.92,102.78 L93.92,117 L86.12,117 L86.12,74.16 L93.92,74.16 Z M135.0001,74.4088771 L134.99997,83.4151547 C134.155394,85.2589506 133.8,87.928597 133.8,91.62 L133.8,91.62 L133.8,99.66 C133.8,103.363243 134.152727,106.030351 134.999915,107.869204 L134.999634,116.861309 C132.309028,116.036172 130.262456,114.560171 128.7,112.38 C126.72,109.62 125.94,106.26 125.94,100.2 L125.94,100.2 L125.94,91.08 C125.94,84.42 126.84,80.94 129.3,78.12 C130.842763,76.3372517 132.679368,75.1225973 135.0001,74.4088771 Z M421.2,91.14 C417.42,91.14 415.26,93.48 415.26,97.62 L415.26,97.62 L415.26,98.28 L427.2,98.28 L427.2,97.62 C427.2,93.42 425.1,91.14 421.2,91.14 Z" id="path-11"></path>
    </defs>
    <g id="页面-1" stroke="none" strokeWidth="1" fill="none" fill-rule="evenodd">
        <g id="钱包未链接" transform="translate(-459.000000, -80.000000)">
            <g id="编组-11" transform="translate(459.000000, 80.000000)">
                <mask id="mask-2" fill="white">
                    <use xlink:href="#path-1"></use>
                </mask>
                <use id="矩形" fill="#D8D8D8" opacity="0" xlink:href="#path-1"></use>
                <g id="编组-7" mask="url(#mask-2)">
                    <g transform="translate(25.000000, -288.000000)">
                        <circle id="椭圆形" fill="#08130A" filter="url(#filter-3)" cx="236" cy="236" r="236"></circle>
                        <path d="M237,116 C315.976719,116 380,180.023281 380,259 C380,278.224052 376.206592,296.562106 369.32748,313.306457 C370.817959,317.207691 371.003442,321.822063 369.533957,326.344673 C367.244102,333.39212 361.57216,338.257756 355.366598,339.25859 C329.64477,377.125713 286.227236,402 237,402 C226.223694,402 215.725797,400.807991 205.630968,398.548633 C200.151011,401.516538 192.620004,402.354226 184.960984,400.301998 C174.775576,397.572826 167.341671,390.530698 165.684514,382.974678 C146.198932,371.742512 129.610577,356.04818 117.314212,337.287754 C115.71532,337.302645 114.094013,336.99893 112.538074,336.338473 C106.252117,333.670242 103.413416,326.189884 106.197656,319.630625 C106.391678,319.173537 106.607887,318.732983 106.844374,318.309782 C98.5952951,300.243902 94,280.158595 94,259 C94,180.023281 158.023281,116 237,116 Z" id="形状结合" fill="#101915"></path>
                        <ellipse id="椭圆形" fill="#010302" opacity="0.379999995" transform="translate(123.500000, 301.500000) rotate(-16.000000) translate(-123.500000, -301.500000) " cx="123.5" cy="301.5" rx="5.5" ry="9.5"></ellipse>
                        <ellipse id="椭圆形备份-6" fill="#010302" opacity="0.5" transform="translate(201.500000, 319.000000) rotate(-55.000000) translate(-201.500000, -319.000000) " cx="201.5" cy="319" rx="8.5" ry="13"></ellipse>
                        <ellipse id="椭圆形" fill="#040806" opacity="0.239999995" transform="translate(258.500000, 364.500000) rotate(-4.000000) translate(-258.500000, -364.500000) " cx="258.5" cy="364.5" rx="24" ry="13"></ellipse>
                        <g id="编组-6" strokeWidth="1" fill="none" transform="translate(178.000000, 208.000000)">
                            <mask id="mask-6" fill="white">
                                <use xlink:href="#path-5"></use>
                            </mask>
                            <g id="椭圆形">
                                <use fill="black" fill-opacity="1" filter="url(#filter-7)" xlink:href="#path-5"></use>
                                <use fill="url(#linearGradient-4)" fill-rule="evenodd" xlink:href="#path-5"></use>
                            </g>
                            <path d="M10,94.9141588 C16.2884093,95.5328393 28.3309263,92.7889728 41.80754,87.2752288 C57.6011657,80.8135157 70.4433412,72.560983 74,67" id="路径" stroke="url(#linearGradient-8)" mask="url(#mask-6)"></path>
                            <path d="M10,108.660423 C16.8203233,109.226917 29.8814737,106.714501 44.4980258,101.665854 C61.6275778,95.7492003 82.1424961,84.8309255 86,79.7390236" id="路径备份" stroke="url(#linearGradient-9)" mask="url(#mask-6)"></path>
                            <path d="M18,111.9214 C24.5511,112.487893 37.0966787,109.975478 51.1362616,104.92683 C67.5896471,99.0101767 87.294766,88.0919019 91,83" id="路径备份-2" stroke="url(#linearGradient-10)" opacity="0.379999995" mask="url(#mask-6)"></path>
                        </g>
                    </g>
                </g>
                <path d="M93.92,117 L93.92,102.78 L98.42,97.02 L109.4,117 L118.46,117 L103.52,91.68 L117.62,74.16 L108.38,74.16 L93.92,93.48 L93.92,74.16 L86.12,74.16 L86.12,117 L93.92,117 Z M141.12,117.66 C150.72,117.66 155.7,113.76 156.12,105.84 L148.8,105 C148.2,109.26 145.74,111.3 141.36,111.3 C135.72,111.3 133.8,108.3 133.8,99.66 L133.8,91.62 C133.8,83.04 135.72,79.98 141.24,79.98 C145.5,79.98 147.78,82.02 148.32,86.28 L155.52,85.74 C155.1,77.58 150.36,73.62 141.12,73.62 C135.6,73.62 132,75 129.3,78.12 C126.84,80.94 125.94,84.42 125.94,91.08 L125.94,100.2 C125.94,106.26 126.72,109.62 128.7,112.38 C131.28,115.98 135.18,117.66 141.12,117.66 Z M182.98,117.66 C192.58,117.66 197.56,113.76 197.98,105.84 L190.66,105 C190.06,109.26 187.6,111.3 183.22,111.3 C177.58,111.3 175.66,108.3 175.66,99.66 L175.66,91.62 C175.66,83.04 177.58,79.98 183.1,79.98 C187.36,79.98 189.64,82.02 190.18,86.28 L197.38,85.74 C196.96,77.58 192.22,73.62 182.98,73.62 C177.46,73.62 173.86,75 171.16,78.12 C168.7,80.94 167.8,84.42 167.8,91.08 L167.8,100.2 C167.8,106.26 168.58,109.62 170.56,112.38 C173.14,115.98 177.04,117.66 182.98,117.66 Z M259.6,117 C264.22,117 266.62,116.4 268.78,114.72 C271.36,112.74 272.68,109.44 272.68,105.12 C272.68,102.36 272.2,99.96 271.18,98.04 C270.58,96.9 270.04,96.3 268.42,95.04 C268.18,94.92 268,94.74 267.82,94.62 C270.64,92.58 271.9,89.82 271.9,85.62 C271.9,81.9 270.64,78.72 268.48,76.8 C266.32,74.88 263.74,74.16 258.76,74.16 L242.26,74.16 L242.26,117 L259.6,117 Z M258.22,91.98 L250.06,91.98 L250.06,80.46 L258.22,80.46 C262.3,80.46 264.1,82.2 264.1,86.22 C264.1,90.24 262.3,91.98 258.22,91.98 Z M259.06,110.7 L250.06,110.7 L250.06,98.28 L259.06,98.28 C263.08,98.28 264.88,100.2 264.88,104.52 C264.88,108.84 263.14,110.7 259.06,110.7 Z M291.02,117 L291.02,102.12 C291.02,94.92 292.4,91.98 295.82,91.98 C297.2,91.98 298.34,92.4 299.9,93.6 L303.14,87.48 C300.62,86.1 298.76,85.56 296.54,85.56 C293.84,85.56 292.1,86.34 290.18,88.44 L289.28,86.22 L283.58,86.22 L283.58,117 L291.02,117 Z M319.98,81.42 L319.98,73.8 L312.54,73.8 L312.54,81.42 L319.98,81.42 Z M319.98,117 L319.98,86.22 L312.54,86.22 L312.54,117 L319.98,117 Z M343.54,117.66 C347.26,117.66 349.36,117 351.4,115.2 L351.82,114.84 L352.24,117 L358,117 L358,74.16 L350.56,74.16 L350.56,87.66 C350.26,87.54 350.26,87.48 350.02,87.36 C349.24,86.76 349.24,86.76 348.88,86.64 C347.08,85.86 345.58,85.56 343.42,85.56 C335.44,85.56 331.96,89.76 331.96,99.36 L331.96,103.86 C331.96,113.52 335.44,117.66 343.54,117.66 Z M344.92,111.66 C341.08,111.66 339.34,109.08 339.34,103.32 L339.34,99.9 C339.34,94.08 341.08,91.5 344.92,91.5 C348.76,91.5 350.56,93.78 350.56,98.58 L350.56,104.64 C350.56,109.44 348.76,111.66 344.92,111.66 Z M382.16,131.1 C391.52,131.1 395.96,126.3 395.96,116.22 L395.96,86.22 L390.2,86.22 L389.54,88.26 C387.5,86.34 385.16,85.56 381.5,85.56 C373.4,85.56 369.92,89.7 369.92,99.36 L369.92,103.86 C369.92,113.46 373.4,117.66 381.26,117.66 C384.5,117.66 386.54,117.06 388.58,115.56 L388.52,117.06 C388.4,122.88 386.42,125.34 381.92,125.34 C379.16,125.34 377.6,124.5 376.1,122.1 L370.58,125.28 C372.92,129.3 376.46,131.1 382.16,131.1 Z M382.88,111.66 C379.04,111.66 377.3,109.08 377.3,103.32 L377.3,99.9 C377.3,94.08 379.04,91.5 382.88,91.5 C386.72,91.5 388.52,93.78 388.52,98.58 L388.52,104.64 C388.52,109.38 386.72,111.66 382.88,111.66 Z M421.14,117.66 C427.62,117.66 431.22,115.98 433.8,111.84 L428.34,108.66 C426.72,110.94 424.92,111.84 421.98,111.84 C417.6,111.84 415.32,109.26 415.32,104.4 L415.32,103.44 L434.22,103.44 L434.22,100.74 C434.22,90 430.38,85.56 421.02,85.56 C411.66,85.56 407.82,90 407.82,100.74 L407.82,102.9 C407.82,113.22 411.84,117.66 421.14,117.66 Z M427.2,98.28 L415.26,98.28 L415.26,97.62 C415.26,93.48 417.42,91.14 421.2,91.14 C425.1,91.14 427.2,93.42 427.2,97.62 L427.2,98.28 Z" id="KCCBridge" stroke="#FFFFFF" strokeWidth="0.7" opacity="0.800000012" fill-rule="nonzero" mask="url(#mask-2)"></path>
                <g id="形状结合" fill-rule="nonzero" mask="url(#mask-2)" fill="#FFFFFF">
                    <use xlink:href="#path-11"></use>
                    <use xlink:href="#path-11"></use>
                </g>
            </g>
        </g>
    </g>
</svg>